G04 #@! TF.GenerationSoftware,KiCad,Pcbnew,5.0.1-33cea8e~67~ubuntu18.04.1*
G04 #@! TF.CreationDate,2018-10-18T12:01:15+02:00*
G04 #@! TF.ProjectId,puenteH,7075656E7465482E6B696361645F7063,rev?*
G04 #@! TF.SameCoordinates,Original*
G04 #@! TF.FileFunction,Copper,L2,Bot,Signal*
G04 #@! TF.FilePolarity,Positive*
%FSLAX46Y46*%
G04 Gerber Fmt 4.6, Leading zero omitted, Abs format (unit mm)*
G04 Created by KiCad (PCBNEW 5.0.1-33cea8e~67~ubuntu18.04.1) date jue 18 oct 2018 12:01:15 CEST*
%MOMM*%
%LPD*%
G01*
G04 APERTURE LIST*
G04 #@! TA.AperFunction,ComponentPad*
%ADD10R,1.700000X1.700000*%
G04 #@! TD*
G04 #@! TA.AperFunction,ComponentPad*
%ADD11O,1.700000X1.700000*%
G04 #@! TD*
G04 #@! TA.AperFunction,ComponentPad*
%ADD12R,1.600000X1.600000*%
G04 #@! TD*
G04 #@! TA.AperFunction,ComponentPad*
%ADD13O,1.600000X1.600000*%
G04 #@! TD*
G04 #@! TA.AperFunction,ComponentPad*
%ADD14R,2.400000X1.600000*%
G04 #@! TD*
G04 #@! TA.AperFunction,ComponentPad*
%ADD15O,2.400000X1.600000*%
G04 #@! TD*
G04 #@! TA.AperFunction,ComponentPad*
%ADD16C,1.500000*%
G04 #@! TD*
G04 #@! TA.AperFunction,ViaPad*
%ADD17C,0.800000*%
G04 #@! TD*
G04 #@! TA.AperFunction,Conductor*
%ADD18C,0.600000*%
G04 #@! TD*
G04 #@! TA.AperFunction,Conductor*
%ADD19C,0.250000*%
G04 #@! TD*
G04 #@! TA.AperFunction,Conductor*
%ADD20C,0.254000*%
G04 #@! TD*
G04 APERTURE END LIST*
D10*
G04 #@! TO.P,J1,1*
G04 #@! TO.N,MOSI*
X83820000Y-66040000D03*
D11*
G04 #@! TO.P,J1,2*
G04 #@! TO.N,MISO*
X83820000Y-68580000D03*
G04 #@! TO.P,J1,3*
G04 #@! TO.N,SCK*
X83820000Y-71120000D03*
G04 #@! TO.P,J1,4*
G04 #@! TO.N,RESET*
X83820000Y-73660000D03*
G04 #@! TO.P,J1,5*
G04 #@! TO.N,+5V*
X83820000Y-76200000D03*
G04 #@! TO.P,J1,6*
G04 #@! TO.N,GND*
X83820000Y-78740000D03*
G04 #@! TD*
G04 #@! TO.P,J2,2*
G04 #@! TO.N,GND*
X80645000Y-78740000D03*
D10*
G04 #@! TO.P,J2,1*
G04 #@! TO.N,+5V*
X80645000Y-76200000D03*
G04 #@! TD*
G04 #@! TO.P,J3,1*
G04 #@! TO.N,V_EXT*
X116840000Y-53340000D03*
D11*
G04 #@! TO.P,J3,2*
G04 #@! TO.N,Net-(J3-Pad2)*
X116840000Y-55880000D03*
G04 #@! TO.P,J3,3*
G04 #@! TO.N,Net-(J3-Pad3)*
X116840000Y-58420000D03*
G04 #@! TO.P,J3,4*
G04 #@! TO.N,Net-(J3-Pad4)*
X116840000Y-60960000D03*
G04 #@! TO.P,J3,5*
G04 #@! TO.N,Net-(J3-Pad5)*
X116840000Y-63500000D03*
G04 #@! TO.P,J3,6*
G04 #@! TO.N,Net-(J3-Pad6)*
X116840000Y-66040000D03*
G04 #@! TO.P,J3,7*
G04 #@! TO.N,Net-(J3-Pad7)*
X116840000Y-68580000D03*
G04 #@! TO.P,J3,8*
G04 #@! TO.N,Net-(J3-Pad8)*
X116840000Y-71120000D03*
G04 #@! TD*
D10*
G04 #@! TO.P,J4,1*
G04 #@! TO.N,Net-(J4-Pad1)*
X88265000Y-53340000D03*
D11*
G04 #@! TO.P,J4,2*
G04 #@! TO.N,Net-(J4-Pad2)*
X88265000Y-55880000D03*
G04 #@! TO.P,J4,3*
G04 #@! TO.N,Net-(J4-Pad3)*
X88265000Y-58420000D03*
G04 #@! TO.P,J4,4*
G04 #@! TO.N,Net-(J4-Pad4)*
X88265000Y-60960000D03*
G04 #@! TD*
D10*
G04 #@! TO.P,J5,1*
G04 #@! TO.N,Net-(J5-Pad1)*
X116840000Y-99060000D03*
D11*
G04 #@! TO.P,J5,2*
G04 #@! TO.N,Net-(J5-Pad2)*
X116840000Y-96520000D03*
G04 #@! TD*
G04 #@! TO.P,J6,2*
G04 #@! TO.N,Net-(J6-Pad2)*
X116840000Y-81280000D03*
D10*
G04 #@! TO.P,J6,1*
G04 #@! TO.N,Net-(J6-Pad1)*
X116840000Y-83820000D03*
G04 #@! TD*
G04 #@! TO.P,J7,1*
G04 #@! TO.N,Net-(J7-Pad1)*
X88265000Y-104140000D03*
D11*
G04 #@! TO.P,J7,2*
G04 #@! TO.N,Net-(J7-Pad2)*
X88265000Y-106680000D03*
G04 #@! TO.P,J7,3*
G04 #@! TO.N,Net-(J7-Pad3)*
X88265000Y-109220000D03*
G04 #@! TO.P,J7,4*
G04 #@! TO.N,Net-(J7-Pad4)*
X88265000Y-111760000D03*
G04 #@! TD*
G04 #@! TO.P,J8,8*
G04 #@! TO.N,+5V*
X119380000Y-71120000D03*
G04 #@! TO.P,J8,7*
X119380000Y-68580000D03*
G04 #@! TO.P,J8,6*
X119380000Y-66040000D03*
G04 #@! TO.P,J8,5*
X119380000Y-63500000D03*
G04 #@! TO.P,J8,4*
X119380000Y-60960000D03*
G04 #@! TO.P,J8,3*
X119380000Y-58420000D03*
G04 #@! TO.P,J8,2*
X119380000Y-55880000D03*
D10*
G04 #@! TO.P,J8,1*
X119380000Y-53340000D03*
G04 #@! TD*
D11*
G04 #@! TO.P,J9,4*
G04 #@! TO.N,+5V*
X85725000Y-60960000D03*
G04 #@! TO.P,J9,3*
X85725000Y-58420000D03*
G04 #@! TO.P,J9,2*
X85725000Y-55880000D03*
D10*
G04 #@! TO.P,J9,1*
X85725000Y-53340000D03*
G04 #@! TD*
G04 #@! TO.P,J10,1*
G04 #@! TO.N,+5V*
X119380000Y-99060000D03*
D11*
G04 #@! TO.P,J10,2*
X119380000Y-96520000D03*
G04 #@! TD*
D10*
G04 #@! TO.P,J11,1*
G04 #@! TO.N,+5V*
X119380000Y-83820000D03*
D11*
G04 #@! TO.P,J11,2*
X119380000Y-81280000D03*
G04 #@! TD*
G04 #@! TO.P,J12,4*
G04 #@! TO.N,+5V*
X85725000Y-111760000D03*
G04 #@! TO.P,J12,3*
X85725000Y-109220000D03*
G04 #@! TO.P,J12,2*
X85725000Y-106680000D03*
D10*
G04 #@! TO.P,J12,1*
X85725000Y-104140000D03*
G04 #@! TD*
G04 #@! TO.P,J13,1*
G04 #@! TO.N,GND*
X121920000Y-53340000D03*
D11*
G04 #@! TO.P,J13,2*
X121920000Y-55880000D03*
G04 #@! TO.P,J13,3*
X121920000Y-58420000D03*
G04 #@! TO.P,J13,4*
X121920000Y-60960000D03*
G04 #@! TO.P,J13,5*
X121920000Y-63500000D03*
G04 #@! TO.P,J13,6*
X121920000Y-66040000D03*
G04 #@! TO.P,J13,7*
X121920000Y-68580000D03*
G04 #@! TO.P,J13,8*
X121920000Y-71120000D03*
G04 #@! TD*
D10*
G04 #@! TO.P,J14,1*
G04 #@! TO.N,GND*
X83185000Y-53340000D03*
D11*
G04 #@! TO.P,J14,2*
X83185000Y-55880000D03*
G04 #@! TO.P,J14,3*
X83185000Y-58420000D03*
G04 #@! TO.P,J14,4*
X83185000Y-60960000D03*
G04 #@! TD*
G04 #@! TO.P,J15,2*
G04 #@! TO.N,GND*
X121920000Y-96520000D03*
D10*
G04 #@! TO.P,J15,1*
X121920000Y-99060000D03*
G04 #@! TD*
D11*
G04 #@! TO.P,J16,2*
G04 #@! TO.N,GND*
X121920000Y-81280000D03*
D10*
G04 #@! TO.P,J16,1*
X121920000Y-83820000D03*
G04 #@! TD*
G04 #@! TO.P,J17,1*
G04 #@! TO.N,GND*
X83185000Y-104140000D03*
D11*
G04 #@! TO.P,J17,2*
X83185000Y-106680000D03*
G04 #@! TO.P,J17,3*
X83185000Y-109220000D03*
G04 #@! TO.P,J17,4*
X83185000Y-111760000D03*
G04 #@! TD*
G04 #@! TO.P,J18,4*
G04 #@! TO.N,TX2*
X82550000Y-96520000D03*
G04 #@! TO.P,J18,3*
G04 #@! TO.N,RX2*
X82550000Y-93980000D03*
G04 #@! TO.P,J18,2*
G04 #@! TO.N,TX1*
X82550000Y-91440000D03*
D10*
G04 #@! TO.P,J18,1*
G04 #@! TO.N,RX1*
X82550000Y-88900000D03*
G04 #@! TD*
G04 #@! TO.P,J19,1*
G04 #@! TO.N,+5V*
X80010000Y-88900000D03*
D11*
G04 #@! TO.P,J19,2*
X80010000Y-91440000D03*
G04 #@! TO.P,J19,3*
X80010000Y-93980000D03*
G04 #@! TO.P,J19,4*
X80010000Y-96520000D03*
G04 #@! TD*
G04 #@! TO.P,J20,4*
G04 #@! TO.N,GND*
X77470000Y-96520000D03*
G04 #@! TO.P,J20,3*
X77470000Y-93980000D03*
G04 #@! TO.P,J20,2*
X77470000Y-91440000D03*
D10*
G04 #@! TO.P,J20,1*
X77470000Y-88900000D03*
G04 #@! TD*
G04 #@! TO.P,J21,1*
G04 #@! TO.N,+BATT*
X128270000Y-66040000D03*
D11*
G04 #@! TO.P,J21,2*
G04 #@! TO.N,GND*
X128270000Y-68580000D03*
G04 #@! TD*
D10*
G04 #@! TO.P,J22,1*
G04 #@! TO.N,Net-(D5-Pad2)*
X150495000Y-78740000D03*
D11*
G04 #@! TO.P,J22,2*
G04 #@! TO.N,Net-(D6-Pad2)*
X150495000Y-76200000D03*
G04 #@! TD*
G04 #@! TO.P,J23,2*
G04 #@! TO.N,Net-(D4-Pad2)*
X150495000Y-99060000D03*
D10*
G04 #@! TO.P,J23,1*
G04 #@! TO.N,Net-(D3-Pad2)*
X150495000Y-101600000D03*
G04 #@! TD*
D12*
G04 #@! TO.P,U1,1*
G04 #@! TO.N,STATUS_LED*
X93980000Y-53340000D03*
D13*
G04 #@! TO.P,U1,21*
G04 #@! TO.N,Net-(J7-Pad4)*
X109220000Y-101600000D03*
G04 #@! TO.P,U1,2*
G04 #@! TO.N,Net-(J4-Pad1)*
X93980000Y-55880000D03*
G04 #@! TO.P,U1,22*
G04 #@! TO.N,Net-(J5-Pad1)*
X109220000Y-99060000D03*
G04 #@! TO.P,U1,3*
G04 #@! TO.N,Net-(J4-Pad2)*
X93980000Y-58420000D03*
G04 #@! TO.P,U1,23*
G04 #@! TO.N,Net-(J5-Pad2)*
X109220000Y-96520000D03*
G04 #@! TO.P,U1,4*
G04 #@! TO.N,Net-(J4-Pad3)*
X93980000Y-60960000D03*
G04 #@! TO.P,U1,24*
G04 #@! TO.N,MOTOR1A*
X109220000Y-93980000D03*
G04 #@! TO.P,U1,5*
G04 #@! TO.N,Net-(J4-Pad4)*
X93980000Y-63500000D03*
G04 #@! TO.P,U1,25*
G04 #@! TO.N,MOTOR1B*
X109220000Y-91440000D03*
G04 #@! TO.P,U1,6*
G04 #@! TO.N,MOSI*
X93980000Y-66040000D03*
G04 #@! TO.P,U1,26*
G04 #@! TO.N,MOTOR2A*
X109220000Y-88900000D03*
G04 #@! TO.P,U1,7*
G04 #@! TO.N,MISO*
X93980000Y-68580000D03*
G04 #@! TO.P,U1,27*
G04 #@! TO.N,MOTOR2B*
X109220000Y-86360000D03*
G04 #@! TO.P,U1,8*
G04 #@! TO.N,SCK*
X93980000Y-71120000D03*
G04 #@! TO.P,U1,28*
G04 #@! TO.N,Net-(J6-Pad1)*
X109220000Y-83820000D03*
G04 #@! TO.P,U1,9*
G04 #@! TO.N,RESET*
X93980000Y-73660000D03*
G04 #@! TO.P,U1,29*
G04 #@! TO.N,Net-(J6-Pad2)*
X109220000Y-81280000D03*
G04 #@! TO.P,U1,10*
G04 #@! TO.N,+5V*
X93980000Y-76200000D03*
G04 #@! TO.P,U1,30*
X109220000Y-78740000D03*
G04 #@! TO.P,U1,11*
G04 #@! TO.N,GND*
X93980000Y-78740000D03*
G04 #@! TO.P,U1,31*
X109220000Y-76200000D03*
G04 #@! TO.P,U1,12*
G04 #@! TO.N,Net-(C2-Pad1)*
X93980000Y-81280000D03*
G04 #@! TO.P,U1,32*
G04 #@! TO.N,Net-(U1-Pad32)*
X109220000Y-73660000D03*
G04 #@! TO.P,U1,13*
G04 #@! TO.N,Net-(C1-Pad1)*
X93980000Y-83820000D03*
G04 #@! TO.P,U1,33*
G04 #@! TO.N,Net-(J3-Pad8)*
X109220000Y-71120000D03*
G04 #@! TO.P,U1,14*
G04 #@! TO.N,RX1*
X93980000Y-86360000D03*
G04 #@! TO.P,U1,34*
G04 #@! TO.N,Net-(J3-Pad7)*
X109220000Y-68580000D03*
G04 #@! TO.P,U1,15*
G04 #@! TO.N,TX1_INT*
X93980000Y-88900000D03*
G04 #@! TO.P,U1,35*
G04 #@! TO.N,Net-(J3-Pad6)*
X109220000Y-66040000D03*
G04 #@! TO.P,U1,16*
G04 #@! TO.N,RX2*
X93980000Y-91440000D03*
G04 #@! TO.P,U1,36*
G04 #@! TO.N,Net-(J3-Pad5)*
X109220000Y-63500000D03*
G04 #@! TO.P,U1,17*
G04 #@! TO.N,TX2_INT*
X93980000Y-93980000D03*
G04 #@! TO.P,U1,37*
G04 #@! TO.N,Net-(J3-Pad4)*
X109220000Y-60960000D03*
G04 #@! TO.P,U1,18*
G04 #@! TO.N,Net-(J7-Pad1)*
X93980000Y-96520000D03*
G04 #@! TO.P,U1,38*
G04 #@! TO.N,Net-(J3-Pad3)*
X109220000Y-58420000D03*
G04 #@! TO.P,U1,19*
G04 #@! TO.N,Net-(J7-Pad2)*
X93980000Y-99060000D03*
G04 #@! TO.P,U1,39*
G04 #@! TO.N,Net-(J3-Pad2)*
X109220000Y-55880000D03*
G04 #@! TO.P,U1,20*
G04 #@! TO.N,Net-(J7-Pad3)*
X93980000Y-101600000D03*
G04 #@! TO.P,U1,40*
G04 #@! TO.N,V_IN*
X109220000Y-53340000D03*
G04 #@! TD*
D14*
G04 #@! TO.P,U2,1*
G04 #@! TO.N,+BATT*
X133985000Y-104140000D03*
D15*
G04 #@! TO.P,U2,5*
G04 #@! TO.N,GND*
X141605000Y-111760000D03*
G04 #@! TO.P,U2,2*
G04 #@! TO.N,MOTOR1A*
X133985000Y-106680000D03*
G04 #@! TO.P,U2,6*
G04 #@! TO.N,Net-(D3-Pad2)*
X141605000Y-109220000D03*
G04 #@! TO.P,U2,3*
G04 #@! TO.N,Net-(U2-Pad3)*
X133985000Y-109220000D03*
G04 #@! TO.P,U2,7*
G04 #@! TO.N,Net-(D3-Pad2)*
X141605000Y-106680000D03*
G04 #@! TO.P,U2,4*
G04 #@! TO.N,GND*
X133985000Y-111760000D03*
G04 #@! TO.P,U2,8*
G04 #@! TO.N,+BATT*
X141605000Y-104140000D03*
G04 #@! TD*
G04 #@! TO.P,U3,8*
G04 #@! TO.N,+BATT*
X141605000Y-91440000D03*
G04 #@! TO.P,U3,4*
G04 #@! TO.N,GND*
X133985000Y-99060000D03*
G04 #@! TO.P,U3,7*
G04 #@! TO.N,Net-(D4-Pad2)*
X141605000Y-93980000D03*
G04 #@! TO.P,U3,3*
G04 #@! TO.N,Net-(U3-Pad3)*
X133985000Y-96520000D03*
G04 #@! TO.P,U3,6*
G04 #@! TO.N,Net-(D4-Pad2)*
X141605000Y-96520000D03*
G04 #@! TO.P,U3,2*
G04 #@! TO.N,MOTOR1B*
X133985000Y-93980000D03*
G04 #@! TO.P,U3,5*
G04 #@! TO.N,GND*
X141605000Y-99060000D03*
D14*
G04 #@! TO.P,U3,1*
G04 #@! TO.N,+BATT*
X133985000Y-91440000D03*
G04 #@! TD*
G04 #@! TO.P,U4,1*
G04 #@! TO.N,+BATT*
X133985000Y-78740000D03*
D15*
G04 #@! TO.P,U4,5*
G04 #@! TO.N,GND*
X141605000Y-86360000D03*
G04 #@! TO.P,U4,2*
G04 #@! TO.N,MOTOR2A*
X133985000Y-81280000D03*
G04 #@! TO.P,U4,6*
G04 #@! TO.N,Net-(D5-Pad2)*
X141605000Y-83820000D03*
G04 #@! TO.P,U4,3*
G04 #@! TO.N,Net-(U4-Pad3)*
X133985000Y-83820000D03*
G04 #@! TO.P,U4,7*
G04 #@! TO.N,Net-(D5-Pad2)*
X141605000Y-81280000D03*
G04 #@! TO.P,U4,4*
G04 #@! TO.N,GND*
X133985000Y-86360000D03*
G04 #@! TO.P,U4,8*
G04 #@! TO.N,+BATT*
X141605000Y-78740000D03*
G04 #@! TD*
G04 #@! TO.P,U5,8*
G04 #@! TO.N,+BATT*
X141605000Y-66040000D03*
G04 #@! TO.P,U5,4*
G04 #@! TO.N,GND*
X133985000Y-73660000D03*
G04 #@! TO.P,U5,7*
G04 #@! TO.N,Net-(D6-Pad2)*
X141605000Y-68580000D03*
G04 #@! TO.P,U5,3*
G04 #@! TO.N,Net-(U5-Pad3)*
X133985000Y-71120000D03*
G04 #@! TO.P,U5,6*
G04 #@! TO.N,Net-(D6-Pad2)*
X141605000Y-71120000D03*
G04 #@! TO.P,U5,2*
G04 #@! TO.N,MOTOR2B*
X133985000Y-68580000D03*
G04 #@! TO.P,U5,5*
G04 #@! TO.N,GND*
X141605000Y-73660000D03*
D14*
G04 #@! TO.P,U5,1*
G04 #@! TO.N,+BATT*
X133985000Y-66040000D03*
G04 #@! TD*
D16*
G04 #@! TO.P,Y1,1*
G04 #@! TO.N,Net-(C1-Pad1)*
X88900000Y-86360000D03*
G04 #@! TO.P,Y1,2*
G04 #@! TO.N,Net-(C2-Pad1)*
X88900000Y-81480000D03*
G04 #@! TD*
D17*
G04 #@! TO.N,GND*
X98425000Y-78105000D03*
X85725000Y-95795000D03*
X84455000Y-99060000D03*
G04 #@! TO.N,+5V*
X132080000Y-55880000D03*
G04 #@! TO.N,STATUS_LED*
X99695000Y-102870000D03*
X99695000Y-100875000D03*
X99695000Y-80645000D03*
X99695000Y-73025000D03*
G04 #@! TD*
D18*
G04 #@! TO.N,GND*
X85725000Y-95795000D02*
X84455000Y-97065000D01*
X84455000Y-97065000D02*
X84455000Y-99060000D01*
X83185000Y-100330000D02*
X83185000Y-104140000D01*
X84455000Y-99060000D02*
X83185000Y-100330000D01*
X121920000Y-85070000D02*
X121920000Y-96520000D01*
X121920000Y-83820000D02*
X121920000Y-85070000D01*
X133985000Y-111760000D02*
X136525000Y-111760000D01*
X136525000Y-111760000D02*
X137795000Y-110490000D01*
X133985000Y-74860000D02*
X133985000Y-73660000D01*
X137795000Y-78670000D02*
X133985000Y-74860000D01*
X133985000Y-99060000D02*
X135585000Y-99060000D01*
X137795000Y-110490000D02*
X137795000Y-99060000D01*
X135585000Y-99060000D02*
X137795000Y-99060000D01*
X133985000Y-86360000D02*
X137795000Y-86360000D01*
X137795000Y-99060000D02*
X137795000Y-86360000D01*
X137795000Y-86360000D02*
X137795000Y-78670000D01*
X127000000Y-86360000D02*
X133985000Y-86360000D01*
X121920000Y-81280000D02*
X127000000Y-86360000D01*
X132385000Y-73660000D02*
X133985000Y-73660000D01*
X132147919Y-73660000D02*
X132385000Y-73660000D01*
X128270000Y-69782081D02*
X132147919Y-73660000D01*
X128270000Y-68580000D02*
X128270000Y-69782081D01*
G04 #@! TO.N,+5V*
X79395000Y-76200000D02*
X78105000Y-77490000D01*
X80645000Y-76200000D02*
X79395000Y-76200000D01*
X80010000Y-87650000D02*
X80010000Y-88900000D01*
X78105000Y-85745000D02*
X80010000Y-87650000D01*
X78105000Y-77490000D02*
X78105000Y-85745000D01*
X119380000Y-85070000D02*
X119380000Y-96520000D01*
X119380000Y-83820000D02*
X119380000Y-85070000D01*
X119380000Y-52090000D02*
X119400000Y-52070000D01*
X119380000Y-53340000D02*
X119380000Y-52090000D01*
X119400000Y-52070000D02*
X119400000Y-52050000D01*
X119400000Y-52050000D02*
X120015000Y-51435000D01*
X120015000Y-51435000D02*
X127635000Y-51435000D01*
X127635000Y-51435000D02*
X132080000Y-55880000D01*
D19*
G04 #@! TO.N,STATUS_LED*
X99695000Y-102870000D02*
X99695000Y-100875000D01*
X99695000Y-80645000D02*
X99695000Y-73025000D01*
D18*
G04 #@! TO.N,+BATT*
X128270000Y-66040000D02*
X133985000Y-66040000D01*
G04 #@! TO.N,Net-(D4-Pad2)*
X147955000Y-96520000D02*
X150495000Y-99060000D01*
X141605000Y-96520000D02*
X147955000Y-96520000D01*
G04 #@! TO.N,Net-(D5-Pad2)*
X150495000Y-80645000D02*
X150495000Y-78740000D01*
X141605000Y-81280000D02*
X149860000Y-81280000D01*
X149860000Y-81280000D02*
X150495000Y-80645000D01*
G04 #@! TO.N,Net-(D6-Pad2)*
X145415000Y-71120000D02*
X150495000Y-76200000D01*
X141605000Y-71120000D02*
X145415000Y-71120000D01*
D19*
G04 #@! TO.N,RX2*
X85090000Y-91440000D02*
X82550000Y-93980000D01*
X93980000Y-91440000D02*
X85090000Y-91440000D01*
G04 #@! TD*
D20*
G04 #@! TO.N,GND*
G36*
X118519250Y-51685181D02*
X118516398Y-51699518D01*
X118499250Y-51725182D01*
X118473673Y-51853764D01*
X118282235Y-51891843D01*
X118110000Y-52006928D01*
X117937765Y-51891843D01*
X117690000Y-51842560D01*
X115990000Y-51842560D01*
X115742235Y-51891843D01*
X115532191Y-52032191D01*
X115391843Y-52242235D01*
X115342560Y-52490000D01*
X115342560Y-54190000D01*
X115391843Y-54437765D01*
X115532191Y-54647809D01*
X115742235Y-54788157D01*
X115787619Y-54797184D01*
X115769375Y-54809375D01*
X115441161Y-55300582D01*
X115325908Y-55880000D01*
X115441161Y-56459418D01*
X115769375Y-56950625D01*
X116067761Y-57150000D01*
X115769375Y-57349375D01*
X115441161Y-57840582D01*
X115325908Y-58420000D01*
X115441161Y-58999418D01*
X115769375Y-59490625D01*
X116067761Y-59690000D01*
X115769375Y-59889375D01*
X115441161Y-60380582D01*
X115325908Y-60960000D01*
X115441161Y-61539418D01*
X115769375Y-62030625D01*
X116067761Y-62230000D01*
X115769375Y-62429375D01*
X115441161Y-62920582D01*
X115325908Y-63500000D01*
X115441161Y-64079418D01*
X115769375Y-64570625D01*
X116067761Y-64770000D01*
X115769375Y-64969375D01*
X115441161Y-65460582D01*
X115325908Y-66040000D01*
X115441161Y-66619418D01*
X115769375Y-67110625D01*
X116067761Y-67310000D01*
X115769375Y-67509375D01*
X115441161Y-68000582D01*
X115325908Y-68580000D01*
X115441161Y-69159418D01*
X115769375Y-69650625D01*
X116067761Y-69850000D01*
X115769375Y-70049375D01*
X115441161Y-70540582D01*
X115325908Y-71120000D01*
X115441161Y-71699418D01*
X115769375Y-72190625D01*
X116260582Y-72518839D01*
X116693744Y-72605000D01*
X116986256Y-72605000D01*
X117419418Y-72518839D01*
X117910625Y-72190625D01*
X118110000Y-71892239D01*
X118309375Y-72190625D01*
X118800582Y-72518839D01*
X119233744Y-72605000D01*
X119526256Y-72605000D01*
X119959418Y-72518839D01*
X120450625Y-72190625D01*
X120651353Y-71890214D01*
X121038642Y-72315183D01*
X121563108Y-72561486D01*
X121793000Y-72440819D01*
X121793000Y-71247000D01*
X122047000Y-71247000D01*
X122047000Y-72440819D01*
X122276892Y-72561486D01*
X122801358Y-72315183D01*
X123191645Y-71886924D01*
X123361476Y-71476890D01*
X123240155Y-71247000D01*
X122047000Y-71247000D01*
X121793000Y-71247000D01*
X121773000Y-71247000D01*
X121773000Y-70993000D01*
X121793000Y-70993000D01*
X121793000Y-68707000D01*
X122047000Y-68707000D01*
X122047000Y-70993000D01*
X123240155Y-70993000D01*
X123361476Y-70763110D01*
X123191645Y-70353076D01*
X122801358Y-69924817D01*
X122642046Y-69850000D01*
X122801358Y-69775183D01*
X123191645Y-69346924D01*
X123361476Y-68936890D01*
X126828524Y-68936890D01*
X126998355Y-69346924D01*
X127388642Y-69775183D01*
X127913108Y-70021486D01*
X128143000Y-69900819D01*
X128143000Y-68707000D01*
X128397000Y-68707000D01*
X128397000Y-69900819D01*
X128626892Y-70021486D01*
X129151358Y-69775183D01*
X129541645Y-69346924D01*
X129711476Y-68936890D01*
X129590155Y-68707000D01*
X128397000Y-68707000D01*
X128143000Y-68707000D01*
X126949845Y-68707000D01*
X126828524Y-68936890D01*
X123361476Y-68936890D01*
X123240155Y-68707000D01*
X122047000Y-68707000D01*
X121793000Y-68707000D01*
X121773000Y-68707000D01*
X121773000Y-68453000D01*
X121793000Y-68453000D01*
X121793000Y-66167000D01*
X122047000Y-66167000D01*
X122047000Y-68453000D01*
X123240155Y-68453000D01*
X123361476Y-68223110D01*
X123191645Y-67813076D01*
X122801358Y-67384817D01*
X122642046Y-67310000D01*
X122801358Y-67235183D01*
X123191645Y-66806924D01*
X123361476Y-66396890D01*
X123240155Y-66167000D01*
X122047000Y-66167000D01*
X121793000Y-66167000D01*
X121773000Y-66167000D01*
X121773000Y-65913000D01*
X121793000Y-65913000D01*
X121793000Y-63627000D01*
X122047000Y-63627000D01*
X122047000Y-65913000D01*
X123240155Y-65913000D01*
X123361476Y-65683110D01*
X123191645Y-65273076D01*
X123115936Y-65190000D01*
X126772560Y-65190000D01*
X126772560Y-66890000D01*
X126821843Y-67137765D01*
X126962191Y-67347809D01*
X127172235Y-67488157D01*
X127275708Y-67508739D01*
X126998355Y-67813076D01*
X126828524Y-68223110D01*
X126949845Y-68453000D01*
X128143000Y-68453000D01*
X128143000Y-68433000D01*
X128397000Y-68433000D01*
X128397000Y-68453000D01*
X129590155Y-68453000D01*
X129711476Y-68223110D01*
X129541645Y-67813076D01*
X129264292Y-67508739D01*
X129367765Y-67488157D01*
X129577809Y-67347809D01*
X129718157Y-67137765D01*
X129750533Y-66975000D01*
X132164413Y-66975000D01*
X132186843Y-67087765D01*
X132327191Y-67297809D01*
X132537235Y-67438157D01*
X132671106Y-67464785D01*
X132550423Y-67545423D01*
X132233260Y-68020091D01*
X132121887Y-68580000D01*
X132233260Y-69139909D01*
X132550423Y-69614577D01*
X132902758Y-69850000D01*
X132550423Y-70085423D01*
X132233260Y-70560091D01*
X132121887Y-71120000D01*
X132233260Y-71679909D01*
X132550423Y-72154577D01*
X132906499Y-72392499D01*
X132480500Y-72735104D01*
X132210633Y-73228181D01*
X132193096Y-73310961D01*
X132315085Y-73533000D01*
X133858000Y-73533000D01*
X133858000Y-73513000D01*
X134112000Y-73513000D01*
X134112000Y-73533000D01*
X135654915Y-73533000D01*
X135776904Y-73310961D01*
X135759367Y-73228181D01*
X135489500Y-72735104D01*
X135063501Y-72392499D01*
X135419577Y-72154577D01*
X135736740Y-71679909D01*
X135848113Y-71120000D01*
X135736740Y-70560091D01*
X135419577Y-70085423D01*
X135067242Y-69850000D01*
X135419577Y-69614577D01*
X135736740Y-69139909D01*
X135848113Y-68580000D01*
X135736740Y-68020091D01*
X135419577Y-67545423D01*
X135298894Y-67464785D01*
X135432765Y-67438157D01*
X135642809Y-67297809D01*
X135783157Y-67087765D01*
X135832440Y-66840000D01*
X135832440Y-66040000D01*
X139741887Y-66040000D01*
X139853260Y-66599909D01*
X140170423Y-67074577D01*
X140522758Y-67310000D01*
X140170423Y-67545423D01*
X139853260Y-68020091D01*
X139741887Y-68580000D01*
X139853260Y-69139909D01*
X140170423Y-69614577D01*
X140522758Y-69850000D01*
X140170423Y-70085423D01*
X139853260Y-70560091D01*
X139741887Y-71120000D01*
X139853260Y-71679909D01*
X140170423Y-72154577D01*
X140526499Y-72392499D01*
X140100500Y-72735104D01*
X139830633Y-73228181D01*
X139813096Y-73310961D01*
X139935085Y-73533000D01*
X141478000Y-73533000D01*
X141478000Y-73513000D01*
X141732000Y-73513000D01*
X141732000Y-73533000D01*
X143274915Y-73533000D01*
X143396904Y-73310961D01*
X143379367Y-73228181D01*
X143109500Y-72735104D01*
X142683501Y-72392499D01*
X143039577Y-72154577D01*
X143106112Y-72055000D01*
X145027711Y-72055000D01*
X149012730Y-76040020D01*
X148980908Y-76200000D01*
X149096161Y-76779418D01*
X149424375Y-77270625D01*
X149442619Y-77282816D01*
X149397235Y-77291843D01*
X149187191Y-77432191D01*
X149046843Y-77642235D01*
X148997560Y-77890000D01*
X148997560Y-79590000D01*
X149046843Y-79837765D01*
X149187191Y-80047809D01*
X149397235Y-80188157D01*
X149560000Y-80220533D01*
X149560000Y-80257711D01*
X149472711Y-80345000D01*
X143106112Y-80345000D01*
X143039577Y-80245423D01*
X142687242Y-80010000D01*
X143039577Y-79774577D01*
X143356740Y-79299909D01*
X143468113Y-78740000D01*
X143356740Y-78180091D01*
X143039577Y-77705423D01*
X142564909Y-77388260D01*
X142146333Y-77305000D01*
X141063667Y-77305000D01*
X140645091Y-77388260D01*
X140170423Y-77705423D01*
X139853260Y-78180091D01*
X139741887Y-78740000D01*
X139853260Y-79299909D01*
X140170423Y-79774577D01*
X140522758Y-80010000D01*
X140170423Y-80245423D01*
X139853260Y-80720091D01*
X139741887Y-81280000D01*
X139853260Y-81839909D01*
X140170423Y-82314577D01*
X140522758Y-82550000D01*
X140170423Y-82785423D01*
X139853260Y-83260091D01*
X139741887Y-83820000D01*
X139853260Y-84379909D01*
X140170423Y-84854577D01*
X140526499Y-85092499D01*
X140100500Y-85435104D01*
X139830633Y-85928181D01*
X139813096Y-86010961D01*
X139935085Y-86233000D01*
X141478000Y-86233000D01*
X141478000Y-86213000D01*
X141732000Y-86213000D01*
X141732000Y-86233000D01*
X143274915Y-86233000D01*
X143396904Y-86010961D01*
X143379367Y-85928181D01*
X143109500Y-85435104D01*
X142683501Y-85092499D01*
X143039577Y-84854577D01*
X143356740Y-84379909D01*
X143468113Y-83820000D01*
X143356740Y-83260091D01*
X143039577Y-82785423D01*
X142687242Y-82550000D01*
X143039577Y-82314577D01*
X143106112Y-82215000D01*
X149767914Y-82215000D01*
X149860000Y-82233317D01*
X149952086Y-82215000D01*
X150224819Y-82160750D01*
X150534097Y-81954097D01*
X150586261Y-81876028D01*
X151091028Y-81371261D01*
X151169097Y-81319097D01*
X151375750Y-81009819D01*
X151430000Y-80737086D01*
X151430000Y-80737085D01*
X151448317Y-80645000D01*
X151430000Y-80552914D01*
X151430000Y-80220533D01*
X151592765Y-80188157D01*
X151802809Y-80047809D01*
X151943157Y-79837765D01*
X151992440Y-79590000D01*
X151992440Y-77890000D01*
X151943157Y-77642235D01*
X151802809Y-77432191D01*
X151592765Y-77291843D01*
X151547381Y-77282816D01*
X151565625Y-77270625D01*
X151893839Y-76779418D01*
X152009092Y-76200000D01*
X151893839Y-75620582D01*
X151565625Y-75129375D01*
X151074418Y-74801161D01*
X150641256Y-74715000D01*
X150348744Y-74715000D01*
X150335020Y-74717730D01*
X146141261Y-70523972D01*
X146089097Y-70445903D01*
X145779819Y-70239250D01*
X145507086Y-70185000D01*
X145415000Y-70166683D01*
X145322914Y-70185000D01*
X143106112Y-70185000D01*
X143039577Y-70085423D01*
X142687242Y-69850000D01*
X143039577Y-69614577D01*
X143356740Y-69139909D01*
X143468113Y-68580000D01*
X143356740Y-68020091D01*
X143039577Y-67545423D01*
X142687242Y-67310000D01*
X143039577Y-67074577D01*
X143356740Y-66599909D01*
X143468113Y-66040000D01*
X143356740Y-65480091D01*
X143039577Y-65005423D01*
X142564909Y-64688260D01*
X142146333Y-64605000D01*
X141063667Y-64605000D01*
X140645091Y-64688260D01*
X140170423Y-65005423D01*
X139853260Y-65480091D01*
X139741887Y-66040000D01*
X135832440Y-66040000D01*
X135832440Y-65240000D01*
X135783157Y-64992235D01*
X135642809Y-64782191D01*
X135432765Y-64641843D01*
X135185000Y-64592560D01*
X132785000Y-64592560D01*
X132537235Y-64641843D01*
X132327191Y-64782191D01*
X132186843Y-64992235D01*
X132164413Y-65105000D01*
X129750533Y-65105000D01*
X129718157Y-64942235D01*
X129577809Y-64732191D01*
X129367765Y-64591843D01*
X129120000Y-64542560D01*
X127420000Y-64542560D01*
X127172235Y-64591843D01*
X126962191Y-64732191D01*
X126821843Y-64942235D01*
X126772560Y-65190000D01*
X123115936Y-65190000D01*
X122801358Y-64844817D01*
X122642046Y-64770000D01*
X122801358Y-64695183D01*
X123191645Y-64266924D01*
X123361476Y-63856890D01*
X123240155Y-63627000D01*
X122047000Y-63627000D01*
X121793000Y-63627000D01*
X121773000Y-63627000D01*
X121773000Y-63373000D01*
X121793000Y-63373000D01*
X121793000Y-61087000D01*
X122047000Y-61087000D01*
X122047000Y-63373000D01*
X123240155Y-63373000D01*
X123361476Y-63143110D01*
X123191645Y-62733076D01*
X122801358Y-62304817D01*
X122642046Y-62230000D01*
X122801358Y-62155183D01*
X123191645Y-61726924D01*
X123361476Y-61316890D01*
X123240155Y-61087000D01*
X122047000Y-61087000D01*
X121793000Y-61087000D01*
X121773000Y-61087000D01*
X121773000Y-60833000D01*
X121793000Y-60833000D01*
X121793000Y-58547000D01*
X122047000Y-58547000D01*
X122047000Y-60833000D01*
X123240155Y-60833000D01*
X123361476Y-60603110D01*
X123191645Y-60193076D01*
X122801358Y-59764817D01*
X122642046Y-59690000D01*
X122801358Y-59615183D01*
X123191645Y-59186924D01*
X123361476Y-58776890D01*
X123240155Y-58547000D01*
X122047000Y-58547000D01*
X121793000Y-58547000D01*
X121773000Y-58547000D01*
X121773000Y-58293000D01*
X121793000Y-58293000D01*
X121793000Y-56007000D01*
X122047000Y-56007000D01*
X122047000Y-58293000D01*
X123240155Y-58293000D01*
X123361476Y-58063110D01*
X123191645Y-57653076D01*
X122801358Y-57224817D01*
X122642046Y-57150000D01*
X122801358Y-57075183D01*
X123191645Y-56646924D01*
X123361476Y-56236890D01*
X123240155Y-56007000D01*
X122047000Y-56007000D01*
X121793000Y-56007000D01*
X121773000Y-56007000D01*
X121773000Y-55753000D01*
X121793000Y-55753000D01*
X121793000Y-53467000D01*
X122047000Y-53467000D01*
X122047000Y-55753000D01*
X123240155Y-55753000D01*
X123361476Y-55523110D01*
X123191645Y-55113076D01*
X122920122Y-54815136D01*
X123129698Y-54728327D01*
X123308327Y-54549699D01*
X123405000Y-54316310D01*
X123405000Y-53625750D01*
X123246250Y-53467000D01*
X122047000Y-53467000D01*
X121793000Y-53467000D01*
X121773000Y-53467000D01*
X121773000Y-53213000D01*
X121793000Y-53213000D01*
X121793000Y-53193000D01*
X122047000Y-53193000D01*
X122047000Y-53213000D01*
X123246250Y-53213000D01*
X123405000Y-53054250D01*
X123405000Y-52370000D01*
X127247711Y-52370000D01*
X131102570Y-56224859D01*
X131202569Y-56466280D01*
X131493720Y-56757431D01*
X131874126Y-56915000D01*
X132285874Y-56915000D01*
X132666280Y-56757431D01*
X132957431Y-56466280D01*
X133115000Y-56085874D01*
X133115000Y-55674126D01*
X132957431Y-55293720D01*
X132666280Y-55002569D01*
X132424859Y-54902570D01*
X131687720Y-54165431D01*
X147625000Y-54165431D01*
X147625000Y-55054569D01*
X147965259Y-55876026D01*
X148593974Y-56504741D01*
X149415431Y-56845000D01*
X150304569Y-56845000D01*
X151126026Y-56504741D01*
X151754741Y-55876026D01*
X152095000Y-55054569D01*
X152095000Y-54165431D01*
X151754741Y-53343974D01*
X151126026Y-52715259D01*
X150304569Y-52375000D01*
X149415431Y-52375000D01*
X148593974Y-52715259D01*
X147965259Y-53343974D01*
X147625000Y-54165431D01*
X131687720Y-54165431D01*
X129084289Y-51562000D01*
X150088581Y-51562000D01*
X150477551Y-51601510D01*
X151069883Y-51787135D01*
X151612787Y-52088073D01*
X152084090Y-52492028D01*
X152464540Y-52982503D01*
X152738598Y-53539461D01*
X152897348Y-54148914D01*
X152908000Y-54287347D01*
X152908000Y-110718581D01*
X152868490Y-111107551D01*
X152682864Y-111699885D01*
X152381927Y-112242787D01*
X151977972Y-112714090D01*
X151487500Y-113094539D01*
X150930539Y-113368598D01*
X150321086Y-113527348D01*
X150182653Y-113538000D01*
X78511419Y-113538000D01*
X78122449Y-113498490D01*
X77530115Y-113312864D01*
X76987213Y-113011927D01*
X76515910Y-112607972D01*
X76135461Y-112117500D01*
X75861402Y-111560539D01*
X75702652Y-110951086D01*
X75692000Y-110812653D01*
X75692000Y-110045431D01*
X76505000Y-110045431D01*
X76505000Y-110934569D01*
X76845259Y-111756026D01*
X77473974Y-112384741D01*
X78295431Y-112725000D01*
X79184569Y-112725000D01*
X80006026Y-112384741D01*
X80273877Y-112116890D01*
X81743524Y-112116890D01*
X81913355Y-112526924D01*
X82303642Y-112955183D01*
X82828108Y-113201486D01*
X83058000Y-113080819D01*
X83058000Y-111887000D01*
X81864845Y-111887000D01*
X81743524Y-112116890D01*
X80273877Y-112116890D01*
X80634741Y-111756026D01*
X80975000Y-110934569D01*
X80975000Y-110045431D01*
X80780924Y-109576890D01*
X81743524Y-109576890D01*
X81913355Y-109986924D01*
X82303642Y-110415183D01*
X82462954Y-110490000D01*
X82303642Y-110564817D01*
X81913355Y-110993076D01*
X81743524Y-111403110D01*
X81864845Y-111633000D01*
X83058000Y-111633000D01*
X83058000Y-109347000D01*
X81864845Y-109347000D01*
X81743524Y-109576890D01*
X80780924Y-109576890D01*
X80634741Y-109223974D01*
X80006026Y-108595259D01*
X79184569Y-108255000D01*
X78295431Y-108255000D01*
X77473974Y-108595259D01*
X76845259Y-109223974D01*
X76505000Y-110045431D01*
X75692000Y-110045431D01*
X75692000Y-107036890D01*
X81743524Y-107036890D01*
X81913355Y-107446924D01*
X82303642Y-107875183D01*
X82462954Y-107950000D01*
X82303642Y-108024817D01*
X81913355Y-108453076D01*
X81743524Y-108863110D01*
X81864845Y-109093000D01*
X83058000Y-109093000D01*
X83058000Y-106807000D01*
X81864845Y-106807000D01*
X81743524Y-107036890D01*
X75692000Y-107036890D01*
X75692000Y-104425750D01*
X81700000Y-104425750D01*
X81700000Y-105116310D01*
X81796673Y-105349699D01*
X81975302Y-105528327D01*
X82184878Y-105615136D01*
X81913355Y-105913076D01*
X81743524Y-106323110D01*
X81864845Y-106553000D01*
X83058000Y-106553000D01*
X83058000Y-104267000D01*
X81858750Y-104267000D01*
X81700000Y-104425750D01*
X75692000Y-104425750D01*
X75692000Y-103163690D01*
X81700000Y-103163690D01*
X81700000Y-103854250D01*
X81858750Y-104013000D01*
X83058000Y-104013000D01*
X83058000Y-102813750D01*
X83312000Y-102813750D01*
X83312000Y-104013000D01*
X83332000Y-104013000D01*
X83332000Y-104267000D01*
X83312000Y-104267000D01*
X83312000Y-106553000D01*
X83332000Y-106553000D01*
X83332000Y-106807000D01*
X83312000Y-106807000D01*
X83312000Y-109093000D01*
X83332000Y-109093000D01*
X83332000Y-109347000D01*
X83312000Y-109347000D01*
X83312000Y-111633000D01*
X83332000Y-111633000D01*
X83332000Y-111887000D01*
X83312000Y-111887000D01*
X83312000Y-113080819D01*
X83541892Y-113201486D01*
X84066358Y-112955183D01*
X84453647Y-112530214D01*
X84654375Y-112830625D01*
X85145582Y-113158839D01*
X85578744Y-113245000D01*
X85871256Y-113245000D01*
X86304418Y-113158839D01*
X86795625Y-112830625D01*
X86995000Y-112532239D01*
X87194375Y-112830625D01*
X87685582Y-113158839D01*
X88118744Y-113245000D01*
X88411256Y-113245000D01*
X88844418Y-113158839D01*
X89335625Y-112830625D01*
X89663839Y-112339418D01*
X89709664Y-112109039D01*
X132193096Y-112109039D01*
X132210633Y-112191819D01*
X132480500Y-112684896D01*
X132918517Y-113037166D01*
X133458000Y-113195000D01*
X133858000Y-113195000D01*
X133858000Y-111887000D01*
X134112000Y-111887000D01*
X134112000Y-113195000D01*
X134512000Y-113195000D01*
X135051483Y-113037166D01*
X135489500Y-112684896D01*
X135759367Y-112191819D01*
X135776904Y-112109039D01*
X139813096Y-112109039D01*
X139830633Y-112191819D01*
X140100500Y-112684896D01*
X140538517Y-113037166D01*
X141078000Y-113195000D01*
X141478000Y-113195000D01*
X141478000Y-111887000D01*
X141732000Y-111887000D01*
X141732000Y-113195000D01*
X142132000Y-113195000D01*
X142671483Y-113037166D01*
X143109500Y-112684896D01*
X143379367Y-112191819D01*
X143396904Y-112109039D01*
X143274915Y-111887000D01*
X141732000Y-111887000D01*
X141478000Y-111887000D01*
X139935085Y-111887000D01*
X139813096Y-112109039D01*
X135776904Y-112109039D01*
X135654915Y-111887000D01*
X134112000Y-111887000D01*
X133858000Y-111887000D01*
X132315085Y-111887000D01*
X132193096Y-112109039D01*
X89709664Y-112109039D01*
X89779092Y-111760000D01*
X89663839Y-111180582D01*
X89335625Y-110689375D01*
X89037239Y-110490000D01*
X89335625Y-110290625D01*
X89663839Y-109799418D01*
X89779092Y-109220000D01*
X89663839Y-108640582D01*
X89335625Y-108149375D01*
X89037239Y-107950000D01*
X89335625Y-107750625D01*
X89663839Y-107259418D01*
X89779092Y-106680000D01*
X132121887Y-106680000D01*
X132233260Y-107239909D01*
X132550423Y-107714577D01*
X132902758Y-107950000D01*
X132550423Y-108185423D01*
X132233260Y-108660091D01*
X132121887Y-109220000D01*
X132233260Y-109779909D01*
X132550423Y-110254577D01*
X132906499Y-110492499D01*
X132480500Y-110835104D01*
X132210633Y-111328181D01*
X132193096Y-111410961D01*
X132315085Y-111633000D01*
X133858000Y-111633000D01*
X133858000Y-111613000D01*
X134112000Y-111613000D01*
X134112000Y-111633000D01*
X135654915Y-111633000D01*
X135776904Y-111410961D01*
X135759367Y-111328181D01*
X135489500Y-110835104D01*
X135063501Y-110492499D01*
X135419577Y-110254577D01*
X135736740Y-109779909D01*
X135848113Y-109220000D01*
X135736740Y-108660091D01*
X135419577Y-108185423D01*
X135067242Y-107950000D01*
X135419577Y-107714577D01*
X135736740Y-107239909D01*
X135848113Y-106680000D01*
X135736740Y-106120091D01*
X135419577Y-105645423D01*
X135298894Y-105564785D01*
X135432765Y-105538157D01*
X135642809Y-105397809D01*
X135783157Y-105187765D01*
X135832440Y-104940000D01*
X135832440Y-104140000D01*
X139741887Y-104140000D01*
X139853260Y-104699909D01*
X140170423Y-105174577D01*
X140522758Y-105410000D01*
X140170423Y-105645423D01*
X139853260Y-106120091D01*
X139741887Y-106680000D01*
X139853260Y-107239909D01*
X140170423Y-107714577D01*
X140522758Y-107950000D01*
X140170423Y-108185423D01*
X139853260Y-108660091D01*
X139741887Y-109220000D01*
X139853260Y-109779909D01*
X140170423Y-110254577D01*
X140526499Y-110492499D01*
X140100500Y-110835104D01*
X139830633Y-111328181D01*
X139813096Y-111410961D01*
X139935085Y-111633000D01*
X141478000Y-111633000D01*
X141478000Y-111613000D01*
X141732000Y-111613000D01*
X141732000Y-111633000D01*
X143274915Y-111633000D01*
X143396904Y-111410961D01*
X143379367Y-111328181D01*
X143109500Y-110835104D01*
X142683501Y-110492499D01*
X143039577Y-110254577D01*
X143179323Y-110045431D01*
X147625000Y-110045431D01*
X147625000Y-110934569D01*
X147965259Y-111756026D01*
X148593974Y-112384741D01*
X149415431Y-112725000D01*
X150304569Y-112725000D01*
X151126026Y-112384741D01*
X151754741Y-111756026D01*
X152095000Y-110934569D01*
X152095000Y-110045431D01*
X151754741Y-109223974D01*
X151126026Y-108595259D01*
X150304569Y-108255000D01*
X149415431Y-108255000D01*
X148593974Y-108595259D01*
X147965259Y-109223974D01*
X147625000Y-110045431D01*
X143179323Y-110045431D01*
X143356740Y-109779909D01*
X143468113Y-109220000D01*
X143356740Y-108660091D01*
X143039577Y-108185423D01*
X142687242Y-107950000D01*
X143039577Y-107714577D01*
X143356740Y-107239909D01*
X143468113Y-106680000D01*
X143356740Y-106120091D01*
X143039577Y-105645423D01*
X142687242Y-105410000D01*
X143039577Y-105174577D01*
X143356740Y-104699909D01*
X143468113Y-104140000D01*
X143356740Y-103580091D01*
X143039577Y-103105423D01*
X142564909Y-102788260D01*
X142146333Y-102705000D01*
X141063667Y-102705000D01*
X140645091Y-102788260D01*
X140170423Y-103105423D01*
X139853260Y-103580091D01*
X139741887Y-104140000D01*
X135832440Y-104140000D01*
X135832440Y-103340000D01*
X135783157Y-103092235D01*
X135642809Y-102882191D01*
X135432765Y-102741843D01*
X135185000Y-102692560D01*
X132785000Y-102692560D01*
X132537235Y-102741843D01*
X132327191Y-102882191D01*
X132186843Y-103092235D01*
X132137560Y-103340000D01*
X132137560Y-104940000D01*
X132186843Y-105187765D01*
X132327191Y-105397809D01*
X132537235Y-105538157D01*
X132671106Y-105564785D01*
X132550423Y-105645423D01*
X132233260Y-106120091D01*
X132121887Y-106680000D01*
X89779092Y-106680000D01*
X89663839Y-106100582D01*
X89335625Y-105609375D01*
X89317381Y-105597184D01*
X89362765Y-105588157D01*
X89572809Y-105447809D01*
X89713157Y-105237765D01*
X89762440Y-104990000D01*
X89762440Y-103290000D01*
X89713157Y-103042235D01*
X89572809Y-102832191D01*
X89362765Y-102691843D01*
X89115000Y-102642560D01*
X87415000Y-102642560D01*
X87167235Y-102691843D01*
X86995000Y-102806928D01*
X86822765Y-102691843D01*
X86575000Y-102642560D01*
X84875000Y-102642560D01*
X84627235Y-102691843D01*
X84451975Y-102808949D01*
X84394698Y-102751673D01*
X84161309Y-102655000D01*
X83470750Y-102655000D01*
X83312000Y-102813750D01*
X83058000Y-102813750D01*
X82899250Y-102655000D01*
X82208691Y-102655000D01*
X81975302Y-102751673D01*
X81796673Y-102930301D01*
X81700000Y-103163690D01*
X75692000Y-103163690D01*
X75692000Y-96876890D01*
X76028524Y-96876890D01*
X76198355Y-97286924D01*
X76588642Y-97715183D01*
X77113108Y-97961486D01*
X77343000Y-97840819D01*
X77343000Y-96647000D01*
X76149845Y-96647000D01*
X76028524Y-96876890D01*
X75692000Y-96876890D01*
X75692000Y-94336890D01*
X76028524Y-94336890D01*
X76198355Y-94746924D01*
X76588642Y-95175183D01*
X76747954Y-95250000D01*
X76588642Y-95324817D01*
X76198355Y-95753076D01*
X76028524Y-96163110D01*
X76149845Y-96393000D01*
X77343000Y-96393000D01*
X77343000Y-94107000D01*
X76149845Y-94107000D01*
X76028524Y-94336890D01*
X75692000Y-94336890D01*
X75692000Y-91796890D01*
X76028524Y-91796890D01*
X76198355Y-92206924D01*
X76588642Y-92635183D01*
X76747954Y-92710000D01*
X76588642Y-92784817D01*
X76198355Y-93213076D01*
X76028524Y-93623110D01*
X76149845Y-93853000D01*
X77343000Y-93853000D01*
X77343000Y-91567000D01*
X76149845Y-91567000D01*
X76028524Y-91796890D01*
X75692000Y-91796890D01*
X75692000Y-89185750D01*
X75985000Y-89185750D01*
X75985000Y-89876310D01*
X76081673Y-90109699D01*
X76260302Y-90288327D01*
X76469878Y-90375136D01*
X76198355Y-90673076D01*
X76028524Y-91083110D01*
X76149845Y-91313000D01*
X77343000Y-91313000D01*
X77343000Y-89027000D01*
X76143750Y-89027000D01*
X75985000Y-89185750D01*
X75692000Y-89185750D01*
X75692000Y-87923690D01*
X75985000Y-87923690D01*
X75985000Y-88614250D01*
X76143750Y-88773000D01*
X77343000Y-88773000D01*
X77343000Y-87573750D01*
X77184250Y-87415000D01*
X76493691Y-87415000D01*
X76260302Y-87511673D01*
X76081673Y-87690301D01*
X75985000Y-87923690D01*
X75692000Y-87923690D01*
X75692000Y-77490000D01*
X77151683Y-77490000D01*
X77170000Y-77582086D01*
X77170001Y-85652910D01*
X77151683Y-85745000D01*
X77224250Y-86109818D01*
X77224251Y-86109819D01*
X77430904Y-86419097D01*
X77508970Y-86471259D01*
X78457237Y-87419527D01*
X78446309Y-87415000D01*
X77755750Y-87415000D01*
X77597000Y-87573750D01*
X77597000Y-88773000D01*
X77617000Y-88773000D01*
X77617000Y-89027000D01*
X77597000Y-89027000D01*
X77597000Y-91313000D01*
X77617000Y-91313000D01*
X77617000Y-91567000D01*
X77597000Y-91567000D01*
X77597000Y-93853000D01*
X77617000Y-93853000D01*
X77617000Y-94107000D01*
X77597000Y-94107000D01*
X77597000Y-96393000D01*
X77617000Y-96393000D01*
X77617000Y-96647000D01*
X77597000Y-96647000D01*
X77597000Y-97840819D01*
X77826892Y-97961486D01*
X78351358Y-97715183D01*
X78738647Y-97290214D01*
X78939375Y-97590625D01*
X79430582Y-97918839D01*
X79863744Y-98005000D01*
X80156256Y-98005000D01*
X80589418Y-97918839D01*
X81080625Y-97590625D01*
X81280000Y-97292239D01*
X81479375Y-97590625D01*
X81970582Y-97918839D01*
X82403744Y-98005000D01*
X82696256Y-98005000D01*
X83129418Y-97918839D01*
X83620625Y-97590625D01*
X83948839Y-97099418D01*
X84064092Y-96520000D01*
X83948839Y-95940582D01*
X83620625Y-95449375D01*
X83322239Y-95250000D01*
X83620625Y-95050625D01*
X83948839Y-94559418D01*
X84064092Y-93980000D01*
X83991209Y-93613592D01*
X85404803Y-92200000D01*
X92761957Y-92200000D01*
X92945423Y-92474577D01*
X93297758Y-92710000D01*
X92945423Y-92945423D01*
X92628260Y-93420091D01*
X92516887Y-93980000D01*
X92628260Y-94539909D01*
X92945423Y-95014577D01*
X93297758Y-95250000D01*
X92945423Y-95485423D01*
X92628260Y-95960091D01*
X92516887Y-96520000D01*
X92628260Y-97079909D01*
X92945423Y-97554577D01*
X93297758Y-97790000D01*
X92945423Y-98025423D01*
X92628260Y-98500091D01*
X92516887Y-99060000D01*
X92628260Y-99619909D01*
X92945423Y-100094577D01*
X93297758Y-100330000D01*
X92945423Y-100565423D01*
X92628260Y-101040091D01*
X92516887Y-101600000D01*
X92628260Y-102159909D01*
X92945423Y-102634577D01*
X93420091Y-102951740D01*
X93838667Y-103035000D01*
X94121333Y-103035000D01*
X94539909Y-102951740D01*
X95014577Y-102634577D01*
X95331740Y-102159909D01*
X95443113Y-101600000D01*
X95331740Y-101040091D01*
X95083870Y-100669126D01*
X98660000Y-100669126D01*
X98660000Y-101080874D01*
X98817569Y-101461280D01*
X98935001Y-101578712D01*
X98935000Y-102166289D01*
X98817569Y-102283720D01*
X98660000Y-102664126D01*
X98660000Y-103075874D01*
X98817569Y-103456280D01*
X99108720Y-103747431D01*
X99489126Y-103905000D01*
X99900874Y-103905000D01*
X100281280Y-103747431D01*
X100572431Y-103456280D01*
X100730000Y-103075874D01*
X100730000Y-102664126D01*
X100572431Y-102283720D01*
X100455000Y-102166289D01*
X100455000Y-101578711D01*
X100572431Y-101461280D01*
X100730000Y-101080874D01*
X100730000Y-100669126D01*
X100572431Y-100288720D01*
X100281280Y-99997569D01*
X99900874Y-99840000D01*
X99489126Y-99840000D01*
X99108720Y-99997569D01*
X98817569Y-100288720D01*
X98660000Y-100669126D01*
X95083870Y-100669126D01*
X95014577Y-100565423D01*
X94662242Y-100330000D01*
X95014577Y-100094577D01*
X95331740Y-99619909D01*
X95443113Y-99060000D01*
X95331740Y-98500091D01*
X95014577Y-98025423D01*
X94662242Y-97790000D01*
X95014577Y-97554577D01*
X95331740Y-97079909D01*
X95443113Y-96520000D01*
X95331740Y-95960091D01*
X95014577Y-95485423D01*
X94662242Y-95250000D01*
X95014577Y-95014577D01*
X95331740Y-94539909D01*
X95443113Y-93980000D01*
X95331740Y-93420091D01*
X95014577Y-92945423D01*
X94662242Y-92710000D01*
X95014577Y-92474577D01*
X95331740Y-91999909D01*
X95443113Y-91440000D01*
X95331740Y-90880091D01*
X95014577Y-90405423D01*
X94662242Y-90170000D01*
X95014577Y-89934577D01*
X95331740Y-89459909D01*
X95443113Y-88900000D01*
X95331740Y-88340091D01*
X95014577Y-87865423D01*
X94662242Y-87630000D01*
X95014577Y-87394577D01*
X95331740Y-86919909D01*
X95443113Y-86360000D01*
X95331740Y-85800091D01*
X95014577Y-85325423D01*
X94662242Y-85090000D01*
X95014577Y-84854577D01*
X95331740Y-84379909D01*
X95443113Y-83820000D01*
X95331740Y-83260091D01*
X95014577Y-82785423D01*
X94662242Y-82550000D01*
X95014577Y-82314577D01*
X95331740Y-81839909D01*
X95443113Y-81280000D01*
X95331740Y-80720091D01*
X95014577Y-80245423D01*
X94630892Y-79989053D01*
X94835134Y-79892389D01*
X95211041Y-79477423D01*
X95371904Y-79089039D01*
X95249915Y-78867000D01*
X94107000Y-78867000D01*
X94107000Y-78887000D01*
X93853000Y-78887000D01*
X93853000Y-78867000D01*
X92710085Y-78867000D01*
X92588096Y-79089039D01*
X92748959Y-79477423D01*
X93124866Y-79892389D01*
X93329108Y-79989053D01*
X92945423Y-80245423D01*
X92628260Y-80720091D01*
X92516887Y-81280000D01*
X92628260Y-81839909D01*
X92945423Y-82314577D01*
X93297758Y-82550000D01*
X92945423Y-82785423D01*
X92628260Y-83260091D01*
X92516887Y-83820000D01*
X92628260Y-84379909D01*
X92945423Y-84854577D01*
X93297758Y-85090000D01*
X92945423Y-85325423D01*
X92628260Y-85800091D01*
X92516887Y-86360000D01*
X92628260Y-86919909D01*
X92945423Y-87394577D01*
X93297758Y-87630000D01*
X92945423Y-87865423D01*
X92628260Y-88340091D01*
X92516887Y-88900000D01*
X92628260Y-89459909D01*
X92945423Y-89934577D01*
X93297758Y-90170000D01*
X92945423Y-90405423D01*
X92761957Y-90680000D01*
X85164846Y-90680000D01*
X85089999Y-90665112D01*
X85015152Y-90680000D01*
X85015148Y-90680000D01*
X84793463Y-90724096D01*
X84793461Y-90724097D01*
X84793462Y-90724097D01*
X84605526Y-90849671D01*
X84605524Y-90849673D01*
X84542071Y-90892071D01*
X84499673Y-90955524D01*
X84055980Y-91399218D01*
X83948839Y-90860582D01*
X83620625Y-90369375D01*
X83602381Y-90357184D01*
X83647765Y-90348157D01*
X83857809Y-90207809D01*
X83998157Y-89997765D01*
X84047440Y-89750000D01*
X84047440Y-88050000D01*
X83998157Y-87802235D01*
X83857809Y-87592191D01*
X83647765Y-87451843D01*
X83400000Y-87402560D01*
X81700000Y-87402560D01*
X81452235Y-87451843D01*
X81280000Y-87566928D01*
X81107765Y-87451843D01*
X80916327Y-87413764D01*
X80890750Y-87285181D01*
X80736259Y-87053969D01*
X80684097Y-86975903D01*
X80606031Y-86923741D01*
X79766796Y-86084506D01*
X87515000Y-86084506D01*
X87515000Y-86635494D01*
X87725853Y-87144540D01*
X88115460Y-87534147D01*
X88624506Y-87745000D01*
X89175494Y-87745000D01*
X89684540Y-87534147D01*
X90074147Y-87144540D01*
X90285000Y-86635494D01*
X90285000Y-86084506D01*
X90074147Y-85575460D01*
X89684540Y-85185853D01*
X89175494Y-84975000D01*
X88624506Y-84975000D01*
X88115460Y-85185853D01*
X87725853Y-85575460D01*
X87515000Y-86084506D01*
X79766796Y-86084506D01*
X79040000Y-85357711D01*
X79040000Y-81204506D01*
X87515000Y-81204506D01*
X87515000Y-81755494D01*
X87725853Y-82264540D01*
X88115460Y-82654147D01*
X88624506Y-82865000D01*
X89175494Y-82865000D01*
X89684540Y-82654147D01*
X90074147Y-82264540D01*
X90285000Y-81755494D01*
X90285000Y-81204506D01*
X90074147Y-80695460D01*
X89684540Y-80305853D01*
X89175494Y-80095000D01*
X88624506Y-80095000D01*
X88115460Y-80305853D01*
X87725853Y-80695460D01*
X87515000Y-81204506D01*
X79040000Y-81204506D01*
X79040000Y-79096890D01*
X79203524Y-79096890D01*
X79373355Y-79506924D01*
X79763642Y-79935183D01*
X80288108Y-80181486D01*
X80518000Y-80060819D01*
X80518000Y-78867000D01*
X80772000Y-78867000D01*
X80772000Y-80060819D01*
X81001892Y-80181486D01*
X81526358Y-79935183D01*
X81916645Y-79506924D01*
X82086476Y-79096890D01*
X82378524Y-79096890D01*
X82548355Y-79506924D01*
X82938642Y-79935183D01*
X83463108Y-80181486D01*
X83693000Y-80060819D01*
X83693000Y-78867000D01*
X83947000Y-78867000D01*
X83947000Y-80060819D01*
X84176892Y-80181486D01*
X84701358Y-79935183D01*
X85091645Y-79506924D01*
X85261476Y-79096890D01*
X85140155Y-78867000D01*
X83947000Y-78867000D01*
X83693000Y-78867000D01*
X82499845Y-78867000D01*
X82378524Y-79096890D01*
X82086476Y-79096890D01*
X81965155Y-78867000D01*
X80772000Y-78867000D01*
X80518000Y-78867000D01*
X79324845Y-78867000D01*
X79203524Y-79096890D01*
X79040000Y-79096890D01*
X79040000Y-77877289D01*
X79380525Y-77536764D01*
X79547235Y-77648157D01*
X79650708Y-77668739D01*
X79373355Y-77973076D01*
X79203524Y-78383110D01*
X79324845Y-78613000D01*
X80518000Y-78613000D01*
X80518000Y-78593000D01*
X80772000Y-78593000D01*
X80772000Y-78613000D01*
X81965155Y-78613000D01*
X82086476Y-78383110D01*
X81916645Y-77973076D01*
X81639292Y-77668739D01*
X81742765Y-77648157D01*
X81952809Y-77507809D01*
X82093157Y-77297765D01*
X82142440Y-77050000D01*
X82142440Y-75350000D01*
X82093157Y-75102235D01*
X81952809Y-74892191D01*
X81742765Y-74751843D01*
X81495000Y-74702560D01*
X79795000Y-74702560D01*
X79547235Y-74751843D01*
X79337191Y-74892191D01*
X79196843Y-75102235D01*
X79158764Y-75293673D01*
X79030181Y-75319250D01*
X78720903Y-75525903D01*
X78668741Y-75603969D01*
X77508972Y-76763739D01*
X77430903Y-76815903D01*
X77224251Y-77125181D01*
X77224250Y-77125182D01*
X77151683Y-77490000D01*
X75692000Y-77490000D01*
X75692000Y-68580000D01*
X82305908Y-68580000D01*
X82421161Y-69159418D01*
X82749375Y-69650625D01*
X83047761Y-69850000D01*
X82749375Y-70049375D01*
X82421161Y-70540582D01*
X82305908Y-71120000D01*
X82421161Y-71699418D01*
X82749375Y-72190625D01*
X83047761Y-72390000D01*
X82749375Y-72589375D01*
X82421161Y-73080582D01*
X82305908Y-73660000D01*
X82421161Y-74239418D01*
X82749375Y-74730625D01*
X83047761Y-74930000D01*
X82749375Y-75129375D01*
X82421161Y-75620582D01*
X82305908Y-76200000D01*
X82421161Y-76779418D01*
X82749375Y-77270625D01*
X83068478Y-77483843D01*
X82938642Y-77544817D01*
X82548355Y-77973076D01*
X82378524Y-78383110D01*
X82499845Y-78613000D01*
X83693000Y-78613000D01*
X83693000Y-78593000D01*
X83947000Y-78593000D01*
X83947000Y-78613000D01*
X85140155Y-78613000D01*
X85261476Y-78383110D01*
X85091645Y-77973076D01*
X84701358Y-77544817D01*
X84571522Y-77483843D01*
X84890625Y-77270625D01*
X85218839Y-76779418D01*
X85334092Y-76200000D01*
X85218839Y-75620582D01*
X84890625Y-75129375D01*
X84592239Y-74930000D01*
X84890625Y-74730625D01*
X85218839Y-74239418D01*
X85334092Y-73660000D01*
X85218839Y-73080582D01*
X84890625Y-72589375D01*
X84592239Y-72390000D01*
X84890625Y-72190625D01*
X85218839Y-71699418D01*
X85334092Y-71120000D01*
X85218839Y-70540582D01*
X84890625Y-70049375D01*
X84592239Y-69850000D01*
X84890625Y-69650625D01*
X85218839Y-69159418D01*
X85334092Y-68580000D01*
X85218839Y-68000582D01*
X84890625Y-67509375D01*
X84872381Y-67497184D01*
X84917765Y-67488157D01*
X85127809Y-67347809D01*
X85268157Y-67137765D01*
X85317440Y-66890000D01*
X85317440Y-65190000D01*
X85268157Y-64942235D01*
X85127809Y-64732191D01*
X84917765Y-64591843D01*
X84670000Y-64542560D01*
X82970000Y-64542560D01*
X82722235Y-64591843D01*
X82512191Y-64732191D01*
X82371843Y-64942235D01*
X82322560Y-65190000D01*
X82322560Y-66890000D01*
X82371843Y-67137765D01*
X82512191Y-67347809D01*
X82722235Y-67488157D01*
X82767619Y-67497184D01*
X82749375Y-67509375D01*
X82421161Y-68000582D01*
X82305908Y-68580000D01*
X75692000Y-68580000D01*
X75692000Y-61316890D01*
X81743524Y-61316890D01*
X81913355Y-61726924D01*
X82303642Y-62155183D01*
X82828108Y-62401486D01*
X83058000Y-62280819D01*
X83058000Y-61087000D01*
X81864845Y-61087000D01*
X81743524Y-61316890D01*
X75692000Y-61316890D01*
X75692000Y-58776890D01*
X81743524Y-58776890D01*
X81913355Y-59186924D01*
X82303642Y-59615183D01*
X82462954Y-59690000D01*
X82303642Y-59764817D01*
X81913355Y-60193076D01*
X81743524Y-60603110D01*
X81864845Y-60833000D01*
X83058000Y-60833000D01*
X83058000Y-58547000D01*
X81864845Y-58547000D01*
X81743524Y-58776890D01*
X75692000Y-58776890D01*
X75692000Y-54381419D01*
X75713939Y-54165431D01*
X76505000Y-54165431D01*
X76505000Y-55054569D01*
X76845259Y-55876026D01*
X77473974Y-56504741D01*
X78295431Y-56845000D01*
X79184569Y-56845000D01*
X80006026Y-56504741D01*
X80273877Y-56236890D01*
X81743524Y-56236890D01*
X81913355Y-56646924D01*
X82303642Y-57075183D01*
X82462954Y-57150000D01*
X82303642Y-57224817D01*
X81913355Y-57653076D01*
X81743524Y-58063110D01*
X81864845Y-58293000D01*
X83058000Y-58293000D01*
X83058000Y-56007000D01*
X81864845Y-56007000D01*
X81743524Y-56236890D01*
X80273877Y-56236890D01*
X80634741Y-55876026D01*
X80975000Y-55054569D01*
X80975000Y-54165431D01*
X80751457Y-53625750D01*
X81700000Y-53625750D01*
X81700000Y-54316310D01*
X81796673Y-54549699D01*
X81975302Y-54728327D01*
X82184878Y-54815136D01*
X81913355Y-55113076D01*
X81743524Y-55523110D01*
X81864845Y-55753000D01*
X83058000Y-55753000D01*
X83058000Y-53467000D01*
X81858750Y-53467000D01*
X81700000Y-53625750D01*
X80751457Y-53625750D01*
X80634741Y-53343974D01*
X80006026Y-52715259D01*
X79184569Y-52375000D01*
X78295431Y-52375000D01*
X77473974Y-52715259D01*
X76845259Y-53343974D01*
X76505000Y-54165431D01*
X75713939Y-54165431D01*
X75731510Y-53992449D01*
X75917135Y-53400117D01*
X76218073Y-52857213D01*
X76622028Y-52385910D01*
X76650673Y-52363690D01*
X81700000Y-52363690D01*
X81700000Y-53054250D01*
X81858750Y-53213000D01*
X83058000Y-53213000D01*
X83058000Y-52013750D01*
X83312000Y-52013750D01*
X83312000Y-53213000D01*
X83332000Y-53213000D01*
X83332000Y-53467000D01*
X83312000Y-53467000D01*
X83312000Y-55753000D01*
X83332000Y-55753000D01*
X83332000Y-56007000D01*
X83312000Y-56007000D01*
X83312000Y-58293000D01*
X83332000Y-58293000D01*
X83332000Y-58547000D01*
X83312000Y-58547000D01*
X83312000Y-60833000D01*
X83332000Y-60833000D01*
X83332000Y-61087000D01*
X83312000Y-61087000D01*
X83312000Y-62280819D01*
X83541892Y-62401486D01*
X84066358Y-62155183D01*
X84453647Y-61730214D01*
X84654375Y-62030625D01*
X85145582Y-62358839D01*
X85578744Y-62445000D01*
X85871256Y-62445000D01*
X86304418Y-62358839D01*
X86795625Y-62030625D01*
X86995000Y-61732239D01*
X87194375Y-62030625D01*
X87685582Y-62358839D01*
X88118744Y-62445000D01*
X88411256Y-62445000D01*
X88844418Y-62358839D01*
X89335625Y-62030625D01*
X89663839Y-61539418D01*
X89779092Y-60960000D01*
X89663839Y-60380582D01*
X89335625Y-59889375D01*
X89037239Y-59690000D01*
X89335625Y-59490625D01*
X89663839Y-58999418D01*
X89779092Y-58420000D01*
X89663839Y-57840582D01*
X89335625Y-57349375D01*
X89037239Y-57150000D01*
X89335625Y-56950625D01*
X89663839Y-56459418D01*
X89779092Y-55880000D01*
X92516887Y-55880000D01*
X92628260Y-56439909D01*
X92945423Y-56914577D01*
X93297758Y-57150000D01*
X92945423Y-57385423D01*
X92628260Y-57860091D01*
X92516887Y-58420000D01*
X92628260Y-58979909D01*
X92945423Y-59454577D01*
X93297758Y-59690000D01*
X92945423Y-59925423D01*
X92628260Y-60400091D01*
X92516887Y-60960000D01*
X92628260Y-61519909D01*
X92945423Y-61994577D01*
X93297758Y-62230000D01*
X92945423Y-62465423D01*
X92628260Y-62940091D01*
X92516887Y-63500000D01*
X92628260Y-64059909D01*
X92945423Y-64534577D01*
X93297758Y-64770000D01*
X92945423Y-65005423D01*
X92628260Y-65480091D01*
X92516887Y-66040000D01*
X92628260Y-66599909D01*
X92945423Y-67074577D01*
X93297758Y-67310000D01*
X92945423Y-67545423D01*
X92628260Y-68020091D01*
X92516887Y-68580000D01*
X92628260Y-69139909D01*
X92945423Y-69614577D01*
X93297758Y-69850000D01*
X92945423Y-70085423D01*
X92628260Y-70560091D01*
X92516887Y-71120000D01*
X92628260Y-71679909D01*
X92945423Y-72154577D01*
X93297758Y-72390000D01*
X92945423Y-72625423D01*
X92628260Y-73100091D01*
X92516887Y-73660000D01*
X92628260Y-74219909D01*
X92945423Y-74694577D01*
X93297758Y-74930000D01*
X92945423Y-75165423D01*
X92628260Y-75640091D01*
X92516887Y-76200000D01*
X92628260Y-76759909D01*
X92945423Y-77234577D01*
X93329108Y-77490947D01*
X93124866Y-77587611D01*
X92748959Y-78002577D01*
X92588096Y-78390961D01*
X92710085Y-78613000D01*
X93853000Y-78613000D01*
X93853000Y-78593000D01*
X94107000Y-78593000D01*
X94107000Y-78613000D01*
X95249915Y-78613000D01*
X95371904Y-78390961D01*
X95211041Y-78002577D01*
X94835134Y-77587611D01*
X94630892Y-77490947D01*
X95014577Y-77234577D01*
X95331740Y-76759909D01*
X95443113Y-76200000D01*
X95331740Y-75640091D01*
X95014577Y-75165423D01*
X94662242Y-74930000D01*
X95014577Y-74694577D01*
X95331740Y-74219909D01*
X95443113Y-73660000D01*
X95331740Y-73100091D01*
X95144006Y-72819126D01*
X98660000Y-72819126D01*
X98660000Y-73230874D01*
X98817569Y-73611280D01*
X98935001Y-73728712D01*
X98935000Y-79941289D01*
X98817569Y-80058720D01*
X98660000Y-80439126D01*
X98660000Y-80850874D01*
X98817569Y-81231280D01*
X99108720Y-81522431D01*
X99489126Y-81680000D01*
X99900874Y-81680000D01*
X100281280Y-81522431D01*
X100572431Y-81231280D01*
X100730000Y-80850874D01*
X100730000Y-80439126D01*
X100572431Y-80058720D01*
X100455000Y-79941289D01*
X100455000Y-78740000D01*
X107756887Y-78740000D01*
X107868260Y-79299909D01*
X108185423Y-79774577D01*
X108537758Y-80010000D01*
X108185423Y-80245423D01*
X107868260Y-80720091D01*
X107756887Y-81280000D01*
X107868260Y-81839909D01*
X108185423Y-82314577D01*
X108537758Y-82550000D01*
X108185423Y-82785423D01*
X107868260Y-83260091D01*
X107756887Y-83820000D01*
X107868260Y-84379909D01*
X108185423Y-84854577D01*
X108537758Y-85090000D01*
X108185423Y-85325423D01*
X107868260Y-85800091D01*
X107756887Y-86360000D01*
X107868260Y-86919909D01*
X108185423Y-87394577D01*
X108537758Y-87630000D01*
X108185423Y-87865423D01*
X107868260Y-88340091D01*
X107756887Y-88900000D01*
X107868260Y-89459909D01*
X108185423Y-89934577D01*
X108537758Y-90170000D01*
X108185423Y-90405423D01*
X107868260Y-90880091D01*
X107756887Y-91440000D01*
X107868260Y-91999909D01*
X108185423Y-92474577D01*
X108537758Y-92710000D01*
X108185423Y-92945423D01*
X107868260Y-93420091D01*
X107756887Y-93980000D01*
X107868260Y-94539909D01*
X108185423Y-95014577D01*
X108537758Y-95250000D01*
X108185423Y-95485423D01*
X107868260Y-95960091D01*
X107756887Y-96520000D01*
X107868260Y-97079909D01*
X108185423Y-97554577D01*
X108537758Y-97790000D01*
X108185423Y-98025423D01*
X107868260Y-98500091D01*
X107756887Y-99060000D01*
X107868260Y-99619909D01*
X108185423Y-100094577D01*
X108537758Y-100330000D01*
X108185423Y-100565423D01*
X107868260Y-101040091D01*
X107756887Y-101600000D01*
X107868260Y-102159909D01*
X108185423Y-102634577D01*
X108660091Y-102951740D01*
X109078667Y-103035000D01*
X109361333Y-103035000D01*
X109779909Y-102951740D01*
X110254577Y-102634577D01*
X110571740Y-102159909D01*
X110683113Y-101600000D01*
X110571740Y-101040091D01*
X110254577Y-100565423D01*
X109902242Y-100330000D01*
X110254577Y-100094577D01*
X110571740Y-99619909D01*
X110683113Y-99060000D01*
X110571740Y-98500091D01*
X110254577Y-98025423D01*
X109902242Y-97790000D01*
X110254577Y-97554577D01*
X110571740Y-97079909D01*
X110683113Y-96520000D01*
X110571740Y-95960091D01*
X110254577Y-95485423D01*
X109902242Y-95250000D01*
X110254577Y-95014577D01*
X110571740Y-94539909D01*
X110683113Y-93980000D01*
X110571740Y-93420091D01*
X110254577Y-92945423D01*
X109902242Y-92710000D01*
X110254577Y-92474577D01*
X110571740Y-91999909D01*
X110683113Y-91440000D01*
X110571740Y-90880091D01*
X110254577Y-90405423D01*
X109902242Y-90170000D01*
X110254577Y-89934577D01*
X110571740Y-89459909D01*
X110683113Y-88900000D01*
X110571740Y-88340091D01*
X110254577Y-87865423D01*
X109902242Y-87630000D01*
X110254577Y-87394577D01*
X110571740Y-86919909D01*
X110683113Y-86360000D01*
X110571740Y-85800091D01*
X110254577Y-85325423D01*
X109902242Y-85090000D01*
X110254577Y-84854577D01*
X110571740Y-84379909D01*
X110683113Y-83820000D01*
X110571740Y-83260091D01*
X110254577Y-82785423D01*
X109902242Y-82550000D01*
X110254577Y-82314577D01*
X110571740Y-81839909D01*
X110683113Y-81280000D01*
X115325908Y-81280000D01*
X115441161Y-81859418D01*
X115769375Y-82350625D01*
X115787619Y-82362816D01*
X115742235Y-82371843D01*
X115532191Y-82512191D01*
X115391843Y-82722235D01*
X115342560Y-82970000D01*
X115342560Y-84670000D01*
X115391843Y-84917765D01*
X115532191Y-85127809D01*
X115742235Y-85268157D01*
X115990000Y-85317440D01*
X117690000Y-85317440D01*
X117937765Y-85268157D01*
X118110000Y-85153072D01*
X118282235Y-85268157D01*
X118445000Y-85300533D01*
X118445001Y-95358753D01*
X118309375Y-95449375D01*
X118110000Y-95747761D01*
X117910625Y-95449375D01*
X117419418Y-95121161D01*
X116986256Y-95035000D01*
X116693744Y-95035000D01*
X116260582Y-95121161D01*
X115769375Y-95449375D01*
X115441161Y-95940582D01*
X115325908Y-96520000D01*
X115441161Y-97099418D01*
X115769375Y-97590625D01*
X115787619Y-97602816D01*
X115742235Y-97611843D01*
X115532191Y-97752191D01*
X115391843Y-97962235D01*
X115342560Y-98210000D01*
X115342560Y-99910000D01*
X115391843Y-100157765D01*
X115532191Y-100367809D01*
X115742235Y-100508157D01*
X115990000Y-100557440D01*
X117690000Y-100557440D01*
X117937765Y-100508157D01*
X118110000Y-100393072D01*
X118282235Y-100508157D01*
X118530000Y-100557440D01*
X120230000Y-100557440D01*
X120477765Y-100508157D01*
X120653025Y-100391051D01*
X120710302Y-100448327D01*
X120943691Y-100545000D01*
X121634250Y-100545000D01*
X121793000Y-100386250D01*
X121793000Y-99187000D01*
X122047000Y-99187000D01*
X122047000Y-100386250D01*
X122205750Y-100545000D01*
X122896309Y-100545000D01*
X123129698Y-100448327D01*
X123308327Y-100269699D01*
X123405000Y-100036310D01*
X123405000Y-99409039D01*
X132193096Y-99409039D01*
X132210633Y-99491819D01*
X132480500Y-99984896D01*
X132918517Y-100337166D01*
X133458000Y-100495000D01*
X133858000Y-100495000D01*
X133858000Y-99187000D01*
X134112000Y-99187000D01*
X134112000Y-100495000D01*
X134512000Y-100495000D01*
X135051483Y-100337166D01*
X135489500Y-99984896D01*
X135759367Y-99491819D01*
X135776904Y-99409039D01*
X139813096Y-99409039D01*
X139830633Y-99491819D01*
X140100500Y-99984896D01*
X140538517Y-100337166D01*
X141078000Y-100495000D01*
X141478000Y-100495000D01*
X141478000Y-99187000D01*
X141732000Y-99187000D01*
X141732000Y-100495000D01*
X142132000Y-100495000D01*
X142671483Y-100337166D01*
X143109500Y-99984896D01*
X143379367Y-99491819D01*
X143396904Y-99409039D01*
X143274915Y-99187000D01*
X141732000Y-99187000D01*
X141478000Y-99187000D01*
X139935085Y-99187000D01*
X139813096Y-99409039D01*
X135776904Y-99409039D01*
X135654915Y-99187000D01*
X134112000Y-99187000D01*
X133858000Y-99187000D01*
X132315085Y-99187000D01*
X132193096Y-99409039D01*
X123405000Y-99409039D01*
X123405000Y-99345750D01*
X123246250Y-99187000D01*
X122047000Y-99187000D01*
X121793000Y-99187000D01*
X121773000Y-99187000D01*
X121773000Y-98933000D01*
X121793000Y-98933000D01*
X121793000Y-96647000D01*
X122047000Y-96647000D01*
X122047000Y-98933000D01*
X123246250Y-98933000D01*
X123405000Y-98774250D01*
X123405000Y-98083690D01*
X123308327Y-97850301D01*
X123129698Y-97671673D01*
X122920122Y-97584864D01*
X123191645Y-97286924D01*
X123361476Y-96876890D01*
X123240155Y-96647000D01*
X122047000Y-96647000D01*
X121793000Y-96647000D01*
X121773000Y-96647000D01*
X121773000Y-96393000D01*
X121793000Y-96393000D01*
X121793000Y-95199181D01*
X122047000Y-95199181D01*
X122047000Y-96393000D01*
X123240155Y-96393000D01*
X123361476Y-96163110D01*
X123191645Y-95753076D01*
X122801358Y-95324817D01*
X122276892Y-95078514D01*
X122047000Y-95199181D01*
X121793000Y-95199181D01*
X121563108Y-95078514D01*
X121038642Y-95324817D01*
X120651353Y-95749786D01*
X120450625Y-95449375D01*
X120315000Y-95358753D01*
X120315000Y-93980000D01*
X132121887Y-93980000D01*
X132233260Y-94539909D01*
X132550423Y-95014577D01*
X132902758Y-95250000D01*
X132550423Y-95485423D01*
X132233260Y-95960091D01*
X132121887Y-96520000D01*
X132233260Y-97079909D01*
X132550423Y-97554577D01*
X132906499Y-97792499D01*
X132480500Y-98135104D01*
X132210633Y-98628181D01*
X132193096Y-98710961D01*
X132315085Y-98933000D01*
X133858000Y-98933000D01*
X133858000Y-98913000D01*
X134112000Y-98913000D01*
X134112000Y-98933000D01*
X135654915Y-98933000D01*
X135776904Y-98710961D01*
X135759367Y-98628181D01*
X135489500Y-98135104D01*
X135063501Y-97792499D01*
X135419577Y-97554577D01*
X135736740Y-97079909D01*
X135848113Y-96520000D01*
X135736740Y-95960091D01*
X135419577Y-95485423D01*
X135067242Y-95250000D01*
X135419577Y-95014577D01*
X135736740Y-94539909D01*
X135848113Y-93980000D01*
X135736740Y-93420091D01*
X135419577Y-92945423D01*
X135298894Y-92864785D01*
X135432765Y-92838157D01*
X135642809Y-92697809D01*
X135783157Y-92487765D01*
X135832440Y-92240000D01*
X135832440Y-91440000D01*
X139741887Y-91440000D01*
X139853260Y-91999909D01*
X140170423Y-92474577D01*
X140522758Y-92710000D01*
X140170423Y-92945423D01*
X139853260Y-93420091D01*
X139741887Y-93980000D01*
X139853260Y-94539909D01*
X140170423Y-95014577D01*
X140522758Y-95250000D01*
X140170423Y-95485423D01*
X139853260Y-95960091D01*
X139741887Y-96520000D01*
X139853260Y-97079909D01*
X140170423Y-97554577D01*
X140526499Y-97792499D01*
X140100500Y-98135104D01*
X139830633Y-98628181D01*
X139813096Y-98710961D01*
X139935085Y-98933000D01*
X141478000Y-98933000D01*
X141478000Y-98913000D01*
X141732000Y-98913000D01*
X141732000Y-98933000D01*
X143274915Y-98933000D01*
X143396904Y-98710961D01*
X143379367Y-98628181D01*
X143109500Y-98135104D01*
X142683501Y-97792499D01*
X143039577Y-97554577D01*
X143106112Y-97455000D01*
X147567711Y-97455000D01*
X149012730Y-98900020D01*
X148980908Y-99060000D01*
X149096161Y-99639418D01*
X149424375Y-100130625D01*
X149442619Y-100142816D01*
X149397235Y-100151843D01*
X149187191Y-100292191D01*
X149046843Y-100502235D01*
X148997560Y-100750000D01*
X148997560Y-102450000D01*
X149046843Y-102697765D01*
X149187191Y-102907809D01*
X149397235Y-103048157D01*
X149645000Y-103097440D01*
X151345000Y-103097440D01*
X151592765Y-103048157D01*
X151802809Y-102907809D01*
X151943157Y-102697765D01*
X151992440Y-102450000D01*
X151992440Y-100750000D01*
X151943157Y-100502235D01*
X151802809Y-100292191D01*
X151592765Y-100151843D01*
X151547381Y-100142816D01*
X151565625Y-100130625D01*
X151893839Y-99639418D01*
X152009092Y-99060000D01*
X151893839Y-98480582D01*
X151565625Y-97989375D01*
X151074418Y-97661161D01*
X150641256Y-97575000D01*
X150348744Y-97575000D01*
X150335020Y-97577730D01*
X148681261Y-95923972D01*
X148629097Y-95845903D01*
X148319819Y-95639250D01*
X148047086Y-95585000D01*
X147955000Y-95566683D01*
X147862914Y-95585000D01*
X143106112Y-95585000D01*
X143039577Y-95485423D01*
X142687242Y-95250000D01*
X143039577Y-95014577D01*
X143356740Y-94539909D01*
X143468113Y-93980000D01*
X143356740Y-93420091D01*
X143039577Y-92945423D01*
X142687242Y-92710000D01*
X143039577Y-92474577D01*
X143356740Y-91999909D01*
X143468113Y-91440000D01*
X143356740Y-90880091D01*
X143039577Y-90405423D01*
X142564909Y-90088260D01*
X142146333Y-90005000D01*
X141063667Y-90005000D01*
X140645091Y-90088260D01*
X140170423Y-90405423D01*
X139853260Y-90880091D01*
X139741887Y-91440000D01*
X135832440Y-91440000D01*
X135832440Y-90640000D01*
X135783157Y-90392235D01*
X135642809Y-90182191D01*
X135432765Y-90041843D01*
X135185000Y-89992560D01*
X132785000Y-89992560D01*
X132537235Y-90041843D01*
X132327191Y-90182191D01*
X132186843Y-90392235D01*
X132137560Y-90640000D01*
X132137560Y-92240000D01*
X132186843Y-92487765D01*
X132327191Y-92697809D01*
X132537235Y-92838157D01*
X132671106Y-92864785D01*
X132550423Y-92945423D01*
X132233260Y-93420091D01*
X132121887Y-93980000D01*
X120315000Y-93980000D01*
X120315000Y-86709039D01*
X132193096Y-86709039D01*
X132210633Y-86791819D01*
X132480500Y-87284896D01*
X132918517Y-87637166D01*
X133458000Y-87795000D01*
X133858000Y-87795000D01*
X133858000Y-86487000D01*
X134112000Y-86487000D01*
X134112000Y-87795000D01*
X134512000Y-87795000D01*
X135051483Y-87637166D01*
X135489500Y-87284896D01*
X135759367Y-86791819D01*
X135776904Y-86709039D01*
X139813096Y-86709039D01*
X139830633Y-86791819D01*
X140100500Y-87284896D01*
X140538517Y-87637166D01*
X141078000Y-87795000D01*
X141478000Y-87795000D01*
X141478000Y-86487000D01*
X141732000Y-86487000D01*
X141732000Y-87795000D01*
X142132000Y-87795000D01*
X142671483Y-87637166D01*
X143109500Y-87284896D01*
X143379367Y-86791819D01*
X143396904Y-86709039D01*
X143274915Y-86487000D01*
X141732000Y-86487000D01*
X141478000Y-86487000D01*
X139935085Y-86487000D01*
X139813096Y-86709039D01*
X135776904Y-86709039D01*
X135654915Y-86487000D01*
X134112000Y-86487000D01*
X133858000Y-86487000D01*
X132315085Y-86487000D01*
X132193096Y-86709039D01*
X120315000Y-86709039D01*
X120315000Y-85300533D01*
X120477765Y-85268157D01*
X120653025Y-85151051D01*
X120710302Y-85208327D01*
X120943691Y-85305000D01*
X121634250Y-85305000D01*
X121793000Y-85146250D01*
X121793000Y-83947000D01*
X122047000Y-83947000D01*
X122047000Y-85146250D01*
X122205750Y-85305000D01*
X122896309Y-85305000D01*
X123129698Y-85208327D01*
X123308327Y-85029699D01*
X123405000Y-84796310D01*
X123405000Y-84105750D01*
X123246250Y-83947000D01*
X122047000Y-83947000D01*
X121793000Y-83947000D01*
X121773000Y-83947000D01*
X121773000Y-83693000D01*
X121793000Y-83693000D01*
X121793000Y-81407000D01*
X122047000Y-81407000D01*
X122047000Y-83693000D01*
X123246250Y-83693000D01*
X123405000Y-83534250D01*
X123405000Y-82843690D01*
X123308327Y-82610301D01*
X123129698Y-82431673D01*
X122920122Y-82344864D01*
X123191645Y-82046924D01*
X123361476Y-81636890D01*
X123240155Y-81407000D01*
X122047000Y-81407000D01*
X121793000Y-81407000D01*
X121773000Y-81407000D01*
X121773000Y-81280000D01*
X132121887Y-81280000D01*
X132233260Y-81839909D01*
X132550423Y-82314577D01*
X132902758Y-82550000D01*
X132550423Y-82785423D01*
X132233260Y-83260091D01*
X132121887Y-83820000D01*
X132233260Y-84379909D01*
X132550423Y-84854577D01*
X132906499Y-85092499D01*
X132480500Y-85435104D01*
X132210633Y-85928181D01*
X132193096Y-86010961D01*
X132315085Y-86233000D01*
X133858000Y-86233000D01*
X133858000Y-86213000D01*
X134112000Y-86213000D01*
X134112000Y-86233000D01*
X135654915Y-86233000D01*
X135776904Y-86010961D01*
X135759367Y-85928181D01*
X135489500Y-85435104D01*
X135063501Y-85092499D01*
X135419577Y-84854577D01*
X135736740Y-84379909D01*
X135848113Y-83820000D01*
X135736740Y-83260091D01*
X135419577Y-82785423D01*
X135067242Y-82550000D01*
X135419577Y-82314577D01*
X135736740Y-81839909D01*
X135848113Y-81280000D01*
X135736740Y-80720091D01*
X135419577Y-80245423D01*
X135298894Y-80164785D01*
X135432765Y-80138157D01*
X135642809Y-79997809D01*
X135783157Y-79787765D01*
X135832440Y-79540000D01*
X135832440Y-77940000D01*
X135783157Y-77692235D01*
X135642809Y-77482191D01*
X135432765Y-77341843D01*
X135185000Y-77292560D01*
X132785000Y-77292560D01*
X132537235Y-77341843D01*
X132327191Y-77482191D01*
X132186843Y-77692235D01*
X132137560Y-77940000D01*
X132137560Y-79540000D01*
X132186843Y-79787765D01*
X132327191Y-79997809D01*
X132537235Y-80138157D01*
X132671106Y-80164785D01*
X132550423Y-80245423D01*
X132233260Y-80720091D01*
X132121887Y-81280000D01*
X121773000Y-81280000D01*
X121773000Y-81153000D01*
X121793000Y-81153000D01*
X121793000Y-79959181D01*
X122047000Y-79959181D01*
X122047000Y-81153000D01*
X123240155Y-81153000D01*
X123361476Y-80923110D01*
X123191645Y-80513076D01*
X122801358Y-80084817D01*
X122276892Y-79838514D01*
X122047000Y-79959181D01*
X121793000Y-79959181D01*
X121563108Y-79838514D01*
X121038642Y-80084817D01*
X120651353Y-80509786D01*
X120450625Y-80209375D01*
X119959418Y-79881161D01*
X119526256Y-79795000D01*
X119233744Y-79795000D01*
X118800582Y-79881161D01*
X118309375Y-80209375D01*
X118110000Y-80507761D01*
X117910625Y-80209375D01*
X117419418Y-79881161D01*
X116986256Y-79795000D01*
X116693744Y-79795000D01*
X116260582Y-79881161D01*
X115769375Y-80209375D01*
X115441161Y-80700582D01*
X115325908Y-81280000D01*
X110683113Y-81280000D01*
X110571740Y-80720091D01*
X110254577Y-80245423D01*
X109902242Y-80010000D01*
X110254577Y-79774577D01*
X110571740Y-79299909D01*
X110683113Y-78740000D01*
X110571740Y-78180091D01*
X110254577Y-77705423D01*
X109870892Y-77449053D01*
X110075134Y-77352389D01*
X110451041Y-76937423D01*
X110611904Y-76549039D01*
X110489915Y-76327000D01*
X109347000Y-76327000D01*
X109347000Y-76347000D01*
X109093000Y-76347000D01*
X109093000Y-76327000D01*
X107950085Y-76327000D01*
X107828096Y-76549039D01*
X107988959Y-76937423D01*
X108364866Y-77352389D01*
X108569108Y-77449053D01*
X108185423Y-77705423D01*
X107868260Y-78180091D01*
X107756887Y-78740000D01*
X100455000Y-78740000D01*
X100455000Y-73728711D01*
X100572431Y-73611280D01*
X100730000Y-73230874D01*
X100730000Y-72819126D01*
X100572431Y-72438720D01*
X100281280Y-72147569D01*
X99900874Y-71990000D01*
X99489126Y-71990000D01*
X99108720Y-72147569D01*
X98817569Y-72438720D01*
X98660000Y-72819126D01*
X95144006Y-72819126D01*
X95014577Y-72625423D01*
X94662242Y-72390000D01*
X95014577Y-72154577D01*
X95331740Y-71679909D01*
X95443113Y-71120000D01*
X95331740Y-70560091D01*
X95014577Y-70085423D01*
X94662242Y-69850000D01*
X95014577Y-69614577D01*
X95331740Y-69139909D01*
X95443113Y-68580000D01*
X95331740Y-68020091D01*
X95014577Y-67545423D01*
X94662242Y-67310000D01*
X95014577Y-67074577D01*
X95331740Y-66599909D01*
X95443113Y-66040000D01*
X95331740Y-65480091D01*
X95014577Y-65005423D01*
X94662242Y-64770000D01*
X95014577Y-64534577D01*
X95331740Y-64059909D01*
X95443113Y-63500000D01*
X95331740Y-62940091D01*
X95014577Y-62465423D01*
X94662242Y-62230000D01*
X95014577Y-61994577D01*
X95331740Y-61519909D01*
X95443113Y-60960000D01*
X95331740Y-60400091D01*
X95014577Y-59925423D01*
X94662242Y-59690000D01*
X95014577Y-59454577D01*
X95331740Y-58979909D01*
X95443113Y-58420000D01*
X95331740Y-57860091D01*
X95014577Y-57385423D01*
X94662242Y-57150000D01*
X95014577Y-56914577D01*
X95331740Y-56439909D01*
X95443113Y-55880000D01*
X95331740Y-55320091D01*
X95014577Y-54845423D01*
X94893894Y-54764785D01*
X95027765Y-54738157D01*
X95237809Y-54597809D01*
X95378157Y-54387765D01*
X95427440Y-54140000D01*
X95427440Y-53340000D01*
X107756887Y-53340000D01*
X107868260Y-53899909D01*
X108185423Y-54374577D01*
X108537758Y-54610000D01*
X108185423Y-54845423D01*
X107868260Y-55320091D01*
X107756887Y-55880000D01*
X107868260Y-56439909D01*
X108185423Y-56914577D01*
X108537758Y-57150000D01*
X108185423Y-57385423D01*
X107868260Y-57860091D01*
X107756887Y-58420000D01*
X107868260Y-58979909D01*
X108185423Y-59454577D01*
X108537758Y-59690000D01*
X108185423Y-59925423D01*
X107868260Y-60400091D01*
X107756887Y-60960000D01*
X107868260Y-61519909D01*
X108185423Y-61994577D01*
X108537758Y-62230000D01*
X108185423Y-62465423D01*
X107868260Y-62940091D01*
X107756887Y-63500000D01*
X107868260Y-64059909D01*
X108185423Y-64534577D01*
X108537758Y-64770000D01*
X108185423Y-65005423D01*
X107868260Y-65480091D01*
X107756887Y-66040000D01*
X107868260Y-66599909D01*
X108185423Y-67074577D01*
X108537758Y-67310000D01*
X108185423Y-67545423D01*
X107868260Y-68020091D01*
X107756887Y-68580000D01*
X107868260Y-69139909D01*
X108185423Y-69614577D01*
X108537758Y-69850000D01*
X108185423Y-70085423D01*
X107868260Y-70560091D01*
X107756887Y-71120000D01*
X107868260Y-71679909D01*
X108185423Y-72154577D01*
X108537758Y-72390000D01*
X108185423Y-72625423D01*
X107868260Y-73100091D01*
X107756887Y-73660000D01*
X107868260Y-74219909D01*
X108185423Y-74694577D01*
X108569108Y-74950947D01*
X108364866Y-75047611D01*
X107988959Y-75462577D01*
X107828096Y-75850961D01*
X107950085Y-76073000D01*
X109093000Y-76073000D01*
X109093000Y-76053000D01*
X109347000Y-76053000D01*
X109347000Y-76073000D01*
X110489915Y-76073000D01*
X110611904Y-75850961D01*
X110451041Y-75462577D01*
X110075134Y-75047611D01*
X109870892Y-74950947D01*
X110254577Y-74694577D01*
X110571740Y-74219909D01*
X110613684Y-74009039D01*
X132193096Y-74009039D01*
X132210633Y-74091819D01*
X132480500Y-74584896D01*
X132918517Y-74937166D01*
X133458000Y-75095000D01*
X133858000Y-75095000D01*
X133858000Y-73787000D01*
X134112000Y-73787000D01*
X134112000Y-75095000D01*
X134512000Y-75095000D01*
X135051483Y-74937166D01*
X135489500Y-74584896D01*
X135759367Y-74091819D01*
X135776904Y-74009039D01*
X139813096Y-74009039D01*
X139830633Y-74091819D01*
X140100500Y-74584896D01*
X140538517Y-74937166D01*
X141078000Y-75095000D01*
X141478000Y-75095000D01*
X141478000Y-73787000D01*
X141732000Y-73787000D01*
X141732000Y-75095000D01*
X142132000Y-75095000D01*
X142671483Y-74937166D01*
X143109500Y-74584896D01*
X143379367Y-74091819D01*
X143396904Y-74009039D01*
X143274915Y-73787000D01*
X141732000Y-73787000D01*
X141478000Y-73787000D01*
X139935085Y-73787000D01*
X139813096Y-74009039D01*
X135776904Y-74009039D01*
X135654915Y-73787000D01*
X134112000Y-73787000D01*
X133858000Y-73787000D01*
X132315085Y-73787000D01*
X132193096Y-74009039D01*
X110613684Y-74009039D01*
X110683113Y-73660000D01*
X110571740Y-73100091D01*
X110254577Y-72625423D01*
X109902242Y-72390000D01*
X110254577Y-72154577D01*
X110571740Y-71679909D01*
X110683113Y-71120000D01*
X110571740Y-70560091D01*
X110254577Y-70085423D01*
X109902242Y-69850000D01*
X110254577Y-69614577D01*
X110571740Y-69139909D01*
X110683113Y-68580000D01*
X110571740Y-68020091D01*
X110254577Y-67545423D01*
X109902242Y-67310000D01*
X110254577Y-67074577D01*
X110571740Y-66599909D01*
X110683113Y-66040000D01*
X110571740Y-65480091D01*
X110254577Y-65005423D01*
X109902242Y-64770000D01*
X110254577Y-64534577D01*
X110571740Y-64059909D01*
X110683113Y-63500000D01*
X110571740Y-62940091D01*
X110254577Y-62465423D01*
X109902242Y-62230000D01*
X110254577Y-61994577D01*
X110571740Y-61519909D01*
X110683113Y-60960000D01*
X110571740Y-60400091D01*
X110254577Y-59925423D01*
X109902242Y-59690000D01*
X110254577Y-59454577D01*
X110571740Y-58979909D01*
X110683113Y-58420000D01*
X110571740Y-57860091D01*
X110254577Y-57385423D01*
X109902242Y-57150000D01*
X110254577Y-56914577D01*
X110571740Y-56439909D01*
X110683113Y-55880000D01*
X110571740Y-55320091D01*
X110254577Y-54845423D01*
X109902242Y-54610000D01*
X110254577Y-54374577D01*
X110571740Y-53899909D01*
X110683113Y-53340000D01*
X110571740Y-52780091D01*
X110254577Y-52305423D01*
X109779909Y-51988260D01*
X109361333Y-51905000D01*
X109078667Y-51905000D01*
X108660091Y-51988260D01*
X108185423Y-52305423D01*
X107868260Y-52780091D01*
X107756887Y-53340000D01*
X95427440Y-53340000D01*
X95427440Y-52540000D01*
X95378157Y-52292235D01*
X95237809Y-52082191D01*
X95027765Y-51941843D01*
X94780000Y-51892560D01*
X93180000Y-51892560D01*
X92932235Y-51941843D01*
X92722191Y-52082191D01*
X92581843Y-52292235D01*
X92532560Y-52540000D01*
X92532560Y-54140000D01*
X92581843Y-54387765D01*
X92722191Y-54597809D01*
X92932235Y-54738157D01*
X93066106Y-54764785D01*
X92945423Y-54845423D01*
X92628260Y-55320091D01*
X92516887Y-55880000D01*
X89779092Y-55880000D01*
X89663839Y-55300582D01*
X89335625Y-54809375D01*
X89317381Y-54797184D01*
X89362765Y-54788157D01*
X89572809Y-54647809D01*
X89713157Y-54437765D01*
X89762440Y-54190000D01*
X89762440Y-52490000D01*
X89713157Y-52242235D01*
X89572809Y-52032191D01*
X89362765Y-51891843D01*
X89115000Y-51842560D01*
X87415000Y-51842560D01*
X87167235Y-51891843D01*
X86995000Y-52006928D01*
X86822765Y-51891843D01*
X86575000Y-51842560D01*
X84875000Y-51842560D01*
X84627235Y-51891843D01*
X84451975Y-52008949D01*
X84394698Y-51951673D01*
X84161309Y-51855000D01*
X83470750Y-51855000D01*
X83312000Y-52013750D01*
X83058000Y-52013750D01*
X82899250Y-51855000D01*
X82208691Y-51855000D01*
X81975302Y-51951673D01*
X81796673Y-52130301D01*
X81700000Y-52363690D01*
X76650673Y-52363690D01*
X77112503Y-52005460D01*
X77669461Y-51731402D01*
X78278914Y-51572652D01*
X78417347Y-51562000D01*
X118601557Y-51562000D01*
X118519250Y-51685181D01*
X118519250Y-51685181D01*
G37*
X118519250Y-51685181D02*
X118516398Y-51699518D01*
X118499250Y-51725182D01*
X118473673Y-51853764D01*
X118282235Y-51891843D01*
X118110000Y-52006928D01*
X117937765Y-51891843D01*
X117690000Y-51842560D01*
X115990000Y-51842560D01*
X115742235Y-51891843D01*
X115532191Y-52032191D01*
X115391843Y-52242235D01*
X115342560Y-52490000D01*
X115342560Y-54190000D01*
X115391843Y-54437765D01*
X115532191Y-54647809D01*
X115742235Y-54788157D01*
X115787619Y-54797184D01*
X115769375Y-54809375D01*
X115441161Y-55300582D01*
X115325908Y-55880000D01*
X115441161Y-56459418D01*
X115769375Y-56950625D01*
X116067761Y-57150000D01*
X115769375Y-57349375D01*
X115441161Y-57840582D01*
X115325908Y-58420000D01*
X115441161Y-58999418D01*
X115769375Y-59490625D01*
X116067761Y-59690000D01*
X115769375Y-59889375D01*
X115441161Y-60380582D01*
X115325908Y-60960000D01*
X115441161Y-61539418D01*
X115769375Y-62030625D01*
X116067761Y-62230000D01*
X115769375Y-62429375D01*
X115441161Y-62920582D01*
X115325908Y-63500000D01*
X115441161Y-64079418D01*
X115769375Y-64570625D01*
X116067761Y-64770000D01*
X115769375Y-64969375D01*
X115441161Y-65460582D01*
X115325908Y-66040000D01*
X115441161Y-66619418D01*
X115769375Y-67110625D01*
X116067761Y-67310000D01*
X115769375Y-67509375D01*
X115441161Y-68000582D01*
X115325908Y-68580000D01*
X115441161Y-69159418D01*
X115769375Y-69650625D01*
X116067761Y-69850000D01*
X115769375Y-70049375D01*
X115441161Y-70540582D01*
X115325908Y-71120000D01*
X115441161Y-71699418D01*
X115769375Y-72190625D01*
X116260582Y-72518839D01*
X116693744Y-72605000D01*
X116986256Y-72605000D01*
X117419418Y-72518839D01*
X117910625Y-72190625D01*
X118110000Y-71892239D01*
X118309375Y-72190625D01*
X118800582Y-72518839D01*
X119233744Y-72605000D01*
X119526256Y-72605000D01*
X119959418Y-72518839D01*
X120450625Y-72190625D01*
X120651353Y-71890214D01*
X121038642Y-72315183D01*
X121563108Y-72561486D01*
X121793000Y-72440819D01*
X121793000Y-71247000D01*
X122047000Y-71247000D01*
X122047000Y-72440819D01*
X122276892Y-72561486D01*
X122801358Y-72315183D01*
X123191645Y-71886924D01*
X123361476Y-71476890D01*
X123240155Y-71247000D01*
X122047000Y-71247000D01*
X121793000Y-71247000D01*
X121773000Y-71247000D01*
X121773000Y-70993000D01*
X121793000Y-70993000D01*
X121793000Y-68707000D01*
X122047000Y-68707000D01*
X122047000Y-70993000D01*
X123240155Y-70993000D01*
X123361476Y-70763110D01*
X123191645Y-70353076D01*
X122801358Y-69924817D01*
X122642046Y-69850000D01*
X122801358Y-69775183D01*
X123191645Y-69346924D01*
X123361476Y-68936890D01*
X126828524Y-68936890D01*
X126998355Y-69346924D01*
X127388642Y-69775183D01*
X127913108Y-70021486D01*
X128143000Y-69900819D01*
X128143000Y-68707000D01*
X128397000Y-68707000D01*
X128397000Y-69900819D01*
X128626892Y-70021486D01*
X129151358Y-69775183D01*
X129541645Y-69346924D01*
X129711476Y-68936890D01*
X129590155Y-68707000D01*
X128397000Y-68707000D01*
X128143000Y-68707000D01*
X126949845Y-68707000D01*
X126828524Y-68936890D01*
X123361476Y-68936890D01*
X123240155Y-68707000D01*
X122047000Y-68707000D01*
X121793000Y-68707000D01*
X121773000Y-68707000D01*
X121773000Y-68453000D01*
X121793000Y-68453000D01*
X121793000Y-66167000D01*
X122047000Y-66167000D01*
X122047000Y-68453000D01*
X123240155Y-68453000D01*
X123361476Y-68223110D01*
X123191645Y-67813076D01*
X122801358Y-67384817D01*
X122642046Y-67310000D01*
X122801358Y-67235183D01*
X123191645Y-66806924D01*
X123361476Y-66396890D01*
X123240155Y-66167000D01*
X122047000Y-66167000D01*
X121793000Y-66167000D01*
X121773000Y-66167000D01*
X121773000Y-65913000D01*
X121793000Y-65913000D01*
X121793000Y-63627000D01*
X122047000Y-63627000D01*
X122047000Y-65913000D01*
X123240155Y-65913000D01*
X123361476Y-65683110D01*
X123191645Y-65273076D01*
X123115936Y-65190000D01*
X126772560Y-65190000D01*
X126772560Y-66890000D01*
X126821843Y-67137765D01*
X126962191Y-67347809D01*
X127172235Y-67488157D01*
X127275708Y-67508739D01*
X126998355Y-67813076D01*
X126828524Y-68223110D01*
X126949845Y-68453000D01*
X128143000Y-68453000D01*
X128143000Y-68433000D01*
X128397000Y-68433000D01*
X128397000Y-68453000D01*
X129590155Y-68453000D01*
X129711476Y-68223110D01*
X129541645Y-67813076D01*
X129264292Y-67508739D01*
X129367765Y-67488157D01*
X129577809Y-67347809D01*
X129718157Y-67137765D01*
X129750533Y-66975000D01*
X132164413Y-66975000D01*
X132186843Y-67087765D01*
X132327191Y-67297809D01*
X132537235Y-67438157D01*
X132671106Y-67464785D01*
X132550423Y-67545423D01*
X132233260Y-68020091D01*
X132121887Y-68580000D01*
X132233260Y-69139909D01*
X132550423Y-69614577D01*
X132902758Y-69850000D01*
X132550423Y-70085423D01*
X132233260Y-70560091D01*
X132121887Y-71120000D01*
X132233260Y-71679909D01*
X132550423Y-72154577D01*
X132906499Y-72392499D01*
X132480500Y-72735104D01*
X132210633Y-73228181D01*
X132193096Y-73310961D01*
X132315085Y-73533000D01*
X133858000Y-73533000D01*
X133858000Y-73513000D01*
X134112000Y-73513000D01*
X134112000Y-73533000D01*
X135654915Y-73533000D01*
X135776904Y-73310961D01*
X135759367Y-73228181D01*
X135489500Y-72735104D01*
X135063501Y-72392499D01*
X135419577Y-72154577D01*
X135736740Y-71679909D01*
X135848113Y-71120000D01*
X135736740Y-70560091D01*
X135419577Y-70085423D01*
X135067242Y-69850000D01*
X135419577Y-69614577D01*
X135736740Y-69139909D01*
X135848113Y-68580000D01*
X135736740Y-68020091D01*
X135419577Y-67545423D01*
X135298894Y-67464785D01*
X135432765Y-67438157D01*
X135642809Y-67297809D01*
X135783157Y-67087765D01*
X135832440Y-66840000D01*
X135832440Y-66040000D01*
X139741887Y-66040000D01*
X139853260Y-66599909D01*
X140170423Y-67074577D01*
X140522758Y-67310000D01*
X140170423Y-67545423D01*
X139853260Y-68020091D01*
X139741887Y-68580000D01*
X139853260Y-69139909D01*
X140170423Y-69614577D01*
X140522758Y-69850000D01*
X140170423Y-70085423D01*
X139853260Y-70560091D01*
X139741887Y-71120000D01*
X139853260Y-71679909D01*
X140170423Y-72154577D01*
X140526499Y-72392499D01*
X140100500Y-72735104D01*
X139830633Y-73228181D01*
X139813096Y-73310961D01*
X139935085Y-73533000D01*
X141478000Y-73533000D01*
X141478000Y-73513000D01*
X141732000Y-73513000D01*
X141732000Y-73533000D01*
X143274915Y-73533000D01*
X143396904Y-73310961D01*
X143379367Y-73228181D01*
X143109500Y-72735104D01*
X142683501Y-72392499D01*
X143039577Y-72154577D01*
X143106112Y-72055000D01*
X145027711Y-72055000D01*
X149012730Y-76040020D01*
X148980908Y-76200000D01*
X149096161Y-76779418D01*
X149424375Y-77270625D01*
X149442619Y-77282816D01*
X149397235Y-77291843D01*
X149187191Y-77432191D01*
X149046843Y-77642235D01*
X148997560Y-77890000D01*
X148997560Y-79590000D01*
X149046843Y-79837765D01*
X149187191Y-80047809D01*
X149397235Y-80188157D01*
X149560000Y-80220533D01*
X149560000Y-80257711D01*
X149472711Y-80345000D01*
X143106112Y-80345000D01*
X143039577Y-80245423D01*
X142687242Y-80010000D01*
X143039577Y-79774577D01*
X143356740Y-79299909D01*
X143468113Y-78740000D01*
X143356740Y-78180091D01*
X143039577Y-77705423D01*
X142564909Y-77388260D01*
X142146333Y-77305000D01*
X141063667Y-77305000D01*
X140645091Y-77388260D01*
X140170423Y-77705423D01*
X139853260Y-78180091D01*
X139741887Y-78740000D01*
X139853260Y-79299909D01*
X140170423Y-79774577D01*
X140522758Y-80010000D01*
X140170423Y-80245423D01*
X139853260Y-80720091D01*
X139741887Y-81280000D01*
X139853260Y-81839909D01*
X140170423Y-82314577D01*
X140522758Y-82550000D01*
X140170423Y-82785423D01*
X139853260Y-83260091D01*
X139741887Y-83820000D01*
X139853260Y-84379909D01*
X140170423Y-84854577D01*
X140526499Y-85092499D01*
X140100500Y-85435104D01*
X139830633Y-85928181D01*
X139813096Y-86010961D01*
X139935085Y-86233000D01*
X141478000Y-86233000D01*
X141478000Y-86213000D01*
X141732000Y-86213000D01*
X141732000Y-86233000D01*
X143274915Y-86233000D01*
X143396904Y-86010961D01*
X143379367Y-85928181D01*
X143109500Y-85435104D01*
X142683501Y-85092499D01*
X143039577Y-84854577D01*
X143356740Y-84379909D01*
X143468113Y-83820000D01*
X143356740Y-83260091D01*
X143039577Y-82785423D01*
X142687242Y-82550000D01*
X143039577Y-82314577D01*
X143106112Y-82215000D01*
X149767914Y-82215000D01*
X149860000Y-82233317D01*
X149952086Y-82215000D01*
X150224819Y-82160750D01*
X150534097Y-81954097D01*
X150586261Y-81876028D01*
X151091028Y-81371261D01*
X151169097Y-81319097D01*
X151375750Y-81009819D01*
X151430000Y-80737086D01*
X151430000Y-80737085D01*
X151448317Y-80645000D01*
X151430000Y-80552914D01*
X151430000Y-80220533D01*
X151592765Y-80188157D01*
X151802809Y-80047809D01*
X151943157Y-79837765D01*
X151992440Y-79590000D01*
X151992440Y-77890000D01*
X151943157Y-77642235D01*
X151802809Y-77432191D01*
X151592765Y-77291843D01*
X151547381Y-77282816D01*
X151565625Y-77270625D01*
X151893839Y-76779418D01*
X152009092Y-76200000D01*
X151893839Y-75620582D01*
X151565625Y-75129375D01*
X151074418Y-74801161D01*
X150641256Y-74715000D01*
X150348744Y-74715000D01*
X150335020Y-74717730D01*
X146141261Y-70523972D01*
X146089097Y-70445903D01*
X145779819Y-70239250D01*
X145507086Y-70185000D01*
X145415000Y-70166683D01*
X145322914Y-70185000D01*
X143106112Y-70185000D01*
X143039577Y-70085423D01*
X142687242Y-69850000D01*
X143039577Y-69614577D01*
X143356740Y-69139909D01*
X143468113Y-68580000D01*
X143356740Y-68020091D01*
X143039577Y-67545423D01*
X142687242Y-67310000D01*
X143039577Y-67074577D01*
X143356740Y-66599909D01*
X143468113Y-66040000D01*
X143356740Y-65480091D01*
X143039577Y-65005423D01*
X142564909Y-64688260D01*
X142146333Y-64605000D01*
X141063667Y-64605000D01*
X140645091Y-64688260D01*
X140170423Y-65005423D01*
X139853260Y-65480091D01*
X139741887Y-66040000D01*
X135832440Y-66040000D01*
X135832440Y-65240000D01*
X135783157Y-64992235D01*
X135642809Y-64782191D01*
X135432765Y-64641843D01*
X135185000Y-64592560D01*
X132785000Y-64592560D01*
X132537235Y-64641843D01*
X132327191Y-64782191D01*
X132186843Y-64992235D01*
X132164413Y-65105000D01*
X129750533Y-65105000D01*
X129718157Y-64942235D01*
X129577809Y-64732191D01*
X129367765Y-64591843D01*
X129120000Y-64542560D01*
X127420000Y-64542560D01*
X127172235Y-64591843D01*
X126962191Y-64732191D01*
X126821843Y-64942235D01*
X126772560Y-65190000D01*
X123115936Y-65190000D01*
X122801358Y-64844817D01*
X122642046Y-64770000D01*
X122801358Y-64695183D01*
X123191645Y-64266924D01*
X123361476Y-63856890D01*
X123240155Y-63627000D01*
X122047000Y-63627000D01*
X121793000Y-63627000D01*
X121773000Y-63627000D01*
X121773000Y-63373000D01*
X121793000Y-63373000D01*
X121793000Y-61087000D01*
X122047000Y-61087000D01*
X122047000Y-63373000D01*
X123240155Y-63373000D01*
X123361476Y-63143110D01*
X123191645Y-62733076D01*
X122801358Y-62304817D01*
X122642046Y-62230000D01*
X122801358Y-62155183D01*
X123191645Y-61726924D01*
X123361476Y-61316890D01*
X123240155Y-61087000D01*
X122047000Y-61087000D01*
X121793000Y-61087000D01*
X121773000Y-61087000D01*
X121773000Y-60833000D01*
X121793000Y-60833000D01*
X121793000Y-58547000D01*
X122047000Y-58547000D01*
X122047000Y-60833000D01*
X123240155Y-60833000D01*
X123361476Y-60603110D01*
X123191645Y-60193076D01*
X122801358Y-59764817D01*
X122642046Y-59690000D01*
X122801358Y-59615183D01*
X123191645Y-59186924D01*
X123361476Y-58776890D01*
X123240155Y-58547000D01*
X122047000Y-58547000D01*
X121793000Y-58547000D01*
X121773000Y-58547000D01*
X121773000Y-58293000D01*
X121793000Y-58293000D01*
X121793000Y-56007000D01*
X122047000Y-56007000D01*
X122047000Y-58293000D01*
X123240155Y-58293000D01*
X123361476Y-58063110D01*
X123191645Y-57653076D01*
X122801358Y-57224817D01*
X122642046Y-57150000D01*
X122801358Y-57075183D01*
X123191645Y-56646924D01*
X123361476Y-56236890D01*
X123240155Y-56007000D01*
X122047000Y-56007000D01*
X121793000Y-56007000D01*
X121773000Y-56007000D01*
X121773000Y-55753000D01*
X121793000Y-55753000D01*
X121793000Y-53467000D01*
X122047000Y-53467000D01*
X122047000Y-55753000D01*
X123240155Y-55753000D01*
X123361476Y-55523110D01*
X123191645Y-55113076D01*
X122920122Y-54815136D01*
X123129698Y-54728327D01*
X123308327Y-54549699D01*
X123405000Y-54316310D01*
X123405000Y-53625750D01*
X123246250Y-53467000D01*
X122047000Y-53467000D01*
X121793000Y-53467000D01*
X121773000Y-53467000D01*
X121773000Y-53213000D01*
X121793000Y-53213000D01*
X121793000Y-53193000D01*
X122047000Y-53193000D01*
X122047000Y-53213000D01*
X123246250Y-53213000D01*
X123405000Y-53054250D01*
X123405000Y-52370000D01*
X127247711Y-52370000D01*
X131102570Y-56224859D01*
X131202569Y-56466280D01*
X131493720Y-56757431D01*
X131874126Y-56915000D01*
X132285874Y-56915000D01*
X132666280Y-56757431D01*
X132957431Y-56466280D01*
X133115000Y-56085874D01*
X133115000Y-55674126D01*
X132957431Y-55293720D01*
X132666280Y-55002569D01*
X132424859Y-54902570D01*
X131687720Y-54165431D01*
X147625000Y-54165431D01*
X147625000Y-55054569D01*
X147965259Y-55876026D01*
X148593974Y-56504741D01*
X149415431Y-56845000D01*
X150304569Y-56845000D01*
X151126026Y-56504741D01*
X151754741Y-55876026D01*
X152095000Y-55054569D01*
X152095000Y-54165431D01*
X151754741Y-53343974D01*
X151126026Y-52715259D01*
X150304569Y-52375000D01*
X149415431Y-52375000D01*
X148593974Y-52715259D01*
X147965259Y-53343974D01*
X147625000Y-54165431D01*
X131687720Y-54165431D01*
X129084289Y-51562000D01*
X150088581Y-51562000D01*
X150477551Y-51601510D01*
X151069883Y-51787135D01*
X151612787Y-52088073D01*
X152084090Y-52492028D01*
X152464540Y-52982503D01*
X152738598Y-53539461D01*
X152897348Y-54148914D01*
X152908000Y-54287347D01*
X152908000Y-110718581D01*
X152868490Y-111107551D01*
X152682864Y-111699885D01*
X152381927Y-112242787D01*
X151977972Y-112714090D01*
X151487500Y-113094539D01*
X150930539Y-113368598D01*
X150321086Y-113527348D01*
X150182653Y-113538000D01*
X78511419Y-113538000D01*
X78122449Y-113498490D01*
X77530115Y-113312864D01*
X76987213Y-113011927D01*
X76515910Y-112607972D01*
X76135461Y-112117500D01*
X75861402Y-111560539D01*
X75702652Y-110951086D01*
X75692000Y-110812653D01*
X75692000Y-110045431D01*
X76505000Y-110045431D01*
X76505000Y-110934569D01*
X76845259Y-111756026D01*
X77473974Y-112384741D01*
X78295431Y-112725000D01*
X79184569Y-112725000D01*
X80006026Y-112384741D01*
X80273877Y-112116890D01*
X81743524Y-112116890D01*
X81913355Y-112526924D01*
X82303642Y-112955183D01*
X82828108Y-113201486D01*
X83058000Y-113080819D01*
X83058000Y-111887000D01*
X81864845Y-111887000D01*
X81743524Y-112116890D01*
X80273877Y-112116890D01*
X80634741Y-111756026D01*
X80975000Y-110934569D01*
X80975000Y-110045431D01*
X80780924Y-109576890D01*
X81743524Y-109576890D01*
X81913355Y-109986924D01*
X82303642Y-110415183D01*
X82462954Y-110490000D01*
X82303642Y-110564817D01*
X81913355Y-110993076D01*
X81743524Y-111403110D01*
X81864845Y-111633000D01*
X83058000Y-111633000D01*
X83058000Y-109347000D01*
X81864845Y-109347000D01*
X81743524Y-109576890D01*
X80780924Y-109576890D01*
X80634741Y-109223974D01*
X80006026Y-108595259D01*
X79184569Y-108255000D01*
X78295431Y-108255000D01*
X77473974Y-108595259D01*
X76845259Y-109223974D01*
X76505000Y-110045431D01*
X75692000Y-110045431D01*
X75692000Y-107036890D01*
X81743524Y-107036890D01*
X81913355Y-107446924D01*
X82303642Y-107875183D01*
X82462954Y-107950000D01*
X82303642Y-108024817D01*
X81913355Y-108453076D01*
X81743524Y-108863110D01*
X81864845Y-109093000D01*
X83058000Y-109093000D01*
X83058000Y-106807000D01*
X81864845Y-106807000D01*
X81743524Y-107036890D01*
X75692000Y-107036890D01*
X75692000Y-104425750D01*
X81700000Y-104425750D01*
X81700000Y-105116310D01*
X81796673Y-105349699D01*
X81975302Y-105528327D01*
X82184878Y-105615136D01*
X81913355Y-105913076D01*
X81743524Y-106323110D01*
X81864845Y-106553000D01*
X83058000Y-106553000D01*
X83058000Y-104267000D01*
X81858750Y-104267000D01*
X81700000Y-104425750D01*
X75692000Y-104425750D01*
X75692000Y-103163690D01*
X81700000Y-103163690D01*
X81700000Y-103854250D01*
X81858750Y-104013000D01*
X83058000Y-104013000D01*
X83058000Y-102813750D01*
X83312000Y-102813750D01*
X83312000Y-104013000D01*
X83332000Y-104013000D01*
X83332000Y-104267000D01*
X83312000Y-104267000D01*
X83312000Y-106553000D01*
X83332000Y-106553000D01*
X83332000Y-106807000D01*
X83312000Y-106807000D01*
X83312000Y-109093000D01*
X83332000Y-109093000D01*
X83332000Y-109347000D01*
X83312000Y-109347000D01*
X83312000Y-111633000D01*
X83332000Y-111633000D01*
X83332000Y-111887000D01*
X83312000Y-111887000D01*
X83312000Y-113080819D01*
X83541892Y-113201486D01*
X84066358Y-112955183D01*
X84453647Y-112530214D01*
X84654375Y-112830625D01*
X85145582Y-113158839D01*
X85578744Y-113245000D01*
X85871256Y-113245000D01*
X86304418Y-113158839D01*
X86795625Y-112830625D01*
X86995000Y-112532239D01*
X87194375Y-112830625D01*
X87685582Y-113158839D01*
X88118744Y-113245000D01*
X88411256Y-113245000D01*
X88844418Y-113158839D01*
X89335625Y-112830625D01*
X89663839Y-112339418D01*
X89709664Y-112109039D01*
X132193096Y-112109039D01*
X132210633Y-112191819D01*
X132480500Y-112684896D01*
X132918517Y-113037166D01*
X133458000Y-113195000D01*
X133858000Y-113195000D01*
X133858000Y-111887000D01*
X134112000Y-111887000D01*
X134112000Y-113195000D01*
X134512000Y-113195000D01*
X135051483Y-113037166D01*
X135489500Y-112684896D01*
X135759367Y-112191819D01*
X135776904Y-112109039D01*
X139813096Y-112109039D01*
X139830633Y-112191819D01*
X140100500Y-112684896D01*
X140538517Y-113037166D01*
X141078000Y-113195000D01*
X141478000Y-113195000D01*
X141478000Y-111887000D01*
X141732000Y-111887000D01*
X141732000Y-113195000D01*
X142132000Y-113195000D01*
X142671483Y-113037166D01*
X143109500Y-112684896D01*
X143379367Y-112191819D01*
X143396904Y-112109039D01*
X143274915Y-111887000D01*
X141732000Y-111887000D01*
X141478000Y-111887000D01*
X139935085Y-111887000D01*
X139813096Y-112109039D01*
X135776904Y-112109039D01*
X135654915Y-111887000D01*
X134112000Y-111887000D01*
X133858000Y-111887000D01*
X132315085Y-111887000D01*
X132193096Y-112109039D01*
X89709664Y-112109039D01*
X89779092Y-111760000D01*
X89663839Y-111180582D01*
X89335625Y-110689375D01*
X89037239Y-110490000D01*
X89335625Y-110290625D01*
X89663839Y-109799418D01*
X89779092Y-109220000D01*
X89663839Y-108640582D01*
X89335625Y-108149375D01*
X89037239Y-107950000D01*
X89335625Y-107750625D01*
X89663839Y-107259418D01*
X89779092Y-106680000D01*
X132121887Y-106680000D01*
X132233260Y-107239909D01*
X132550423Y-107714577D01*
X132902758Y-107950000D01*
X132550423Y-108185423D01*
X132233260Y-108660091D01*
X132121887Y-109220000D01*
X132233260Y-109779909D01*
X132550423Y-110254577D01*
X132906499Y-110492499D01*
X132480500Y-110835104D01*
X132210633Y-111328181D01*
X132193096Y-111410961D01*
X132315085Y-111633000D01*
X133858000Y-111633000D01*
X133858000Y-111613000D01*
X134112000Y-111613000D01*
X134112000Y-111633000D01*
X135654915Y-111633000D01*
X135776904Y-111410961D01*
X135759367Y-111328181D01*
X135489500Y-110835104D01*
X135063501Y-110492499D01*
X135419577Y-110254577D01*
X135736740Y-109779909D01*
X135848113Y-109220000D01*
X135736740Y-108660091D01*
X135419577Y-108185423D01*
X135067242Y-107950000D01*
X135419577Y-107714577D01*
X135736740Y-107239909D01*
X135848113Y-106680000D01*
X135736740Y-106120091D01*
X135419577Y-105645423D01*
X135298894Y-105564785D01*
X135432765Y-105538157D01*
X135642809Y-105397809D01*
X135783157Y-105187765D01*
X135832440Y-104940000D01*
X135832440Y-104140000D01*
X139741887Y-104140000D01*
X139853260Y-104699909D01*
X140170423Y-105174577D01*
X140522758Y-105410000D01*
X140170423Y-105645423D01*
X139853260Y-106120091D01*
X139741887Y-106680000D01*
X139853260Y-107239909D01*
X140170423Y-107714577D01*
X140522758Y-107950000D01*
X140170423Y-108185423D01*
X139853260Y-108660091D01*
X139741887Y-109220000D01*
X139853260Y-109779909D01*
X140170423Y-110254577D01*
X140526499Y-110492499D01*
X140100500Y-110835104D01*
X139830633Y-111328181D01*
X139813096Y-111410961D01*
X139935085Y-111633000D01*
X141478000Y-111633000D01*
X141478000Y-111613000D01*
X141732000Y-111613000D01*
X141732000Y-111633000D01*
X143274915Y-111633000D01*
X143396904Y-111410961D01*
X143379367Y-111328181D01*
X143109500Y-110835104D01*
X142683501Y-110492499D01*
X143039577Y-110254577D01*
X143179323Y-110045431D01*
X147625000Y-110045431D01*
X147625000Y-110934569D01*
X147965259Y-111756026D01*
X148593974Y-112384741D01*
X149415431Y-112725000D01*
X150304569Y-112725000D01*
X151126026Y-112384741D01*
X151754741Y-111756026D01*
X152095000Y-110934569D01*
X152095000Y-110045431D01*
X151754741Y-109223974D01*
X151126026Y-108595259D01*
X150304569Y-108255000D01*
X149415431Y-108255000D01*
X148593974Y-108595259D01*
X147965259Y-109223974D01*
X147625000Y-110045431D01*
X143179323Y-110045431D01*
X143356740Y-109779909D01*
X143468113Y-109220000D01*
X143356740Y-108660091D01*
X143039577Y-108185423D01*
X142687242Y-107950000D01*
X143039577Y-107714577D01*
X143356740Y-107239909D01*
X143468113Y-106680000D01*
X143356740Y-106120091D01*
X143039577Y-105645423D01*
X142687242Y-105410000D01*
X143039577Y-105174577D01*
X143356740Y-104699909D01*
X143468113Y-104140000D01*
X143356740Y-103580091D01*
X143039577Y-103105423D01*
X142564909Y-102788260D01*
X142146333Y-102705000D01*
X141063667Y-102705000D01*
X140645091Y-102788260D01*
X140170423Y-103105423D01*
X139853260Y-103580091D01*
X139741887Y-104140000D01*
X135832440Y-104140000D01*
X135832440Y-103340000D01*
X135783157Y-103092235D01*
X135642809Y-102882191D01*
X135432765Y-102741843D01*
X135185000Y-102692560D01*
X132785000Y-102692560D01*
X132537235Y-102741843D01*
X132327191Y-102882191D01*
X132186843Y-103092235D01*
X132137560Y-103340000D01*
X132137560Y-104940000D01*
X132186843Y-105187765D01*
X132327191Y-105397809D01*
X132537235Y-105538157D01*
X132671106Y-105564785D01*
X132550423Y-105645423D01*
X132233260Y-106120091D01*
X132121887Y-106680000D01*
X89779092Y-106680000D01*
X89663839Y-106100582D01*
X89335625Y-105609375D01*
X89317381Y-105597184D01*
X89362765Y-105588157D01*
X89572809Y-105447809D01*
X89713157Y-105237765D01*
X89762440Y-104990000D01*
X89762440Y-103290000D01*
X89713157Y-103042235D01*
X89572809Y-102832191D01*
X89362765Y-102691843D01*
X89115000Y-102642560D01*
X87415000Y-102642560D01*
X87167235Y-102691843D01*
X86995000Y-102806928D01*
X86822765Y-102691843D01*
X86575000Y-102642560D01*
X84875000Y-102642560D01*
X84627235Y-102691843D01*
X84451975Y-102808949D01*
X84394698Y-102751673D01*
X84161309Y-102655000D01*
X83470750Y-102655000D01*
X83312000Y-102813750D01*
X83058000Y-102813750D01*
X82899250Y-102655000D01*
X82208691Y-102655000D01*
X81975302Y-102751673D01*
X81796673Y-102930301D01*
X81700000Y-103163690D01*
X75692000Y-103163690D01*
X75692000Y-96876890D01*
X76028524Y-96876890D01*
X76198355Y-97286924D01*
X76588642Y-97715183D01*
X77113108Y-97961486D01*
X77343000Y-97840819D01*
X77343000Y-96647000D01*
X76149845Y-96647000D01*
X76028524Y-96876890D01*
X75692000Y-96876890D01*
X75692000Y-94336890D01*
X76028524Y-94336890D01*
X76198355Y-94746924D01*
X76588642Y-95175183D01*
X76747954Y-95250000D01*
X76588642Y-95324817D01*
X76198355Y-95753076D01*
X76028524Y-96163110D01*
X76149845Y-96393000D01*
X77343000Y-96393000D01*
X77343000Y-94107000D01*
X76149845Y-94107000D01*
X76028524Y-94336890D01*
X75692000Y-94336890D01*
X75692000Y-91796890D01*
X76028524Y-91796890D01*
X76198355Y-92206924D01*
X76588642Y-92635183D01*
X76747954Y-92710000D01*
X76588642Y-92784817D01*
X76198355Y-93213076D01*
X76028524Y-93623110D01*
X76149845Y-93853000D01*
X77343000Y-93853000D01*
X77343000Y-91567000D01*
X76149845Y-91567000D01*
X76028524Y-91796890D01*
X75692000Y-91796890D01*
X75692000Y-89185750D01*
X75985000Y-89185750D01*
X75985000Y-89876310D01*
X76081673Y-90109699D01*
X76260302Y-90288327D01*
X76469878Y-90375136D01*
X76198355Y-90673076D01*
X76028524Y-91083110D01*
X76149845Y-91313000D01*
X77343000Y-91313000D01*
X77343000Y-89027000D01*
X76143750Y-89027000D01*
X75985000Y-89185750D01*
X75692000Y-89185750D01*
X75692000Y-87923690D01*
X75985000Y-87923690D01*
X75985000Y-88614250D01*
X76143750Y-88773000D01*
X77343000Y-88773000D01*
X77343000Y-87573750D01*
X77184250Y-87415000D01*
X76493691Y-87415000D01*
X76260302Y-87511673D01*
X76081673Y-87690301D01*
X75985000Y-87923690D01*
X75692000Y-87923690D01*
X75692000Y-77490000D01*
X77151683Y-77490000D01*
X77170000Y-77582086D01*
X77170001Y-85652910D01*
X77151683Y-85745000D01*
X77224250Y-86109818D01*
X77224251Y-86109819D01*
X77430904Y-86419097D01*
X77508970Y-86471259D01*
X78457237Y-87419527D01*
X78446309Y-87415000D01*
X77755750Y-87415000D01*
X77597000Y-87573750D01*
X77597000Y-88773000D01*
X77617000Y-88773000D01*
X77617000Y-89027000D01*
X77597000Y-89027000D01*
X77597000Y-91313000D01*
X77617000Y-91313000D01*
X77617000Y-91567000D01*
X77597000Y-91567000D01*
X77597000Y-93853000D01*
X77617000Y-93853000D01*
X77617000Y-94107000D01*
X77597000Y-94107000D01*
X77597000Y-96393000D01*
X77617000Y-96393000D01*
X77617000Y-96647000D01*
X77597000Y-96647000D01*
X77597000Y-97840819D01*
X77826892Y-97961486D01*
X78351358Y-97715183D01*
X78738647Y-97290214D01*
X78939375Y-97590625D01*
X79430582Y-97918839D01*
X79863744Y-98005000D01*
X80156256Y-98005000D01*
X80589418Y-97918839D01*
X81080625Y-97590625D01*
X81280000Y-97292239D01*
X81479375Y-97590625D01*
X81970582Y-97918839D01*
X82403744Y-98005000D01*
X82696256Y-98005000D01*
X83129418Y-97918839D01*
X83620625Y-97590625D01*
X83948839Y-97099418D01*
X84064092Y-96520000D01*
X83948839Y-95940582D01*
X83620625Y-95449375D01*
X83322239Y-95250000D01*
X83620625Y-95050625D01*
X83948839Y-94559418D01*
X84064092Y-93980000D01*
X83991209Y-93613592D01*
X85404803Y-92200000D01*
X92761957Y-92200000D01*
X92945423Y-92474577D01*
X93297758Y-92710000D01*
X92945423Y-92945423D01*
X92628260Y-93420091D01*
X92516887Y-93980000D01*
X92628260Y-94539909D01*
X92945423Y-95014577D01*
X93297758Y-95250000D01*
X92945423Y-95485423D01*
X92628260Y-95960091D01*
X92516887Y-96520000D01*
X92628260Y-97079909D01*
X92945423Y-97554577D01*
X93297758Y-97790000D01*
X92945423Y-98025423D01*
X92628260Y-98500091D01*
X92516887Y-99060000D01*
X92628260Y-99619909D01*
X92945423Y-100094577D01*
X93297758Y-100330000D01*
X92945423Y-100565423D01*
X92628260Y-101040091D01*
X92516887Y-101600000D01*
X92628260Y-102159909D01*
X92945423Y-102634577D01*
X93420091Y-102951740D01*
X93838667Y-103035000D01*
X94121333Y-103035000D01*
X94539909Y-102951740D01*
X95014577Y-102634577D01*
X95331740Y-102159909D01*
X95443113Y-101600000D01*
X95331740Y-101040091D01*
X95083870Y-100669126D01*
X98660000Y-100669126D01*
X98660000Y-101080874D01*
X98817569Y-101461280D01*
X98935001Y-101578712D01*
X98935000Y-102166289D01*
X98817569Y-102283720D01*
X98660000Y-102664126D01*
X98660000Y-103075874D01*
X98817569Y-103456280D01*
X99108720Y-103747431D01*
X99489126Y-103905000D01*
X99900874Y-103905000D01*
X100281280Y-103747431D01*
X100572431Y-103456280D01*
X100730000Y-103075874D01*
X100730000Y-102664126D01*
X100572431Y-102283720D01*
X100455000Y-102166289D01*
X100455000Y-101578711D01*
X100572431Y-101461280D01*
X100730000Y-101080874D01*
X100730000Y-100669126D01*
X100572431Y-100288720D01*
X100281280Y-99997569D01*
X99900874Y-99840000D01*
X99489126Y-99840000D01*
X99108720Y-99997569D01*
X98817569Y-100288720D01*
X98660000Y-100669126D01*
X95083870Y-100669126D01*
X95014577Y-100565423D01*
X94662242Y-100330000D01*
X95014577Y-100094577D01*
X95331740Y-99619909D01*
X95443113Y-99060000D01*
X95331740Y-98500091D01*
X95014577Y-98025423D01*
X94662242Y-97790000D01*
X95014577Y-97554577D01*
X95331740Y-97079909D01*
X95443113Y-96520000D01*
X95331740Y-95960091D01*
X95014577Y-95485423D01*
X94662242Y-95250000D01*
X95014577Y-95014577D01*
X95331740Y-94539909D01*
X95443113Y-93980000D01*
X95331740Y-93420091D01*
X95014577Y-92945423D01*
X94662242Y-92710000D01*
X95014577Y-92474577D01*
X95331740Y-91999909D01*
X95443113Y-91440000D01*
X95331740Y-90880091D01*
X95014577Y-90405423D01*
X94662242Y-90170000D01*
X95014577Y-89934577D01*
X95331740Y-89459909D01*
X95443113Y-88900000D01*
X95331740Y-88340091D01*
X95014577Y-87865423D01*
X94662242Y-87630000D01*
X95014577Y-87394577D01*
X95331740Y-86919909D01*
X95443113Y-86360000D01*
X95331740Y-85800091D01*
X95014577Y-85325423D01*
X94662242Y-85090000D01*
X95014577Y-84854577D01*
X95331740Y-84379909D01*
X95443113Y-83820000D01*
X95331740Y-83260091D01*
X95014577Y-82785423D01*
X94662242Y-82550000D01*
X95014577Y-82314577D01*
X95331740Y-81839909D01*
X95443113Y-81280000D01*
X95331740Y-80720091D01*
X95014577Y-80245423D01*
X94630892Y-79989053D01*
X94835134Y-79892389D01*
X95211041Y-79477423D01*
X95371904Y-79089039D01*
X95249915Y-78867000D01*
X94107000Y-78867000D01*
X94107000Y-78887000D01*
X93853000Y-78887000D01*
X93853000Y-78867000D01*
X92710085Y-78867000D01*
X92588096Y-79089039D01*
X92748959Y-79477423D01*
X93124866Y-79892389D01*
X93329108Y-79989053D01*
X92945423Y-80245423D01*
X92628260Y-80720091D01*
X92516887Y-81280000D01*
X92628260Y-81839909D01*
X92945423Y-82314577D01*
X93297758Y-82550000D01*
X92945423Y-82785423D01*
X92628260Y-83260091D01*
X92516887Y-83820000D01*
X92628260Y-84379909D01*
X92945423Y-84854577D01*
X93297758Y-85090000D01*
X92945423Y-85325423D01*
X92628260Y-85800091D01*
X92516887Y-86360000D01*
X92628260Y-86919909D01*
X92945423Y-87394577D01*
X93297758Y-87630000D01*
X92945423Y-87865423D01*
X92628260Y-88340091D01*
X92516887Y-88900000D01*
X92628260Y-89459909D01*
X92945423Y-89934577D01*
X93297758Y-90170000D01*
X92945423Y-90405423D01*
X92761957Y-90680000D01*
X85164846Y-90680000D01*
X85089999Y-90665112D01*
X85015152Y-90680000D01*
X85015148Y-90680000D01*
X84793463Y-90724096D01*
X84793461Y-90724097D01*
X84793462Y-90724097D01*
X84605526Y-90849671D01*
X84605524Y-90849673D01*
X84542071Y-90892071D01*
X84499673Y-90955524D01*
X84055980Y-91399218D01*
X83948839Y-90860582D01*
X83620625Y-90369375D01*
X83602381Y-90357184D01*
X83647765Y-90348157D01*
X83857809Y-90207809D01*
X83998157Y-89997765D01*
X84047440Y-89750000D01*
X84047440Y-88050000D01*
X83998157Y-87802235D01*
X83857809Y-87592191D01*
X83647765Y-87451843D01*
X83400000Y-87402560D01*
X81700000Y-87402560D01*
X81452235Y-87451843D01*
X81280000Y-87566928D01*
X81107765Y-87451843D01*
X80916327Y-87413764D01*
X80890750Y-87285181D01*
X80736259Y-87053969D01*
X80684097Y-86975903D01*
X80606031Y-86923741D01*
X79766796Y-86084506D01*
X87515000Y-86084506D01*
X87515000Y-86635494D01*
X87725853Y-87144540D01*
X88115460Y-87534147D01*
X88624506Y-87745000D01*
X89175494Y-87745000D01*
X89684540Y-87534147D01*
X90074147Y-87144540D01*
X90285000Y-86635494D01*
X90285000Y-86084506D01*
X90074147Y-85575460D01*
X89684540Y-85185853D01*
X89175494Y-84975000D01*
X88624506Y-84975000D01*
X88115460Y-85185853D01*
X87725853Y-85575460D01*
X87515000Y-86084506D01*
X79766796Y-86084506D01*
X79040000Y-85357711D01*
X79040000Y-81204506D01*
X87515000Y-81204506D01*
X87515000Y-81755494D01*
X87725853Y-82264540D01*
X88115460Y-82654147D01*
X88624506Y-82865000D01*
X89175494Y-82865000D01*
X89684540Y-82654147D01*
X90074147Y-82264540D01*
X90285000Y-81755494D01*
X90285000Y-81204506D01*
X90074147Y-80695460D01*
X89684540Y-80305853D01*
X89175494Y-80095000D01*
X88624506Y-80095000D01*
X88115460Y-80305853D01*
X87725853Y-80695460D01*
X87515000Y-81204506D01*
X79040000Y-81204506D01*
X79040000Y-79096890D01*
X79203524Y-79096890D01*
X79373355Y-79506924D01*
X79763642Y-79935183D01*
X80288108Y-80181486D01*
X80518000Y-80060819D01*
X80518000Y-78867000D01*
X80772000Y-78867000D01*
X80772000Y-80060819D01*
X81001892Y-80181486D01*
X81526358Y-79935183D01*
X81916645Y-79506924D01*
X82086476Y-79096890D01*
X82378524Y-79096890D01*
X82548355Y-79506924D01*
X82938642Y-79935183D01*
X83463108Y-80181486D01*
X83693000Y-80060819D01*
X83693000Y-78867000D01*
X83947000Y-78867000D01*
X83947000Y-80060819D01*
X84176892Y-80181486D01*
X84701358Y-79935183D01*
X85091645Y-79506924D01*
X85261476Y-79096890D01*
X85140155Y-78867000D01*
X83947000Y-78867000D01*
X83693000Y-78867000D01*
X82499845Y-78867000D01*
X82378524Y-79096890D01*
X82086476Y-79096890D01*
X81965155Y-78867000D01*
X80772000Y-78867000D01*
X80518000Y-78867000D01*
X79324845Y-78867000D01*
X79203524Y-79096890D01*
X79040000Y-79096890D01*
X79040000Y-77877289D01*
X79380525Y-77536764D01*
X79547235Y-77648157D01*
X79650708Y-77668739D01*
X79373355Y-77973076D01*
X79203524Y-78383110D01*
X79324845Y-78613000D01*
X80518000Y-78613000D01*
X80518000Y-78593000D01*
X80772000Y-78593000D01*
X80772000Y-78613000D01*
X81965155Y-78613000D01*
X82086476Y-78383110D01*
X81916645Y-77973076D01*
X81639292Y-77668739D01*
X81742765Y-77648157D01*
X81952809Y-77507809D01*
X82093157Y-77297765D01*
X82142440Y-77050000D01*
X82142440Y-75350000D01*
X82093157Y-75102235D01*
X81952809Y-74892191D01*
X81742765Y-74751843D01*
X81495000Y-74702560D01*
X79795000Y-74702560D01*
X79547235Y-74751843D01*
X79337191Y-74892191D01*
X79196843Y-75102235D01*
X79158764Y-75293673D01*
X79030181Y-75319250D01*
X78720903Y-75525903D01*
X78668741Y-75603969D01*
X77508972Y-76763739D01*
X77430903Y-76815903D01*
X77224251Y-77125181D01*
X77224250Y-77125182D01*
X77151683Y-77490000D01*
X75692000Y-77490000D01*
X75692000Y-68580000D01*
X82305908Y-68580000D01*
X82421161Y-69159418D01*
X82749375Y-69650625D01*
X83047761Y-69850000D01*
X82749375Y-70049375D01*
X82421161Y-70540582D01*
X82305908Y-71120000D01*
X82421161Y-71699418D01*
X82749375Y-72190625D01*
X83047761Y-72390000D01*
X82749375Y-72589375D01*
X82421161Y-73080582D01*
X82305908Y-73660000D01*
X82421161Y-74239418D01*
X82749375Y-74730625D01*
X83047761Y-74930000D01*
X82749375Y-75129375D01*
X82421161Y-75620582D01*
X82305908Y-76200000D01*
X82421161Y-76779418D01*
X82749375Y-77270625D01*
X83068478Y-77483843D01*
X82938642Y-77544817D01*
X82548355Y-77973076D01*
X82378524Y-78383110D01*
X82499845Y-78613000D01*
X83693000Y-78613000D01*
X83693000Y-78593000D01*
X83947000Y-78593000D01*
X83947000Y-78613000D01*
X85140155Y-78613000D01*
X85261476Y-78383110D01*
X85091645Y-77973076D01*
X84701358Y-77544817D01*
X84571522Y-77483843D01*
X84890625Y-77270625D01*
X85218839Y-76779418D01*
X85334092Y-76200000D01*
X85218839Y-75620582D01*
X84890625Y-75129375D01*
X84592239Y-74930000D01*
X84890625Y-74730625D01*
X85218839Y-74239418D01*
X85334092Y-73660000D01*
X85218839Y-73080582D01*
X84890625Y-72589375D01*
X84592239Y-72390000D01*
X84890625Y-72190625D01*
X85218839Y-71699418D01*
X85334092Y-71120000D01*
X85218839Y-70540582D01*
X84890625Y-70049375D01*
X84592239Y-69850000D01*
X84890625Y-69650625D01*
X85218839Y-69159418D01*
X85334092Y-68580000D01*
X85218839Y-68000582D01*
X84890625Y-67509375D01*
X84872381Y-67497184D01*
X84917765Y-67488157D01*
X85127809Y-67347809D01*
X85268157Y-67137765D01*
X85317440Y-66890000D01*
X85317440Y-65190000D01*
X85268157Y-64942235D01*
X85127809Y-64732191D01*
X84917765Y-64591843D01*
X84670000Y-64542560D01*
X82970000Y-64542560D01*
X82722235Y-64591843D01*
X82512191Y-64732191D01*
X82371843Y-64942235D01*
X82322560Y-65190000D01*
X82322560Y-66890000D01*
X82371843Y-67137765D01*
X82512191Y-67347809D01*
X82722235Y-67488157D01*
X82767619Y-67497184D01*
X82749375Y-67509375D01*
X82421161Y-68000582D01*
X82305908Y-68580000D01*
X75692000Y-68580000D01*
X75692000Y-61316890D01*
X81743524Y-61316890D01*
X81913355Y-61726924D01*
X82303642Y-62155183D01*
X82828108Y-62401486D01*
X83058000Y-62280819D01*
X83058000Y-61087000D01*
X81864845Y-61087000D01*
X81743524Y-61316890D01*
X75692000Y-61316890D01*
X75692000Y-58776890D01*
X81743524Y-58776890D01*
X81913355Y-59186924D01*
X82303642Y-59615183D01*
X82462954Y-59690000D01*
X82303642Y-59764817D01*
X81913355Y-60193076D01*
X81743524Y-60603110D01*
X81864845Y-60833000D01*
X83058000Y-60833000D01*
X83058000Y-58547000D01*
X81864845Y-58547000D01*
X81743524Y-58776890D01*
X75692000Y-58776890D01*
X75692000Y-54381419D01*
X75713939Y-54165431D01*
X76505000Y-54165431D01*
X76505000Y-55054569D01*
X76845259Y-55876026D01*
X77473974Y-56504741D01*
X78295431Y-56845000D01*
X79184569Y-56845000D01*
X80006026Y-56504741D01*
X80273877Y-56236890D01*
X81743524Y-56236890D01*
X81913355Y-56646924D01*
X82303642Y-57075183D01*
X82462954Y-57150000D01*
X82303642Y-57224817D01*
X81913355Y-57653076D01*
X81743524Y-58063110D01*
X81864845Y-58293000D01*
X83058000Y-58293000D01*
X83058000Y-56007000D01*
X81864845Y-56007000D01*
X81743524Y-56236890D01*
X80273877Y-56236890D01*
X80634741Y-55876026D01*
X80975000Y-55054569D01*
X80975000Y-54165431D01*
X80751457Y-53625750D01*
X81700000Y-53625750D01*
X81700000Y-54316310D01*
X81796673Y-54549699D01*
X81975302Y-54728327D01*
X82184878Y-54815136D01*
X81913355Y-55113076D01*
X81743524Y-55523110D01*
X81864845Y-55753000D01*
X83058000Y-55753000D01*
X83058000Y-53467000D01*
X81858750Y-53467000D01*
X81700000Y-53625750D01*
X80751457Y-53625750D01*
X80634741Y-53343974D01*
X80006026Y-52715259D01*
X79184569Y-52375000D01*
X78295431Y-52375000D01*
X77473974Y-52715259D01*
X76845259Y-53343974D01*
X76505000Y-54165431D01*
X75713939Y-54165431D01*
X75731510Y-53992449D01*
X75917135Y-53400117D01*
X76218073Y-52857213D01*
X76622028Y-52385910D01*
X76650673Y-52363690D01*
X81700000Y-52363690D01*
X81700000Y-53054250D01*
X81858750Y-53213000D01*
X83058000Y-53213000D01*
X83058000Y-52013750D01*
X83312000Y-52013750D01*
X83312000Y-53213000D01*
X83332000Y-53213000D01*
X83332000Y-53467000D01*
X83312000Y-53467000D01*
X83312000Y-55753000D01*
X83332000Y-55753000D01*
X83332000Y-56007000D01*
X83312000Y-56007000D01*
X83312000Y-58293000D01*
X83332000Y-58293000D01*
X83332000Y-58547000D01*
X83312000Y-58547000D01*
X83312000Y-60833000D01*
X83332000Y-60833000D01*
X83332000Y-61087000D01*
X83312000Y-61087000D01*
X83312000Y-62280819D01*
X83541892Y-62401486D01*
X84066358Y-62155183D01*
X84453647Y-61730214D01*
X84654375Y-62030625D01*
X85145582Y-62358839D01*
X85578744Y-62445000D01*
X85871256Y-62445000D01*
X86304418Y-62358839D01*
X86795625Y-62030625D01*
X86995000Y-61732239D01*
X87194375Y-62030625D01*
X87685582Y-62358839D01*
X88118744Y-62445000D01*
X88411256Y-62445000D01*
X88844418Y-62358839D01*
X89335625Y-62030625D01*
X89663839Y-61539418D01*
X89779092Y-60960000D01*
X89663839Y-60380582D01*
X89335625Y-59889375D01*
X89037239Y-59690000D01*
X89335625Y-59490625D01*
X89663839Y-58999418D01*
X89779092Y-58420000D01*
X89663839Y-57840582D01*
X89335625Y-57349375D01*
X89037239Y-57150000D01*
X89335625Y-56950625D01*
X89663839Y-56459418D01*
X89779092Y-55880000D01*
X92516887Y-55880000D01*
X92628260Y-56439909D01*
X92945423Y-56914577D01*
X93297758Y-57150000D01*
X92945423Y-57385423D01*
X92628260Y-57860091D01*
X92516887Y-58420000D01*
X92628260Y-58979909D01*
X92945423Y-59454577D01*
X93297758Y-59690000D01*
X92945423Y-59925423D01*
X92628260Y-60400091D01*
X92516887Y-60960000D01*
X92628260Y-61519909D01*
X92945423Y-61994577D01*
X93297758Y-62230000D01*
X92945423Y-62465423D01*
X92628260Y-62940091D01*
X92516887Y-63500000D01*
X92628260Y-64059909D01*
X92945423Y-64534577D01*
X93297758Y-64770000D01*
X92945423Y-65005423D01*
X92628260Y-65480091D01*
X92516887Y-66040000D01*
X92628260Y-66599909D01*
X92945423Y-67074577D01*
X93297758Y-67310000D01*
X92945423Y-67545423D01*
X92628260Y-68020091D01*
X92516887Y-68580000D01*
X92628260Y-69139909D01*
X92945423Y-69614577D01*
X93297758Y-69850000D01*
X92945423Y-70085423D01*
X92628260Y-70560091D01*
X92516887Y-71120000D01*
X92628260Y-71679909D01*
X92945423Y-72154577D01*
X93297758Y-72390000D01*
X92945423Y-72625423D01*
X92628260Y-73100091D01*
X92516887Y-73660000D01*
X92628260Y-74219909D01*
X92945423Y-74694577D01*
X93297758Y-74930000D01*
X92945423Y-75165423D01*
X92628260Y-75640091D01*
X92516887Y-76200000D01*
X92628260Y-76759909D01*
X92945423Y-77234577D01*
X93329108Y-77490947D01*
X93124866Y-77587611D01*
X92748959Y-78002577D01*
X92588096Y-78390961D01*
X92710085Y-78613000D01*
X93853000Y-78613000D01*
X93853000Y-78593000D01*
X94107000Y-78593000D01*
X94107000Y-78613000D01*
X95249915Y-78613000D01*
X95371904Y-78390961D01*
X95211041Y-78002577D01*
X94835134Y-77587611D01*
X94630892Y-77490947D01*
X95014577Y-77234577D01*
X95331740Y-76759909D01*
X95443113Y-76200000D01*
X95331740Y-75640091D01*
X95014577Y-75165423D01*
X94662242Y-74930000D01*
X95014577Y-74694577D01*
X95331740Y-74219909D01*
X95443113Y-73660000D01*
X95331740Y-73100091D01*
X95144006Y-72819126D01*
X98660000Y-72819126D01*
X98660000Y-73230874D01*
X98817569Y-73611280D01*
X98935001Y-73728712D01*
X98935000Y-79941289D01*
X98817569Y-80058720D01*
X98660000Y-80439126D01*
X98660000Y-80850874D01*
X98817569Y-81231280D01*
X99108720Y-81522431D01*
X99489126Y-81680000D01*
X99900874Y-81680000D01*
X100281280Y-81522431D01*
X100572431Y-81231280D01*
X100730000Y-80850874D01*
X100730000Y-80439126D01*
X100572431Y-80058720D01*
X100455000Y-79941289D01*
X100455000Y-78740000D01*
X107756887Y-78740000D01*
X107868260Y-79299909D01*
X108185423Y-79774577D01*
X108537758Y-80010000D01*
X108185423Y-80245423D01*
X107868260Y-80720091D01*
X107756887Y-81280000D01*
X107868260Y-81839909D01*
X108185423Y-82314577D01*
X108537758Y-82550000D01*
X108185423Y-82785423D01*
X107868260Y-83260091D01*
X107756887Y-83820000D01*
X107868260Y-84379909D01*
X108185423Y-84854577D01*
X108537758Y-85090000D01*
X108185423Y-85325423D01*
X107868260Y-85800091D01*
X107756887Y-86360000D01*
X107868260Y-86919909D01*
X108185423Y-87394577D01*
X108537758Y-87630000D01*
X108185423Y-87865423D01*
X107868260Y-88340091D01*
X107756887Y-88900000D01*
X107868260Y-89459909D01*
X108185423Y-89934577D01*
X108537758Y-90170000D01*
X108185423Y-90405423D01*
X107868260Y-90880091D01*
X107756887Y-91440000D01*
X107868260Y-91999909D01*
X108185423Y-92474577D01*
X108537758Y-92710000D01*
X108185423Y-92945423D01*
X107868260Y-93420091D01*
X107756887Y-93980000D01*
X107868260Y-94539909D01*
X108185423Y-95014577D01*
X108537758Y-95250000D01*
X108185423Y-95485423D01*
X107868260Y-95960091D01*
X107756887Y-96520000D01*
X107868260Y-97079909D01*
X108185423Y-97554577D01*
X108537758Y-97790000D01*
X108185423Y-98025423D01*
X107868260Y-98500091D01*
X107756887Y-99060000D01*
X107868260Y-99619909D01*
X108185423Y-100094577D01*
X108537758Y-100330000D01*
X108185423Y-100565423D01*
X107868260Y-101040091D01*
X107756887Y-101600000D01*
X107868260Y-102159909D01*
X108185423Y-102634577D01*
X108660091Y-102951740D01*
X109078667Y-103035000D01*
X109361333Y-103035000D01*
X109779909Y-102951740D01*
X110254577Y-102634577D01*
X110571740Y-102159909D01*
X110683113Y-101600000D01*
X110571740Y-101040091D01*
X110254577Y-100565423D01*
X109902242Y-100330000D01*
X110254577Y-100094577D01*
X110571740Y-99619909D01*
X110683113Y-99060000D01*
X110571740Y-98500091D01*
X110254577Y-98025423D01*
X109902242Y-97790000D01*
X110254577Y-97554577D01*
X110571740Y-97079909D01*
X110683113Y-96520000D01*
X110571740Y-95960091D01*
X110254577Y-95485423D01*
X109902242Y-95250000D01*
X110254577Y-95014577D01*
X110571740Y-94539909D01*
X110683113Y-93980000D01*
X110571740Y-93420091D01*
X110254577Y-92945423D01*
X109902242Y-92710000D01*
X110254577Y-92474577D01*
X110571740Y-91999909D01*
X110683113Y-91440000D01*
X110571740Y-90880091D01*
X110254577Y-90405423D01*
X109902242Y-90170000D01*
X110254577Y-89934577D01*
X110571740Y-89459909D01*
X110683113Y-88900000D01*
X110571740Y-88340091D01*
X110254577Y-87865423D01*
X109902242Y-87630000D01*
X110254577Y-87394577D01*
X110571740Y-86919909D01*
X110683113Y-86360000D01*
X110571740Y-85800091D01*
X110254577Y-85325423D01*
X109902242Y-85090000D01*
X110254577Y-84854577D01*
X110571740Y-84379909D01*
X110683113Y-83820000D01*
X110571740Y-83260091D01*
X110254577Y-82785423D01*
X109902242Y-82550000D01*
X110254577Y-82314577D01*
X110571740Y-81839909D01*
X110683113Y-81280000D01*
X115325908Y-81280000D01*
X115441161Y-81859418D01*
X115769375Y-82350625D01*
X115787619Y-82362816D01*
X115742235Y-82371843D01*
X115532191Y-82512191D01*
X115391843Y-82722235D01*
X115342560Y-82970000D01*
X115342560Y-84670000D01*
X115391843Y-84917765D01*
X115532191Y-85127809D01*
X115742235Y-85268157D01*
X115990000Y-85317440D01*
X117690000Y-85317440D01*
X117937765Y-85268157D01*
X118110000Y-85153072D01*
X118282235Y-85268157D01*
X118445000Y-85300533D01*
X118445001Y-95358753D01*
X118309375Y-95449375D01*
X118110000Y-95747761D01*
X117910625Y-95449375D01*
X117419418Y-95121161D01*
X116986256Y-95035000D01*
X116693744Y-95035000D01*
X116260582Y-95121161D01*
X115769375Y-95449375D01*
X115441161Y-95940582D01*
X115325908Y-96520000D01*
X115441161Y-97099418D01*
X115769375Y-97590625D01*
X115787619Y-97602816D01*
X115742235Y-97611843D01*
X115532191Y-97752191D01*
X115391843Y-97962235D01*
X115342560Y-98210000D01*
X115342560Y-99910000D01*
X115391843Y-100157765D01*
X115532191Y-100367809D01*
X115742235Y-100508157D01*
X115990000Y-100557440D01*
X117690000Y-100557440D01*
X117937765Y-100508157D01*
X118110000Y-100393072D01*
X118282235Y-100508157D01*
X118530000Y-100557440D01*
X120230000Y-100557440D01*
X120477765Y-100508157D01*
X120653025Y-100391051D01*
X120710302Y-100448327D01*
X120943691Y-100545000D01*
X121634250Y-100545000D01*
X121793000Y-100386250D01*
X121793000Y-99187000D01*
X122047000Y-99187000D01*
X122047000Y-100386250D01*
X122205750Y-100545000D01*
X122896309Y-100545000D01*
X123129698Y-100448327D01*
X123308327Y-100269699D01*
X123405000Y-100036310D01*
X123405000Y-99409039D01*
X132193096Y-99409039D01*
X132210633Y-99491819D01*
X132480500Y-99984896D01*
X132918517Y-100337166D01*
X133458000Y-100495000D01*
X133858000Y-100495000D01*
X133858000Y-99187000D01*
X134112000Y-99187000D01*
X134112000Y-100495000D01*
X134512000Y-100495000D01*
X135051483Y-100337166D01*
X135489500Y-99984896D01*
X135759367Y-99491819D01*
X135776904Y-99409039D01*
X139813096Y-99409039D01*
X139830633Y-99491819D01*
X140100500Y-99984896D01*
X140538517Y-100337166D01*
X141078000Y-100495000D01*
X141478000Y-100495000D01*
X141478000Y-99187000D01*
X141732000Y-99187000D01*
X141732000Y-100495000D01*
X142132000Y-100495000D01*
X142671483Y-100337166D01*
X143109500Y-99984896D01*
X143379367Y-99491819D01*
X143396904Y-99409039D01*
X143274915Y-99187000D01*
X141732000Y-99187000D01*
X141478000Y-99187000D01*
X139935085Y-99187000D01*
X139813096Y-99409039D01*
X135776904Y-99409039D01*
X135654915Y-99187000D01*
X134112000Y-99187000D01*
X133858000Y-99187000D01*
X132315085Y-99187000D01*
X132193096Y-99409039D01*
X123405000Y-99409039D01*
X123405000Y-99345750D01*
X123246250Y-99187000D01*
X122047000Y-99187000D01*
X121793000Y-99187000D01*
X121773000Y-99187000D01*
X121773000Y-98933000D01*
X121793000Y-98933000D01*
X121793000Y-96647000D01*
X122047000Y-96647000D01*
X122047000Y-98933000D01*
X123246250Y-98933000D01*
X123405000Y-98774250D01*
X123405000Y-98083690D01*
X123308327Y-97850301D01*
X123129698Y-97671673D01*
X122920122Y-97584864D01*
X123191645Y-97286924D01*
X123361476Y-96876890D01*
X123240155Y-96647000D01*
X122047000Y-96647000D01*
X121793000Y-96647000D01*
X121773000Y-96647000D01*
X121773000Y-96393000D01*
X121793000Y-96393000D01*
X121793000Y-95199181D01*
X122047000Y-95199181D01*
X122047000Y-96393000D01*
X123240155Y-96393000D01*
X123361476Y-96163110D01*
X123191645Y-95753076D01*
X122801358Y-95324817D01*
X122276892Y-95078514D01*
X122047000Y-95199181D01*
X121793000Y-95199181D01*
X121563108Y-95078514D01*
X121038642Y-95324817D01*
X120651353Y-95749786D01*
X120450625Y-95449375D01*
X120315000Y-95358753D01*
X120315000Y-93980000D01*
X132121887Y-93980000D01*
X132233260Y-94539909D01*
X132550423Y-95014577D01*
X132902758Y-95250000D01*
X132550423Y-95485423D01*
X132233260Y-95960091D01*
X132121887Y-96520000D01*
X132233260Y-97079909D01*
X132550423Y-97554577D01*
X132906499Y-97792499D01*
X132480500Y-98135104D01*
X132210633Y-98628181D01*
X132193096Y-98710961D01*
X132315085Y-98933000D01*
X133858000Y-98933000D01*
X133858000Y-98913000D01*
X134112000Y-98913000D01*
X134112000Y-98933000D01*
X135654915Y-98933000D01*
X135776904Y-98710961D01*
X135759367Y-98628181D01*
X135489500Y-98135104D01*
X135063501Y-97792499D01*
X135419577Y-97554577D01*
X135736740Y-97079909D01*
X135848113Y-96520000D01*
X135736740Y-95960091D01*
X135419577Y-95485423D01*
X135067242Y-95250000D01*
X135419577Y-95014577D01*
X135736740Y-94539909D01*
X135848113Y-93980000D01*
X135736740Y-93420091D01*
X135419577Y-92945423D01*
X135298894Y-92864785D01*
X135432765Y-92838157D01*
X135642809Y-92697809D01*
X135783157Y-92487765D01*
X135832440Y-92240000D01*
X135832440Y-91440000D01*
X139741887Y-91440000D01*
X139853260Y-91999909D01*
X140170423Y-92474577D01*
X140522758Y-92710000D01*
X140170423Y-92945423D01*
X139853260Y-93420091D01*
X139741887Y-93980000D01*
X139853260Y-94539909D01*
X140170423Y-95014577D01*
X140522758Y-95250000D01*
X140170423Y-95485423D01*
X139853260Y-95960091D01*
X139741887Y-96520000D01*
X139853260Y-97079909D01*
X140170423Y-97554577D01*
X140526499Y-97792499D01*
X140100500Y-98135104D01*
X139830633Y-98628181D01*
X139813096Y-98710961D01*
X139935085Y-98933000D01*
X141478000Y-98933000D01*
X141478000Y-98913000D01*
X141732000Y-98913000D01*
X141732000Y-98933000D01*
X143274915Y-98933000D01*
X143396904Y-98710961D01*
X143379367Y-98628181D01*
X143109500Y-98135104D01*
X142683501Y-97792499D01*
X143039577Y-97554577D01*
X143106112Y-97455000D01*
X147567711Y-97455000D01*
X149012730Y-98900020D01*
X148980908Y-99060000D01*
X149096161Y-99639418D01*
X149424375Y-100130625D01*
X149442619Y-100142816D01*
X149397235Y-100151843D01*
X149187191Y-100292191D01*
X149046843Y-100502235D01*
X148997560Y-100750000D01*
X148997560Y-102450000D01*
X149046843Y-102697765D01*
X149187191Y-102907809D01*
X149397235Y-103048157D01*
X149645000Y-103097440D01*
X151345000Y-103097440D01*
X151592765Y-103048157D01*
X151802809Y-102907809D01*
X151943157Y-102697765D01*
X151992440Y-102450000D01*
X151992440Y-100750000D01*
X151943157Y-100502235D01*
X151802809Y-100292191D01*
X151592765Y-100151843D01*
X151547381Y-100142816D01*
X151565625Y-100130625D01*
X151893839Y-99639418D01*
X152009092Y-99060000D01*
X151893839Y-98480582D01*
X151565625Y-97989375D01*
X151074418Y-97661161D01*
X150641256Y-97575000D01*
X150348744Y-97575000D01*
X150335020Y-97577730D01*
X148681261Y-95923972D01*
X148629097Y-95845903D01*
X148319819Y-95639250D01*
X148047086Y-95585000D01*
X147955000Y-95566683D01*
X147862914Y-95585000D01*
X143106112Y-95585000D01*
X143039577Y-95485423D01*
X142687242Y-95250000D01*
X143039577Y-95014577D01*
X143356740Y-94539909D01*
X143468113Y-93980000D01*
X143356740Y-93420091D01*
X143039577Y-92945423D01*
X142687242Y-92710000D01*
X143039577Y-92474577D01*
X143356740Y-91999909D01*
X143468113Y-91440000D01*
X143356740Y-90880091D01*
X143039577Y-90405423D01*
X142564909Y-90088260D01*
X142146333Y-90005000D01*
X141063667Y-90005000D01*
X140645091Y-90088260D01*
X140170423Y-90405423D01*
X139853260Y-90880091D01*
X139741887Y-91440000D01*
X135832440Y-91440000D01*
X135832440Y-90640000D01*
X135783157Y-90392235D01*
X135642809Y-90182191D01*
X135432765Y-90041843D01*
X135185000Y-89992560D01*
X132785000Y-89992560D01*
X132537235Y-90041843D01*
X132327191Y-90182191D01*
X132186843Y-90392235D01*
X132137560Y-90640000D01*
X132137560Y-92240000D01*
X132186843Y-92487765D01*
X132327191Y-92697809D01*
X132537235Y-92838157D01*
X132671106Y-92864785D01*
X132550423Y-92945423D01*
X132233260Y-93420091D01*
X132121887Y-93980000D01*
X120315000Y-93980000D01*
X120315000Y-86709039D01*
X132193096Y-86709039D01*
X132210633Y-86791819D01*
X132480500Y-87284896D01*
X132918517Y-87637166D01*
X133458000Y-87795000D01*
X133858000Y-87795000D01*
X133858000Y-86487000D01*
X134112000Y-86487000D01*
X134112000Y-87795000D01*
X134512000Y-87795000D01*
X135051483Y-87637166D01*
X135489500Y-87284896D01*
X135759367Y-86791819D01*
X135776904Y-86709039D01*
X139813096Y-86709039D01*
X139830633Y-86791819D01*
X140100500Y-87284896D01*
X140538517Y-87637166D01*
X141078000Y-87795000D01*
X141478000Y-87795000D01*
X141478000Y-86487000D01*
X141732000Y-86487000D01*
X141732000Y-87795000D01*
X142132000Y-87795000D01*
X142671483Y-87637166D01*
X143109500Y-87284896D01*
X143379367Y-86791819D01*
X143396904Y-86709039D01*
X143274915Y-86487000D01*
X141732000Y-86487000D01*
X141478000Y-86487000D01*
X139935085Y-86487000D01*
X139813096Y-86709039D01*
X135776904Y-86709039D01*
X135654915Y-86487000D01*
X134112000Y-86487000D01*
X133858000Y-86487000D01*
X132315085Y-86487000D01*
X132193096Y-86709039D01*
X120315000Y-86709039D01*
X120315000Y-85300533D01*
X120477765Y-85268157D01*
X120653025Y-85151051D01*
X120710302Y-85208327D01*
X120943691Y-85305000D01*
X121634250Y-85305000D01*
X121793000Y-85146250D01*
X121793000Y-83947000D01*
X122047000Y-83947000D01*
X122047000Y-85146250D01*
X122205750Y-85305000D01*
X122896309Y-85305000D01*
X123129698Y-85208327D01*
X123308327Y-85029699D01*
X123405000Y-84796310D01*
X123405000Y-84105750D01*
X123246250Y-83947000D01*
X122047000Y-83947000D01*
X121793000Y-83947000D01*
X121773000Y-83947000D01*
X121773000Y-83693000D01*
X121793000Y-83693000D01*
X121793000Y-81407000D01*
X122047000Y-81407000D01*
X122047000Y-83693000D01*
X123246250Y-83693000D01*
X123405000Y-83534250D01*
X123405000Y-82843690D01*
X123308327Y-82610301D01*
X123129698Y-82431673D01*
X122920122Y-82344864D01*
X123191645Y-82046924D01*
X123361476Y-81636890D01*
X123240155Y-81407000D01*
X122047000Y-81407000D01*
X121793000Y-81407000D01*
X121773000Y-81407000D01*
X121773000Y-81280000D01*
X132121887Y-81280000D01*
X132233260Y-81839909D01*
X132550423Y-82314577D01*
X132902758Y-82550000D01*
X132550423Y-82785423D01*
X132233260Y-83260091D01*
X132121887Y-83820000D01*
X132233260Y-84379909D01*
X132550423Y-84854577D01*
X132906499Y-85092499D01*
X132480500Y-85435104D01*
X132210633Y-85928181D01*
X132193096Y-86010961D01*
X132315085Y-86233000D01*
X133858000Y-86233000D01*
X133858000Y-86213000D01*
X134112000Y-86213000D01*
X134112000Y-86233000D01*
X135654915Y-86233000D01*
X135776904Y-86010961D01*
X135759367Y-85928181D01*
X135489500Y-85435104D01*
X135063501Y-85092499D01*
X135419577Y-84854577D01*
X135736740Y-84379909D01*
X135848113Y-83820000D01*
X135736740Y-83260091D01*
X135419577Y-82785423D01*
X135067242Y-82550000D01*
X135419577Y-82314577D01*
X135736740Y-81839909D01*
X135848113Y-81280000D01*
X135736740Y-80720091D01*
X135419577Y-80245423D01*
X135298894Y-80164785D01*
X135432765Y-80138157D01*
X135642809Y-79997809D01*
X135783157Y-79787765D01*
X135832440Y-79540000D01*
X135832440Y-77940000D01*
X135783157Y-77692235D01*
X135642809Y-77482191D01*
X135432765Y-77341843D01*
X135185000Y-77292560D01*
X132785000Y-77292560D01*
X132537235Y-77341843D01*
X132327191Y-77482191D01*
X132186843Y-77692235D01*
X132137560Y-77940000D01*
X132137560Y-79540000D01*
X132186843Y-79787765D01*
X132327191Y-79997809D01*
X132537235Y-80138157D01*
X132671106Y-80164785D01*
X132550423Y-80245423D01*
X132233260Y-80720091D01*
X132121887Y-81280000D01*
X121773000Y-81280000D01*
X121773000Y-81153000D01*
X121793000Y-81153000D01*
X121793000Y-79959181D01*
X122047000Y-79959181D01*
X122047000Y-81153000D01*
X123240155Y-81153000D01*
X123361476Y-80923110D01*
X123191645Y-80513076D01*
X122801358Y-80084817D01*
X122276892Y-79838514D01*
X122047000Y-79959181D01*
X121793000Y-79959181D01*
X121563108Y-79838514D01*
X121038642Y-80084817D01*
X120651353Y-80509786D01*
X120450625Y-80209375D01*
X119959418Y-79881161D01*
X119526256Y-79795000D01*
X119233744Y-79795000D01*
X118800582Y-79881161D01*
X118309375Y-80209375D01*
X118110000Y-80507761D01*
X117910625Y-80209375D01*
X117419418Y-79881161D01*
X116986256Y-79795000D01*
X116693744Y-79795000D01*
X116260582Y-79881161D01*
X115769375Y-80209375D01*
X115441161Y-80700582D01*
X115325908Y-81280000D01*
X110683113Y-81280000D01*
X110571740Y-80720091D01*
X110254577Y-80245423D01*
X109902242Y-80010000D01*
X110254577Y-79774577D01*
X110571740Y-79299909D01*
X110683113Y-78740000D01*
X110571740Y-78180091D01*
X110254577Y-77705423D01*
X109870892Y-77449053D01*
X110075134Y-77352389D01*
X110451041Y-76937423D01*
X110611904Y-76549039D01*
X110489915Y-76327000D01*
X109347000Y-76327000D01*
X109347000Y-76347000D01*
X109093000Y-76347000D01*
X109093000Y-76327000D01*
X107950085Y-76327000D01*
X107828096Y-76549039D01*
X107988959Y-76937423D01*
X108364866Y-77352389D01*
X108569108Y-77449053D01*
X108185423Y-77705423D01*
X107868260Y-78180091D01*
X107756887Y-78740000D01*
X100455000Y-78740000D01*
X100455000Y-73728711D01*
X100572431Y-73611280D01*
X100730000Y-73230874D01*
X100730000Y-72819126D01*
X100572431Y-72438720D01*
X100281280Y-72147569D01*
X99900874Y-71990000D01*
X99489126Y-71990000D01*
X99108720Y-72147569D01*
X98817569Y-72438720D01*
X98660000Y-72819126D01*
X95144006Y-72819126D01*
X95014577Y-72625423D01*
X94662242Y-72390000D01*
X95014577Y-72154577D01*
X95331740Y-71679909D01*
X95443113Y-71120000D01*
X95331740Y-70560091D01*
X95014577Y-70085423D01*
X94662242Y-69850000D01*
X95014577Y-69614577D01*
X95331740Y-69139909D01*
X95443113Y-68580000D01*
X95331740Y-68020091D01*
X95014577Y-67545423D01*
X94662242Y-67310000D01*
X95014577Y-67074577D01*
X95331740Y-66599909D01*
X95443113Y-66040000D01*
X95331740Y-65480091D01*
X95014577Y-65005423D01*
X94662242Y-64770000D01*
X95014577Y-64534577D01*
X95331740Y-64059909D01*
X95443113Y-63500000D01*
X95331740Y-62940091D01*
X95014577Y-62465423D01*
X94662242Y-62230000D01*
X95014577Y-61994577D01*
X95331740Y-61519909D01*
X95443113Y-60960000D01*
X95331740Y-60400091D01*
X95014577Y-59925423D01*
X94662242Y-59690000D01*
X95014577Y-59454577D01*
X95331740Y-58979909D01*
X95443113Y-58420000D01*
X95331740Y-57860091D01*
X95014577Y-57385423D01*
X94662242Y-57150000D01*
X95014577Y-56914577D01*
X95331740Y-56439909D01*
X95443113Y-55880000D01*
X95331740Y-55320091D01*
X95014577Y-54845423D01*
X94893894Y-54764785D01*
X95027765Y-54738157D01*
X95237809Y-54597809D01*
X95378157Y-54387765D01*
X95427440Y-54140000D01*
X95427440Y-53340000D01*
X107756887Y-53340000D01*
X107868260Y-53899909D01*
X108185423Y-54374577D01*
X108537758Y-54610000D01*
X108185423Y-54845423D01*
X107868260Y-55320091D01*
X107756887Y-55880000D01*
X107868260Y-56439909D01*
X108185423Y-56914577D01*
X108537758Y-57150000D01*
X108185423Y-57385423D01*
X107868260Y-57860091D01*
X107756887Y-58420000D01*
X107868260Y-58979909D01*
X108185423Y-59454577D01*
X108537758Y-59690000D01*
X108185423Y-59925423D01*
X107868260Y-60400091D01*
X107756887Y-60960000D01*
X107868260Y-61519909D01*
X108185423Y-61994577D01*
X108537758Y-62230000D01*
X108185423Y-62465423D01*
X107868260Y-62940091D01*
X107756887Y-63500000D01*
X107868260Y-64059909D01*
X108185423Y-64534577D01*
X108537758Y-64770000D01*
X108185423Y-65005423D01*
X107868260Y-65480091D01*
X107756887Y-66040000D01*
X107868260Y-66599909D01*
X108185423Y-67074577D01*
X108537758Y-67310000D01*
X108185423Y-67545423D01*
X107868260Y-68020091D01*
X107756887Y-68580000D01*
X107868260Y-69139909D01*
X108185423Y-69614577D01*
X108537758Y-69850000D01*
X108185423Y-70085423D01*
X107868260Y-70560091D01*
X107756887Y-71120000D01*
X107868260Y-71679909D01*
X108185423Y-72154577D01*
X108537758Y-72390000D01*
X108185423Y-72625423D01*
X107868260Y-73100091D01*
X107756887Y-73660000D01*
X107868260Y-74219909D01*
X108185423Y-74694577D01*
X108569108Y-74950947D01*
X108364866Y-75047611D01*
X107988959Y-75462577D01*
X107828096Y-75850961D01*
X107950085Y-76073000D01*
X109093000Y-76073000D01*
X109093000Y-76053000D01*
X109347000Y-76053000D01*
X109347000Y-76073000D01*
X110489915Y-76073000D01*
X110611904Y-75850961D01*
X110451041Y-75462577D01*
X110075134Y-75047611D01*
X109870892Y-74950947D01*
X110254577Y-74694577D01*
X110571740Y-74219909D01*
X110613684Y-74009039D01*
X132193096Y-74009039D01*
X132210633Y-74091819D01*
X132480500Y-74584896D01*
X132918517Y-74937166D01*
X133458000Y-75095000D01*
X133858000Y-75095000D01*
X133858000Y-73787000D01*
X134112000Y-73787000D01*
X134112000Y-75095000D01*
X134512000Y-75095000D01*
X135051483Y-74937166D01*
X135489500Y-74584896D01*
X135759367Y-74091819D01*
X135776904Y-74009039D01*
X139813096Y-74009039D01*
X139830633Y-74091819D01*
X140100500Y-74584896D01*
X140538517Y-74937166D01*
X141078000Y-75095000D01*
X141478000Y-75095000D01*
X141478000Y-73787000D01*
X141732000Y-73787000D01*
X141732000Y-75095000D01*
X142132000Y-75095000D01*
X142671483Y-74937166D01*
X143109500Y-74584896D01*
X143379367Y-74091819D01*
X143396904Y-74009039D01*
X143274915Y-73787000D01*
X141732000Y-73787000D01*
X141478000Y-73787000D01*
X139935085Y-73787000D01*
X139813096Y-74009039D01*
X135776904Y-74009039D01*
X135654915Y-73787000D01*
X134112000Y-73787000D01*
X133858000Y-73787000D01*
X132315085Y-73787000D01*
X132193096Y-74009039D01*
X110613684Y-74009039D01*
X110683113Y-73660000D01*
X110571740Y-73100091D01*
X110254577Y-72625423D01*
X109902242Y-72390000D01*
X110254577Y-72154577D01*
X110571740Y-71679909D01*
X110683113Y-71120000D01*
X110571740Y-70560091D01*
X110254577Y-70085423D01*
X109902242Y-69850000D01*
X110254577Y-69614577D01*
X110571740Y-69139909D01*
X110683113Y-68580000D01*
X110571740Y-68020091D01*
X110254577Y-67545423D01*
X109902242Y-67310000D01*
X110254577Y-67074577D01*
X110571740Y-66599909D01*
X110683113Y-66040000D01*
X110571740Y-65480091D01*
X110254577Y-65005423D01*
X109902242Y-64770000D01*
X110254577Y-64534577D01*
X110571740Y-64059909D01*
X110683113Y-63500000D01*
X110571740Y-62940091D01*
X110254577Y-62465423D01*
X109902242Y-62230000D01*
X110254577Y-61994577D01*
X110571740Y-61519909D01*
X110683113Y-60960000D01*
X110571740Y-60400091D01*
X110254577Y-59925423D01*
X109902242Y-59690000D01*
X110254577Y-59454577D01*
X110571740Y-58979909D01*
X110683113Y-58420000D01*
X110571740Y-57860091D01*
X110254577Y-57385423D01*
X109902242Y-57150000D01*
X110254577Y-56914577D01*
X110571740Y-56439909D01*
X110683113Y-55880000D01*
X110571740Y-55320091D01*
X110254577Y-54845423D01*
X109902242Y-54610000D01*
X110254577Y-54374577D01*
X110571740Y-53899909D01*
X110683113Y-53340000D01*
X110571740Y-52780091D01*
X110254577Y-52305423D01*
X109779909Y-51988260D01*
X109361333Y-51905000D01*
X109078667Y-51905000D01*
X108660091Y-51988260D01*
X108185423Y-52305423D01*
X107868260Y-52780091D01*
X107756887Y-53340000D01*
X95427440Y-53340000D01*
X95427440Y-52540000D01*
X95378157Y-52292235D01*
X95237809Y-52082191D01*
X95027765Y-51941843D01*
X94780000Y-51892560D01*
X93180000Y-51892560D01*
X92932235Y-51941843D01*
X92722191Y-52082191D01*
X92581843Y-52292235D01*
X92532560Y-52540000D01*
X92532560Y-54140000D01*
X92581843Y-54387765D01*
X92722191Y-54597809D01*
X92932235Y-54738157D01*
X93066106Y-54764785D01*
X92945423Y-54845423D01*
X92628260Y-55320091D01*
X92516887Y-55880000D01*
X89779092Y-55880000D01*
X89663839Y-55300582D01*
X89335625Y-54809375D01*
X89317381Y-54797184D01*
X89362765Y-54788157D01*
X89572809Y-54647809D01*
X89713157Y-54437765D01*
X89762440Y-54190000D01*
X89762440Y-52490000D01*
X89713157Y-52242235D01*
X89572809Y-52032191D01*
X89362765Y-51891843D01*
X89115000Y-51842560D01*
X87415000Y-51842560D01*
X87167235Y-51891843D01*
X86995000Y-52006928D01*
X86822765Y-51891843D01*
X86575000Y-51842560D01*
X84875000Y-51842560D01*
X84627235Y-51891843D01*
X84451975Y-52008949D01*
X84394698Y-51951673D01*
X84161309Y-51855000D01*
X83470750Y-51855000D01*
X83312000Y-52013750D01*
X83058000Y-52013750D01*
X82899250Y-51855000D01*
X82208691Y-51855000D01*
X81975302Y-51951673D01*
X81796673Y-52130301D01*
X81700000Y-52363690D01*
X76650673Y-52363690D01*
X77112503Y-52005460D01*
X77669461Y-51731402D01*
X78278914Y-51572652D01*
X78417347Y-51562000D01*
X118601557Y-51562000D01*
X118519250Y-51685181D01*
G04 #@! TD*
M02*
