G04 #@! TF.GenerationSoftware,KiCad,Pcbnew,5.0.1-33cea8e~68~ubuntu18.04.1*
G04 #@! TF.CreationDate,2018-11-06T23:46:24+01:00*
G04 #@! TF.ProjectId,microcontrollerBoard,6D6963726F636F6E74726F6C6C657242,rev?*
G04 #@! TF.SameCoordinates,Original*
G04 #@! TF.FileFunction,Copper,L1,Top,Signal*
G04 #@! TF.FilePolarity,Positive*
%FSLAX46Y46*%
G04 Gerber Fmt 4.6, Leading zero omitted, Abs format (unit mm)*
G04 Created by KiCad (PCBNEW 5.0.1-33cea8e~68~ubuntu18.04.1) date mar 06 nov 2018 23:46:24 CET*
%MOMM*%
%LPD*%
G01*
G04 APERTURE LIST*
G04 #@! TA.AperFunction,ComponentPad*
%ADD10R,2.400000X1.600000*%
G04 #@! TD*
G04 #@! TA.AperFunction,ComponentPad*
%ADD11O,2.400000X1.600000*%
G04 #@! TD*
G04 #@! TA.AperFunction,Conductor*
%ADD12C,0.100000*%
G04 #@! TD*
G04 #@! TA.AperFunction,SMDPad,CuDef*
%ADD13C,1.150000*%
G04 #@! TD*
G04 #@! TA.AperFunction,SMDPad,CuDef*
%ADD14R,0.800000X1.000000*%
G04 #@! TD*
G04 #@! TA.AperFunction,ComponentPad*
%ADD15R,1.700000X1.700000*%
G04 #@! TD*
G04 #@! TA.AperFunction,ComponentPad*
%ADD16O,1.700000X1.700000*%
G04 #@! TD*
G04 #@! TA.AperFunction,ComponentPad*
%ADD17R,1.600000X1.600000*%
G04 #@! TD*
G04 #@! TA.AperFunction,ComponentPad*
%ADD18O,1.600000X1.600000*%
G04 #@! TD*
G04 #@! TA.AperFunction,ComponentPad*
%ADD19C,1.500000*%
G04 #@! TD*
G04 #@! TA.AperFunction,ComponentPad*
%ADD20C,1.600000*%
G04 #@! TD*
G04 #@! TA.AperFunction,SMDPad,CuDef*
%ADD21C,0.950000*%
G04 #@! TD*
G04 #@! TA.AperFunction,SMDPad,CuDef*
%ADD22R,3.800000X2.000000*%
G04 #@! TD*
G04 #@! TA.AperFunction,SMDPad,CuDef*
%ADD23R,1.500000X2.000000*%
G04 #@! TD*
G04 #@! TA.AperFunction,ViaPad*
%ADD24C,0.800000*%
G04 #@! TD*
G04 #@! TA.AperFunction,Conductor*
%ADD25C,0.600000*%
G04 #@! TD*
G04 #@! TA.AperFunction,Conductor*
%ADD26C,0.250000*%
G04 #@! TD*
G04 APERTURE END LIST*
D10*
G04 #@! TO.P,U4,1*
G04 #@! TO.N,+BATT*
X133985000Y-78740000D03*
D11*
G04 #@! TO.P,U4,5*
G04 #@! TO.N,GND*
X141605000Y-86360000D03*
G04 #@! TO.P,U4,2*
G04 #@! TO.N,MOTOR2A*
X133985000Y-81280000D03*
G04 #@! TO.P,U4,6*
G04 #@! TO.N,Net-(D5-Pad2)*
X141605000Y-83820000D03*
G04 #@! TO.P,U4,3*
G04 #@! TO.N,Net-(U4-Pad3)*
X133985000Y-83820000D03*
G04 #@! TO.P,U4,7*
G04 #@! TO.N,Net-(D5-Pad2)*
X141605000Y-81280000D03*
G04 #@! TO.P,U4,4*
G04 #@! TO.N,GND*
X133985000Y-86360000D03*
G04 #@! TO.P,U4,8*
G04 #@! TO.N,+BATT*
X141605000Y-78740000D03*
G04 #@! TD*
D12*
G04 #@! TO.N,GND*
G04 #@! TO.C,C1*
G36*
X80849505Y-84391204D02*
X80873773Y-84394804D01*
X80897572Y-84400765D01*
X80920671Y-84409030D01*
X80942850Y-84419520D01*
X80963893Y-84432132D01*
X80983599Y-84446747D01*
X81001777Y-84463223D01*
X81018253Y-84481401D01*
X81032868Y-84501107D01*
X81045480Y-84522150D01*
X81055970Y-84544329D01*
X81064235Y-84567428D01*
X81070196Y-84591227D01*
X81073796Y-84615495D01*
X81075000Y-84639999D01*
X81075000Y-85540001D01*
X81073796Y-85564505D01*
X81070196Y-85588773D01*
X81064235Y-85612572D01*
X81055970Y-85635671D01*
X81045480Y-85657850D01*
X81032868Y-85678893D01*
X81018253Y-85698599D01*
X81001777Y-85716777D01*
X80983599Y-85733253D01*
X80963893Y-85747868D01*
X80942850Y-85760480D01*
X80920671Y-85770970D01*
X80897572Y-85779235D01*
X80873773Y-85785196D01*
X80849505Y-85788796D01*
X80825001Y-85790000D01*
X80174999Y-85790000D01*
X80150495Y-85788796D01*
X80126227Y-85785196D01*
X80102428Y-85779235D01*
X80079329Y-85770970D01*
X80057150Y-85760480D01*
X80036107Y-85747868D01*
X80016401Y-85733253D01*
X79998223Y-85716777D01*
X79981747Y-85698599D01*
X79967132Y-85678893D01*
X79954520Y-85657850D01*
X79944030Y-85635671D01*
X79935765Y-85612572D01*
X79929804Y-85588773D01*
X79926204Y-85564505D01*
X79925000Y-85540001D01*
X79925000Y-84639999D01*
X79926204Y-84615495D01*
X79929804Y-84591227D01*
X79935765Y-84567428D01*
X79944030Y-84544329D01*
X79954520Y-84522150D01*
X79967132Y-84501107D01*
X79981747Y-84481401D01*
X79998223Y-84463223D01*
X80016401Y-84446747D01*
X80036107Y-84432132D01*
X80057150Y-84419520D01*
X80079329Y-84409030D01*
X80102428Y-84400765D01*
X80126227Y-84394804D01*
X80150495Y-84391204D01*
X80174999Y-84390000D01*
X80825001Y-84390000D01*
X80849505Y-84391204D01*
X80849505Y-84391204D01*
G37*
D13*
G04 #@! TD*
G04 #@! TO.P,C1,2*
G04 #@! TO.N,GND*
X80500000Y-85090000D03*
D12*
G04 #@! TO.N,Net-(C1-Pad1)*
G04 #@! TO.C,C1*
G36*
X82899505Y-84391204D02*
X82923773Y-84394804D01*
X82947572Y-84400765D01*
X82970671Y-84409030D01*
X82992850Y-84419520D01*
X83013893Y-84432132D01*
X83033599Y-84446747D01*
X83051777Y-84463223D01*
X83068253Y-84481401D01*
X83082868Y-84501107D01*
X83095480Y-84522150D01*
X83105970Y-84544329D01*
X83114235Y-84567428D01*
X83120196Y-84591227D01*
X83123796Y-84615495D01*
X83125000Y-84639999D01*
X83125000Y-85540001D01*
X83123796Y-85564505D01*
X83120196Y-85588773D01*
X83114235Y-85612572D01*
X83105970Y-85635671D01*
X83095480Y-85657850D01*
X83082868Y-85678893D01*
X83068253Y-85698599D01*
X83051777Y-85716777D01*
X83033599Y-85733253D01*
X83013893Y-85747868D01*
X82992850Y-85760480D01*
X82970671Y-85770970D01*
X82947572Y-85779235D01*
X82923773Y-85785196D01*
X82899505Y-85788796D01*
X82875001Y-85790000D01*
X82224999Y-85790000D01*
X82200495Y-85788796D01*
X82176227Y-85785196D01*
X82152428Y-85779235D01*
X82129329Y-85770970D01*
X82107150Y-85760480D01*
X82086107Y-85747868D01*
X82066401Y-85733253D01*
X82048223Y-85716777D01*
X82031747Y-85698599D01*
X82017132Y-85678893D01*
X82004520Y-85657850D01*
X81994030Y-85635671D01*
X81985765Y-85612572D01*
X81979804Y-85588773D01*
X81976204Y-85564505D01*
X81975000Y-85540001D01*
X81975000Y-84639999D01*
X81976204Y-84615495D01*
X81979804Y-84591227D01*
X81985765Y-84567428D01*
X81994030Y-84544329D01*
X82004520Y-84522150D01*
X82017132Y-84501107D01*
X82031747Y-84481401D01*
X82048223Y-84463223D01*
X82066401Y-84446747D01*
X82086107Y-84432132D01*
X82107150Y-84419520D01*
X82129329Y-84409030D01*
X82152428Y-84400765D01*
X82176227Y-84394804D01*
X82200495Y-84391204D01*
X82224999Y-84390000D01*
X82875001Y-84390000D01*
X82899505Y-84391204D01*
X82899505Y-84391204D01*
G37*
D13*
G04 #@! TD*
G04 #@! TO.P,C1,1*
G04 #@! TO.N,Net-(C1-Pad1)*
X82550000Y-85090000D03*
D12*
G04 #@! TO.N,Net-(C2-Pad1)*
G04 #@! TO.C,C2*
G36*
X82899505Y-81851204D02*
X82923773Y-81854804D01*
X82947572Y-81860765D01*
X82970671Y-81869030D01*
X82992850Y-81879520D01*
X83013893Y-81892132D01*
X83033599Y-81906747D01*
X83051777Y-81923223D01*
X83068253Y-81941401D01*
X83082868Y-81961107D01*
X83095480Y-81982150D01*
X83105970Y-82004329D01*
X83114235Y-82027428D01*
X83120196Y-82051227D01*
X83123796Y-82075495D01*
X83125000Y-82099999D01*
X83125000Y-83000001D01*
X83123796Y-83024505D01*
X83120196Y-83048773D01*
X83114235Y-83072572D01*
X83105970Y-83095671D01*
X83095480Y-83117850D01*
X83082868Y-83138893D01*
X83068253Y-83158599D01*
X83051777Y-83176777D01*
X83033599Y-83193253D01*
X83013893Y-83207868D01*
X82992850Y-83220480D01*
X82970671Y-83230970D01*
X82947572Y-83239235D01*
X82923773Y-83245196D01*
X82899505Y-83248796D01*
X82875001Y-83250000D01*
X82224999Y-83250000D01*
X82200495Y-83248796D01*
X82176227Y-83245196D01*
X82152428Y-83239235D01*
X82129329Y-83230970D01*
X82107150Y-83220480D01*
X82086107Y-83207868D01*
X82066401Y-83193253D01*
X82048223Y-83176777D01*
X82031747Y-83158599D01*
X82017132Y-83138893D01*
X82004520Y-83117850D01*
X81994030Y-83095671D01*
X81985765Y-83072572D01*
X81979804Y-83048773D01*
X81976204Y-83024505D01*
X81975000Y-83000001D01*
X81975000Y-82099999D01*
X81976204Y-82075495D01*
X81979804Y-82051227D01*
X81985765Y-82027428D01*
X81994030Y-82004329D01*
X82004520Y-81982150D01*
X82017132Y-81961107D01*
X82031747Y-81941401D01*
X82048223Y-81923223D01*
X82066401Y-81906747D01*
X82086107Y-81892132D01*
X82107150Y-81879520D01*
X82129329Y-81869030D01*
X82152428Y-81860765D01*
X82176227Y-81854804D01*
X82200495Y-81851204D01*
X82224999Y-81850000D01*
X82875001Y-81850000D01*
X82899505Y-81851204D01*
X82899505Y-81851204D01*
G37*
D13*
G04 #@! TD*
G04 #@! TO.P,C2,1*
G04 #@! TO.N,Net-(C2-Pad1)*
X82550000Y-82550000D03*
D12*
G04 #@! TO.N,GND*
G04 #@! TO.C,C2*
G36*
X80849505Y-81851204D02*
X80873773Y-81854804D01*
X80897572Y-81860765D01*
X80920671Y-81869030D01*
X80942850Y-81879520D01*
X80963893Y-81892132D01*
X80983599Y-81906747D01*
X81001777Y-81923223D01*
X81018253Y-81941401D01*
X81032868Y-81961107D01*
X81045480Y-81982150D01*
X81055970Y-82004329D01*
X81064235Y-82027428D01*
X81070196Y-82051227D01*
X81073796Y-82075495D01*
X81075000Y-82099999D01*
X81075000Y-83000001D01*
X81073796Y-83024505D01*
X81070196Y-83048773D01*
X81064235Y-83072572D01*
X81055970Y-83095671D01*
X81045480Y-83117850D01*
X81032868Y-83138893D01*
X81018253Y-83158599D01*
X81001777Y-83176777D01*
X80983599Y-83193253D01*
X80963893Y-83207868D01*
X80942850Y-83220480D01*
X80920671Y-83230970D01*
X80897572Y-83239235D01*
X80873773Y-83245196D01*
X80849505Y-83248796D01*
X80825001Y-83250000D01*
X80174999Y-83250000D01*
X80150495Y-83248796D01*
X80126227Y-83245196D01*
X80102428Y-83239235D01*
X80079329Y-83230970D01*
X80057150Y-83220480D01*
X80036107Y-83207868D01*
X80016401Y-83193253D01*
X79998223Y-83176777D01*
X79981747Y-83158599D01*
X79967132Y-83138893D01*
X79954520Y-83117850D01*
X79944030Y-83095671D01*
X79935765Y-83072572D01*
X79929804Y-83048773D01*
X79926204Y-83024505D01*
X79925000Y-83000001D01*
X79925000Y-82099999D01*
X79926204Y-82075495D01*
X79929804Y-82051227D01*
X79935765Y-82027428D01*
X79944030Y-82004329D01*
X79954520Y-81982150D01*
X79967132Y-81961107D01*
X79981747Y-81941401D01*
X79998223Y-81923223D01*
X80016401Y-81906747D01*
X80036107Y-81892132D01*
X80057150Y-81879520D01*
X80079329Y-81869030D01*
X80102428Y-81860765D01*
X80126227Y-81854804D01*
X80150495Y-81851204D01*
X80174999Y-81850000D01*
X80825001Y-81850000D01*
X80849505Y-81851204D01*
X80849505Y-81851204D01*
G37*
D13*
G04 #@! TD*
G04 #@! TO.P,C2,2*
G04 #@! TO.N,GND*
X80500000Y-82550000D03*
D12*
G04 #@! TO.N,+5V*
G04 #@! TO.C,C3*
G36*
X99534505Y-75626204D02*
X99558773Y-75629804D01*
X99582572Y-75635765D01*
X99605671Y-75644030D01*
X99627850Y-75654520D01*
X99648893Y-75667132D01*
X99668599Y-75681747D01*
X99686777Y-75698223D01*
X99703253Y-75716401D01*
X99717868Y-75736107D01*
X99730480Y-75757150D01*
X99740970Y-75779329D01*
X99749235Y-75802428D01*
X99755196Y-75826227D01*
X99758796Y-75850495D01*
X99760000Y-75874999D01*
X99760000Y-76525001D01*
X99758796Y-76549505D01*
X99755196Y-76573773D01*
X99749235Y-76597572D01*
X99740970Y-76620671D01*
X99730480Y-76642850D01*
X99717868Y-76663893D01*
X99703253Y-76683599D01*
X99686777Y-76701777D01*
X99668599Y-76718253D01*
X99648893Y-76732868D01*
X99627850Y-76745480D01*
X99605671Y-76755970D01*
X99582572Y-76764235D01*
X99558773Y-76770196D01*
X99534505Y-76773796D01*
X99510001Y-76775000D01*
X98609999Y-76775000D01*
X98585495Y-76773796D01*
X98561227Y-76770196D01*
X98537428Y-76764235D01*
X98514329Y-76755970D01*
X98492150Y-76745480D01*
X98471107Y-76732868D01*
X98451401Y-76718253D01*
X98433223Y-76701777D01*
X98416747Y-76683599D01*
X98402132Y-76663893D01*
X98389520Y-76642850D01*
X98379030Y-76620671D01*
X98370765Y-76597572D01*
X98364804Y-76573773D01*
X98361204Y-76549505D01*
X98360000Y-76525001D01*
X98360000Y-75874999D01*
X98361204Y-75850495D01*
X98364804Y-75826227D01*
X98370765Y-75802428D01*
X98379030Y-75779329D01*
X98389520Y-75757150D01*
X98402132Y-75736107D01*
X98416747Y-75716401D01*
X98433223Y-75698223D01*
X98451401Y-75681747D01*
X98471107Y-75667132D01*
X98492150Y-75654520D01*
X98514329Y-75644030D01*
X98537428Y-75635765D01*
X98561227Y-75629804D01*
X98585495Y-75626204D01*
X98609999Y-75625000D01*
X99510001Y-75625000D01*
X99534505Y-75626204D01*
X99534505Y-75626204D01*
G37*
D13*
G04 #@! TD*
G04 #@! TO.P,C3,1*
G04 #@! TO.N,+5V*
X99060000Y-76200000D03*
D12*
G04 #@! TO.N,GND*
G04 #@! TO.C,C3*
G36*
X99534505Y-77676204D02*
X99558773Y-77679804D01*
X99582572Y-77685765D01*
X99605671Y-77694030D01*
X99627850Y-77704520D01*
X99648893Y-77717132D01*
X99668599Y-77731747D01*
X99686777Y-77748223D01*
X99703253Y-77766401D01*
X99717868Y-77786107D01*
X99730480Y-77807150D01*
X99740970Y-77829329D01*
X99749235Y-77852428D01*
X99755196Y-77876227D01*
X99758796Y-77900495D01*
X99760000Y-77924999D01*
X99760000Y-78575001D01*
X99758796Y-78599505D01*
X99755196Y-78623773D01*
X99749235Y-78647572D01*
X99740970Y-78670671D01*
X99730480Y-78692850D01*
X99717868Y-78713893D01*
X99703253Y-78733599D01*
X99686777Y-78751777D01*
X99668599Y-78768253D01*
X99648893Y-78782868D01*
X99627850Y-78795480D01*
X99605671Y-78805970D01*
X99582572Y-78814235D01*
X99558773Y-78820196D01*
X99534505Y-78823796D01*
X99510001Y-78825000D01*
X98609999Y-78825000D01*
X98585495Y-78823796D01*
X98561227Y-78820196D01*
X98537428Y-78814235D01*
X98514329Y-78805970D01*
X98492150Y-78795480D01*
X98471107Y-78782868D01*
X98451401Y-78768253D01*
X98433223Y-78751777D01*
X98416747Y-78733599D01*
X98402132Y-78713893D01*
X98389520Y-78692850D01*
X98379030Y-78670671D01*
X98370765Y-78647572D01*
X98364804Y-78623773D01*
X98361204Y-78599505D01*
X98360000Y-78575001D01*
X98360000Y-77924999D01*
X98361204Y-77900495D01*
X98364804Y-77876227D01*
X98370765Y-77852428D01*
X98379030Y-77829329D01*
X98389520Y-77807150D01*
X98402132Y-77786107D01*
X98416747Y-77766401D01*
X98433223Y-77748223D01*
X98451401Y-77731747D01*
X98471107Y-77717132D01*
X98492150Y-77704520D01*
X98514329Y-77694030D01*
X98537428Y-77685765D01*
X98561227Y-77679804D01*
X98585495Y-77676204D01*
X98609999Y-77675000D01*
X99510001Y-77675000D01*
X99534505Y-77676204D01*
X99534505Y-77676204D01*
G37*
D13*
G04 #@! TD*
G04 #@! TO.P,C3,2*
G04 #@! TO.N,GND*
X99060000Y-78250000D03*
D12*
G04 #@! TO.N,+5V*
G04 #@! TO.C,D1*
G36*
X132429505Y-57086204D02*
X132453773Y-57089804D01*
X132477572Y-57095765D01*
X132500671Y-57104030D01*
X132522850Y-57114520D01*
X132543893Y-57127132D01*
X132563599Y-57141747D01*
X132581777Y-57158223D01*
X132598253Y-57176401D01*
X132612868Y-57196107D01*
X132625480Y-57217150D01*
X132635970Y-57239329D01*
X132644235Y-57262428D01*
X132650196Y-57286227D01*
X132653796Y-57310495D01*
X132655000Y-57334999D01*
X132655000Y-58235001D01*
X132653796Y-58259505D01*
X132650196Y-58283773D01*
X132644235Y-58307572D01*
X132635970Y-58330671D01*
X132625480Y-58352850D01*
X132612868Y-58373893D01*
X132598253Y-58393599D01*
X132581777Y-58411777D01*
X132563599Y-58428253D01*
X132543893Y-58442868D01*
X132522850Y-58455480D01*
X132500671Y-58465970D01*
X132477572Y-58474235D01*
X132453773Y-58480196D01*
X132429505Y-58483796D01*
X132405001Y-58485000D01*
X131754999Y-58485000D01*
X131730495Y-58483796D01*
X131706227Y-58480196D01*
X131682428Y-58474235D01*
X131659329Y-58465970D01*
X131637150Y-58455480D01*
X131616107Y-58442868D01*
X131596401Y-58428253D01*
X131578223Y-58411777D01*
X131561747Y-58393599D01*
X131547132Y-58373893D01*
X131534520Y-58352850D01*
X131524030Y-58330671D01*
X131515765Y-58307572D01*
X131509804Y-58283773D01*
X131506204Y-58259505D01*
X131505000Y-58235001D01*
X131505000Y-57334999D01*
X131506204Y-57310495D01*
X131509804Y-57286227D01*
X131515765Y-57262428D01*
X131524030Y-57239329D01*
X131534520Y-57217150D01*
X131547132Y-57196107D01*
X131561747Y-57176401D01*
X131578223Y-57158223D01*
X131596401Y-57141747D01*
X131616107Y-57127132D01*
X131637150Y-57114520D01*
X131659329Y-57104030D01*
X131682428Y-57095765D01*
X131706227Y-57089804D01*
X131730495Y-57086204D01*
X131754999Y-57085000D01*
X132405001Y-57085000D01*
X132429505Y-57086204D01*
X132429505Y-57086204D01*
G37*
D13*
G04 #@! TD*
G04 #@! TO.P,D1,2*
G04 #@! TO.N,+5V*
X132080000Y-57785000D03*
D12*
G04 #@! TO.N,Net-(D1-Pad1)*
G04 #@! TO.C,D1*
G36*
X130379505Y-57086204D02*
X130403773Y-57089804D01*
X130427572Y-57095765D01*
X130450671Y-57104030D01*
X130472850Y-57114520D01*
X130493893Y-57127132D01*
X130513599Y-57141747D01*
X130531777Y-57158223D01*
X130548253Y-57176401D01*
X130562868Y-57196107D01*
X130575480Y-57217150D01*
X130585970Y-57239329D01*
X130594235Y-57262428D01*
X130600196Y-57286227D01*
X130603796Y-57310495D01*
X130605000Y-57334999D01*
X130605000Y-58235001D01*
X130603796Y-58259505D01*
X130600196Y-58283773D01*
X130594235Y-58307572D01*
X130585970Y-58330671D01*
X130575480Y-58352850D01*
X130562868Y-58373893D01*
X130548253Y-58393599D01*
X130531777Y-58411777D01*
X130513599Y-58428253D01*
X130493893Y-58442868D01*
X130472850Y-58455480D01*
X130450671Y-58465970D01*
X130427572Y-58474235D01*
X130403773Y-58480196D01*
X130379505Y-58483796D01*
X130355001Y-58485000D01*
X129704999Y-58485000D01*
X129680495Y-58483796D01*
X129656227Y-58480196D01*
X129632428Y-58474235D01*
X129609329Y-58465970D01*
X129587150Y-58455480D01*
X129566107Y-58442868D01*
X129546401Y-58428253D01*
X129528223Y-58411777D01*
X129511747Y-58393599D01*
X129497132Y-58373893D01*
X129484520Y-58352850D01*
X129474030Y-58330671D01*
X129465765Y-58307572D01*
X129459804Y-58283773D01*
X129456204Y-58259505D01*
X129455000Y-58235001D01*
X129455000Y-57334999D01*
X129456204Y-57310495D01*
X129459804Y-57286227D01*
X129465765Y-57262428D01*
X129474030Y-57239329D01*
X129484520Y-57217150D01*
X129497132Y-57196107D01*
X129511747Y-57176401D01*
X129528223Y-57158223D01*
X129546401Y-57141747D01*
X129566107Y-57127132D01*
X129587150Y-57114520D01*
X129609329Y-57104030D01*
X129632428Y-57095765D01*
X129656227Y-57089804D01*
X129680495Y-57086204D01*
X129704999Y-57085000D01*
X130355001Y-57085000D01*
X130379505Y-57086204D01*
X130379505Y-57086204D01*
G37*
D13*
G04 #@! TD*
G04 #@! TO.P,D1,1*
G04 #@! TO.N,Net-(D1-Pad1)*
X130030000Y-57785000D03*
D12*
G04 #@! TO.N,Net-(D2-Pad1)*
G04 #@! TO.C,D2*
G36*
X113624505Y-75501204D02*
X113648773Y-75504804D01*
X113672572Y-75510765D01*
X113695671Y-75519030D01*
X113717850Y-75529520D01*
X113738893Y-75542132D01*
X113758599Y-75556747D01*
X113776777Y-75573223D01*
X113793253Y-75591401D01*
X113807868Y-75611107D01*
X113820480Y-75632150D01*
X113830970Y-75654329D01*
X113839235Y-75677428D01*
X113845196Y-75701227D01*
X113848796Y-75725495D01*
X113850000Y-75749999D01*
X113850000Y-76650001D01*
X113848796Y-76674505D01*
X113845196Y-76698773D01*
X113839235Y-76722572D01*
X113830970Y-76745671D01*
X113820480Y-76767850D01*
X113807868Y-76788893D01*
X113793253Y-76808599D01*
X113776777Y-76826777D01*
X113758599Y-76843253D01*
X113738893Y-76857868D01*
X113717850Y-76870480D01*
X113695671Y-76880970D01*
X113672572Y-76889235D01*
X113648773Y-76895196D01*
X113624505Y-76898796D01*
X113600001Y-76900000D01*
X112949999Y-76900000D01*
X112925495Y-76898796D01*
X112901227Y-76895196D01*
X112877428Y-76889235D01*
X112854329Y-76880970D01*
X112832150Y-76870480D01*
X112811107Y-76857868D01*
X112791401Y-76843253D01*
X112773223Y-76826777D01*
X112756747Y-76808599D01*
X112742132Y-76788893D01*
X112729520Y-76767850D01*
X112719030Y-76745671D01*
X112710765Y-76722572D01*
X112704804Y-76698773D01*
X112701204Y-76674505D01*
X112700000Y-76650001D01*
X112700000Y-75749999D01*
X112701204Y-75725495D01*
X112704804Y-75701227D01*
X112710765Y-75677428D01*
X112719030Y-75654329D01*
X112729520Y-75632150D01*
X112742132Y-75611107D01*
X112756747Y-75591401D01*
X112773223Y-75573223D01*
X112791401Y-75556747D01*
X112811107Y-75542132D01*
X112832150Y-75529520D01*
X112854329Y-75519030D01*
X112877428Y-75510765D01*
X112901227Y-75504804D01*
X112925495Y-75501204D01*
X112949999Y-75500000D01*
X113600001Y-75500000D01*
X113624505Y-75501204D01*
X113624505Y-75501204D01*
G37*
D13*
G04 #@! TD*
G04 #@! TO.P,D2,1*
G04 #@! TO.N,Net-(D2-Pad1)*
X113275000Y-76200000D03*
D12*
G04 #@! TO.N,STATUS_LED*
G04 #@! TO.C,D2*
G36*
X115674505Y-75501204D02*
X115698773Y-75504804D01*
X115722572Y-75510765D01*
X115745671Y-75519030D01*
X115767850Y-75529520D01*
X115788893Y-75542132D01*
X115808599Y-75556747D01*
X115826777Y-75573223D01*
X115843253Y-75591401D01*
X115857868Y-75611107D01*
X115870480Y-75632150D01*
X115880970Y-75654329D01*
X115889235Y-75677428D01*
X115895196Y-75701227D01*
X115898796Y-75725495D01*
X115900000Y-75749999D01*
X115900000Y-76650001D01*
X115898796Y-76674505D01*
X115895196Y-76698773D01*
X115889235Y-76722572D01*
X115880970Y-76745671D01*
X115870480Y-76767850D01*
X115857868Y-76788893D01*
X115843253Y-76808599D01*
X115826777Y-76826777D01*
X115808599Y-76843253D01*
X115788893Y-76857868D01*
X115767850Y-76870480D01*
X115745671Y-76880970D01*
X115722572Y-76889235D01*
X115698773Y-76895196D01*
X115674505Y-76898796D01*
X115650001Y-76900000D01*
X114999999Y-76900000D01*
X114975495Y-76898796D01*
X114951227Y-76895196D01*
X114927428Y-76889235D01*
X114904329Y-76880970D01*
X114882150Y-76870480D01*
X114861107Y-76857868D01*
X114841401Y-76843253D01*
X114823223Y-76826777D01*
X114806747Y-76808599D01*
X114792132Y-76788893D01*
X114779520Y-76767850D01*
X114769030Y-76745671D01*
X114760765Y-76722572D01*
X114754804Y-76698773D01*
X114751204Y-76674505D01*
X114750000Y-76650001D01*
X114750000Y-75749999D01*
X114751204Y-75725495D01*
X114754804Y-75701227D01*
X114760765Y-75677428D01*
X114769030Y-75654329D01*
X114779520Y-75632150D01*
X114792132Y-75611107D01*
X114806747Y-75591401D01*
X114823223Y-75573223D01*
X114841401Y-75556747D01*
X114861107Y-75542132D01*
X114882150Y-75529520D01*
X114904329Y-75519030D01*
X114927428Y-75510765D01*
X114951227Y-75504804D01*
X114975495Y-75501204D01*
X114999999Y-75500000D01*
X115650001Y-75500000D01*
X115674505Y-75501204D01*
X115674505Y-75501204D01*
G37*
D13*
G04 #@! TD*
G04 #@! TO.P,D2,2*
G04 #@! TO.N,STATUS_LED*
X115325000Y-76200000D03*
D14*
G04 #@! TO.P,D3,1*
G04 #@! TO.N,+BATT*
X146055000Y-101600000D03*
G04 #@! TO.P,D3,2*
G04 #@! TO.N,Net-(D3-Pad2)*
X147955000Y-101600000D03*
G04 #@! TD*
G04 #@! TO.P,D4,2*
G04 #@! TO.N,Net-(D4-Pad2)*
X147955000Y-99060000D03*
G04 #@! TO.P,D4,1*
G04 #@! TO.N,+BATT*
X146055000Y-99060000D03*
G04 #@! TD*
G04 #@! TO.P,D5,1*
G04 #@! TO.N,+BATT*
X146055000Y-78740000D03*
G04 #@! TO.P,D5,2*
G04 #@! TO.N,Net-(D5-Pad2)*
X147955000Y-78740000D03*
G04 #@! TD*
G04 #@! TO.P,D6,2*
G04 #@! TO.N,Net-(D6-Pad2)*
X147955000Y-76200000D03*
G04 #@! TO.P,D6,1*
G04 #@! TO.N,+BATT*
X146055000Y-76200000D03*
G04 #@! TD*
D15*
G04 #@! TO.P,J1,1*
G04 #@! TO.N,MOSI*
X83820000Y-66040000D03*
D16*
G04 #@! TO.P,J1,2*
G04 #@! TO.N,Net-(J1-Pad2)*
X83820000Y-68580000D03*
G04 #@! TO.P,J1,3*
G04 #@! TO.N,SCK*
X83820000Y-71120000D03*
G04 #@! TO.P,J1,4*
G04 #@! TO.N,RESET*
X83820000Y-73660000D03*
G04 #@! TO.P,J1,5*
G04 #@! TO.N,+5V*
X83820000Y-76200000D03*
G04 #@! TO.P,J1,6*
G04 #@! TO.N,GND*
X83820000Y-78740000D03*
G04 #@! TD*
G04 #@! TO.P,J2,2*
G04 #@! TO.N,GND*
X80645000Y-78740000D03*
D15*
G04 #@! TO.P,J2,1*
G04 #@! TO.N,+5V*
X80645000Y-76200000D03*
G04 #@! TD*
G04 #@! TO.P,J3,1*
G04 #@! TO.N,V_EXT*
X116840000Y-53340000D03*
D16*
G04 #@! TO.P,J3,2*
G04 #@! TO.N,Net-(J3-Pad2)*
X116840000Y-55880000D03*
G04 #@! TO.P,J3,3*
G04 #@! TO.N,Net-(J3-Pad3)*
X116840000Y-58420000D03*
G04 #@! TO.P,J3,4*
G04 #@! TO.N,Net-(J3-Pad4)*
X116840000Y-60960000D03*
G04 #@! TO.P,J3,5*
G04 #@! TO.N,Net-(J3-Pad5)*
X116840000Y-63500000D03*
G04 #@! TO.P,J3,6*
G04 #@! TO.N,Net-(J3-Pad6)*
X116840000Y-66040000D03*
G04 #@! TO.P,J3,7*
G04 #@! TO.N,Net-(J3-Pad7)*
X116840000Y-68580000D03*
G04 #@! TO.P,J3,8*
G04 #@! TO.N,Net-(J3-Pad8)*
X116840000Y-71120000D03*
G04 #@! TD*
D15*
G04 #@! TO.P,J4,1*
G04 #@! TO.N,Net-(J4-Pad1)*
X88265000Y-53340000D03*
D16*
G04 #@! TO.P,J4,2*
G04 #@! TO.N,Net-(J4-Pad2)*
X88265000Y-55880000D03*
G04 #@! TO.P,J4,3*
G04 #@! TO.N,Net-(J4-Pad3)*
X88265000Y-58420000D03*
G04 #@! TO.P,J4,4*
G04 #@! TO.N,Net-(J4-Pad4)*
X88265000Y-60960000D03*
G04 #@! TD*
G04 #@! TO.P,J8,8*
G04 #@! TO.N,+5V*
X119380000Y-71120000D03*
G04 #@! TO.P,J8,7*
X119380000Y-68580000D03*
G04 #@! TO.P,J8,6*
X119380000Y-66040000D03*
G04 #@! TO.P,J8,5*
X119380000Y-63500000D03*
G04 #@! TO.P,J8,4*
X119380000Y-60960000D03*
G04 #@! TO.P,J8,3*
X119380000Y-58420000D03*
G04 #@! TO.P,J8,2*
X119380000Y-55880000D03*
D15*
G04 #@! TO.P,J8,1*
X119380000Y-53340000D03*
G04 #@! TD*
D16*
G04 #@! TO.P,J9,4*
G04 #@! TO.N,+5V*
X85725000Y-60960000D03*
G04 #@! TO.P,J9,3*
X85725000Y-58420000D03*
G04 #@! TO.P,J9,2*
X85725000Y-55880000D03*
D15*
G04 #@! TO.P,J9,1*
X85725000Y-53340000D03*
G04 #@! TD*
G04 #@! TO.P,J13,1*
G04 #@! TO.N,GND*
X121920000Y-53340000D03*
D16*
G04 #@! TO.P,J13,2*
X121920000Y-55880000D03*
G04 #@! TO.P,J13,3*
X121920000Y-58420000D03*
G04 #@! TO.P,J13,4*
X121920000Y-60960000D03*
G04 #@! TO.P,J13,5*
X121920000Y-63500000D03*
G04 #@! TO.P,J13,6*
X121920000Y-66040000D03*
G04 #@! TO.P,J13,7*
X121920000Y-68580000D03*
G04 #@! TO.P,J13,8*
X121920000Y-71120000D03*
G04 #@! TD*
D15*
G04 #@! TO.P,J14,1*
G04 #@! TO.N,GND*
X83185000Y-53340000D03*
D16*
G04 #@! TO.P,J14,2*
X83185000Y-55880000D03*
G04 #@! TO.P,J14,3*
X83185000Y-58420000D03*
G04 #@! TO.P,J14,4*
X83185000Y-60960000D03*
G04 #@! TD*
G04 #@! TO.P,J18,4*
G04 #@! TO.N,TX2*
X85090000Y-97155000D03*
G04 #@! TO.P,J18,3*
G04 #@! TO.N,RX2*
X85090000Y-94615000D03*
G04 #@! TO.P,J18,2*
G04 #@! TO.N,TX1*
X85090000Y-92075000D03*
D15*
G04 #@! TO.P,J18,1*
G04 #@! TO.N,RX1*
X85090000Y-89535000D03*
G04 #@! TD*
G04 #@! TO.P,J19,1*
G04 #@! TO.N,+5V*
X82550000Y-89535000D03*
D16*
G04 #@! TO.P,J19,2*
X82550000Y-92075000D03*
G04 #@! TO.P,J19,3*
X82550000Y-94615000D03*
G04 #@! TO.P,J19,4*
X82550000Y-97155000D03*
G04 #@! TD*
G04 #@! TO.P,J20,4*
G04 #@! TO.N,GND*
X80010000Y-97155000D03*
G04 #@! TO.P,J20,3*
X80010000Y-94615000D03*
G04 #@! TO.P,J20,2*
X80010000Y-92075000D03*
D15*
G04 #@! TO.P,J20,1*
X80010000Y-89535000D03*
G04 #@! TD*
G04 #@! TO.P,J21,1*
G04 #@! TO.N,+BATT*
X128270000Y-66040000D03*
D16*
G04 #@! TO.P,J21,2*
G04 #@! TO.N,GND*
X128270000Y-68580000D03*
G04 #@! TD*
D15*
G04 #@! TO.P,J22,1*
G04 #@! TO.N,Net-(D5-Pad2)*
X150495000Y-78740000D03*
D16*
G04 #@! TO.P,J22,2*
G04 #@! TO.N,Net-(D6-Pad2)*
X150495000Y-76200000D03*
G04 #@! TD*
G04 #@! TO.P,J23,2*
G04 #@! TO.N,Net-(D4-Pad2)*
X150495000Y-99060000D03*
D15*
G04 #@! TO.P,J23,1*
G04 #@! TO.N,Net-(D3-Pad2)*
X150495000Y-101600000D03*
G04 #@! TD*
D12*
G04 #@! TO.N,RESET*
G04 #@! TO.C,R1*
G36*
X80359505Y-71691204D02*
X80383773Y-71694804D01*
X80407572Y-71700765D01*
X80430671Y-71709030D01*
X80452850Y-71719520D01*
X80473893Y-71732132D01*
X80493599Y-71746747D01*
X80511777Y-71763223D01*
X80528253Y-71781401D01*
X80542868Y-71801107D01*
X80555480Y-71822150D01*
X80565970Y-71844329D01*
X80574235Y-71867428D01*
X80580196Y-71891227D01*
X80583796Y-71915495D01*
X80585000Y-71939999D01*
X80585000Y-72840001D01*
X80583796Y-72864505D01*
X80580196Y-72888773D01*
X80574235Y-72912572D01*
X80565970Y-72935671D01*
X80555480Y-72957850D01*
X80542868Y-72978893D01*
X80528253Y-72998599D01*
X80511777Y-73016777D01*
X80493599Y-73033253D01*
X80473893Y-73047868D01*
X80452850Y-73060480D01*
X80430671Y-73070970D01*
X80407572Y-73079235D01*
X80383773Y-73085196D01*
X80359505Y-73088796D01*
X80335001Y-73090000D01*
X79684999Y-73090000D01*
X79660495Y-73088796D01*
X79636227Y-73085196D01*
X79612428Y-73079235D01*
X79589329Y-73070970D01*
X79567150Y-73060480D01*
X79546107Y-73047868D01*
X79526401Y-73033253D01*
X79508223Y-73016777D01*
X79491747Y-72998599D01*
X79477132Y-72978893D01*
X79464520Y-72957850D01*
X79454030Y-72935671D01*
X79445765Y-72912572D01*
X79439804Y-72888773D01*
X79436204Y-72864505D01*
X79435000Y-72840001D01*
X79435000Y-71939999D01*
X79436204Y-71915495D01*
X79439804Y-71891227D01*
X79445765Y-71867428D01*
X79454030Y-71844329D01*
X79464520Y-71822150D01*
X79477132Y-71801107D01*
X79491747Y-71781401D01*
X79508223Y-71763223D01*
X79526401Y-71746747D01*
X79546107Y-71732132D01*
X79567150Y-71719520D01*
X79589329Y-71709030D01*
X79612428Y-71700765D01*
X79636227Y-71694804D01*
X79660495Y-71691204D01*
X79684999Y-71690000D01*
X80335001Y-71690000D01*
X80359505Y-71691204D01*
X80359505Y-71691204D01*
G37*
D13*
G04 #@! TD*
G04 #@! TO.P,R1,1*
G04 #@! TO.N,RESET*
X80010000Y-72390000D03*
D12*
G04 #@! TO.N,+5V*
G04 #@! TO.C,R1*
G36*
X78309505Y-71691204D02*
X78333773Y-71694804D01*
X78357572Y-71700765D01*
X78380671Y-71709030D01*
X78402850Y-71719520D01*
X78423893Y-71732132D01*
X78443599Y-71746747D01*
X78461777Y-71763223D01*
X78478253Y-71781401D01*
X78492868Y-71801107D01*
X78505480Y-71822150D01*
X78515970Y-71844329D01*
X78524235Y-71867428D01*
X78530196Y-71891227D01*
X78533796Y-71915495D01*
X78535000Y-71939999D01*
X78535000Y-72840001D01*
X78533796Y-72864505D01*
X78530196Y-72888773D01*
X78524235Y-72912572D01*
X78515970Y-72935671D01*
X78505480Y-72957850D01*
X78492868Y-72978893D01*
X78478253Y-72998599D01*
X78461777Y-73016777D01*
X78443599Y-73033253D01*
X78423893Y-73047868D01*
X78402850Y-73060480D01*
X78380671Y-73070970D01*
X78357572Y-73079235D01*
X78333773Y-73085196D01*
X78309505Y-73088796D01*
X78285001Y-73090000D01*
X77634999Y-73090000D01*
X77610495Y-73088796D01*
X77586227Y-73085196D01*
X77562428Y-73079235D01*
X77539329Y-73070970D01*
X77517150Y-73060480D01*
X77496107Y-73047868D01*
X77476401Y-73033253D01*
X77458223Y-73016777D01*
X77441747Y-72998599D01*
X77427132Y-72978893D01*
X77414520Y-72957850D01*
X77404030Y-72935671D01*
X77395765Y-72912572D01*
X77389804Y-72888773D01*
X77386204Y-72864505D01*
X77385000Y-72840001D01*
X77385000Y-71939999D01*
X77386204Y-71915495D01*
X77389804Y-71891227D01*
X77395765Y-71867428D01*
X77404030Y-71844329D01*
X77414520Y-71822150D01*
X77427132Y-71801107D01*
X77441747Y-71781401D01*
X77458223Y-71763223D01*
X77476401Y-71746747D01*
X77496107Y-71732132D01*
X77517150Y-71719520D01*
X77539329Y-71709030D01*
X77562428Y-71700765D01*
X77586227Y-71694804D01*
X77610495Y-71691204D01*
X77634999Y-71690000D01*
X78285001Y-71690000D01*
X78309505Y-71691204D01*
X78309505Y-71691204D01*
G37*
D13*
G04 #@! TD*
G04 #@! TO.P,R1,2*
G04 #@! TO.N,+5V*
X77960000Y-72390000D03*
D12*
G04 #@! TO.N,GND*
G04 #@! TO.C,R2*
G36*
X132429505Y-59626204D02*
X132453773Y-59629804D01*
X132477572Y-59635765D01*
X132500671Y-59644030D01*
X132522850Y-59654520D01*
X132543893Y-59667132D01*
X132563599Y-59681747D01*
X132581777Y-59698223D01*
X132598253Y-59716401D01*
X132612868Y-59736107D01*
X132625480Y-59757150D01*
X132635970Y-59779329D01*
X132644235Y-59802428D01*
X132650196Y-59826227D01*
X132653796Y-59850495D01*
X132655000Y-59874999D01*
X132655000Y-60775001D01*
X132653796Y-60799505D01*
X132650196Y-60823773D01*
X132644235Y-60847572D01*
X132635970Y-60870671D01*
X132625480Y-60892850D01*
X132612868Y-60913893D01*
X132598253Y-60933599D01*
X132581777Y-60951777D01*
X132563599Y-60968253D01*
X132543893Y-60982868D01*
X132522850Y-60995480D01*
X132500671Y-61005970D01*
X132477572Y-61014235D01*
X132453773Y-61020196D01*
X132429505Y-61023796D01*
X132405001Y-61025000D01*
X131754999Y-61025000D01*
X131730495Y-61023796D01*
X131706227Y-61020196D01*
X131682428Y-61014235D01*
X131659329Y-61005970D01*
X131637150Y-60995480D01*
X131616107Y-60982868D01*
X131596401Y-60968253D01*
X131578223Y-60951777D01*
X131561747Y-60933599D01*
X131547132Y-60913893D01*
X131534520Y-60892850D01*
X131524030Y-60870671D01*
X131515765Y-60847572D01*
X131509804Y-60823773D01*
X131506204Y-60799505D01*
X131505000Y-60775001D01*
X131505000Y-59874999D01*
X131506204Y-59850495D01*
X131509804Y-59826227D01*
X131515765Y-59802428D01*
X131524030Y-59779329D01*
X131534520Y-59757150D01*
X131547132Y-59736107D01*
X131561747Y-59716401D01*
X131578223Y-59698223D01*
X131596401Y-59681747D01*
X131616107Y-59667132D01*
X131637150Y-59654520D01*
X131659329Y-59644030D01*
X131682428Y-59635765D01*
X131706227Y-59629804D01*
X131730495Y-59626204D01*
X131754999Y-59625000D01*
X132405001Y-59625000D01*
X132429505Y-59626204D01*
X132429505Y-59626204D01*
G37*
D13*
G04 #@! TD*
G04 #@! TO.P,R2,1*
G04 #@! TO.N,GND*
X132080000Y-60325000D03*
D12*
G04 #@! TO.N,Net-(D1-Pad1)*
G04 #@! TO.C,R2*
G36*
X130379505Y-59626204D02*
X130403773Y-59629804D01*
X130427572Y-59635765D01*
X130450671Y-59644030D01*
X130472850Y-59654520D01*
X130493893Y-59667132D01*
X130513599Y-59681747D01*
X130531777Y-59698223D01*
X130548253Y-59716401D01*
X130562868Y-59736107D01*
X130575480Y-59757150D01*
X130585970Y-59779329D01*
X130594235Y-59802428D01*
X130600196Y-59826227D01*
X130603796Y-59850495D01*
X130605000Y-59874999D01*
X130605000Y-60775001D01*
X130603796Y-60799505D01*
X130600196Y-60823773D01*
X130594235Y-60847572D01*
X130585970Y-60870671D01*
X130575480Y-60892850D01*
X130562868Y-60913893D01*
X130548253Y-60933599D01*
X130531777Y-60951777D01*
X130513599Y-60968253D01*
X130493893Y-60982868D01*
X130472850Y-60995480D01*
X130450671Y-61005970D01*
X130427572Y-61014235D01*
X130403773Y-61020196D01*
X130379505Y-61023796D01*
X130355001Y-61025000D01*
X129704999Y-61025000D01*
X129680495Y-61023796D01*
X129656227Y-61020196D01*
X129632428Y-61014235D01*
X129609329Y-61005970D01*
X129587150Y-60995480D01*
X129566107Y-60982868D01*
X129546401Y-60968253D01*
X129528223Y-60951777D01*
X129511747Y-60933599D01*
X129497132Y-60913893D01*
X129484520Y-60892850D01*
X129474030Y-60870671D01*
X129465765Y-60847572D01*
X129459804Y-60823773D01*
X129456204Y-60799505D01*
X129455000Y-60775001D01*
X129455000Y-59874999D01*
X129456204Y-59850495D01*
X129459804Y-59826227D01*
X129465765Y-59802428D01*
X129474030Y-59779329D01*
X129484520Y-59757150D01*
X129497132Y-59736107D01*
X129511747Y-59716401D01*
X129528223Y-59698223D01*
X129546401Y-59681747D01*
X129566107Y-59667132D01*
X129587150Y-59654520D01*
X129609329Y-59644030D01*
X129632428Y-59635765D01*
X129656227Y-59629804D01*
X129680495Y-59626204D01*
X129704999Y-59625000D01*
X130355001Y-59625000D01*
X130379505Y-59626204D01*
X130379505Y-59626204D01*
G37*
D13*
G04 #@! TD*
G04 #@! TO.P,R2,2*
G04 #@! TO.N,Net-(D1-Pad1)*
X130030000Y-60325000D03*
D12*
G04 #@! TO.N,V_EXT*
G04 #@! TO.C,R3*
G36*
X114014505Y-54546204D02*
X114038773Y-54549804D01*
X114062572Y-54555765D01*
X114085671Y-54564030D01*
X114107850Y-54574520D01*
X114128893Y-54587132D01*
X114148599Y-54601747D01*
X114166777Y-54618223D01*
X114183253Y-54636401D01*
X114197868Y-54656107D01*
X114210480Y-54677150D01*
X114220970Y-54699329D01*
X114229235Y-54722428D01*
X114235196Y-54746227D01*
X114238796Y-54770495D01*
X114240000Y-54794999D01*
X114240000Y-55695001D01*
X114238796Y-55719505D01*
X114235196Y-55743773D01*
X114229235Y-55767572D01*
X114220970Y-55790671D01*
X114210480Y-55812850D01*
X114197868Y-55833893D01*
X114183253Y-55853599D01*
X114166777Y-55871777D01*
X114148599Y-55888253D01*
X114128893Y-55902868D01*
X114107850Y-55915480D01*
X114085671Y-55925970D01*
X114062572Y-55934235D01*
X114038773Y-55940196D01*
X114014505Y-55943796D01*
X113990001Y-55945000D01*
X113339999Y-55945000D01*
X113315495Y-55943796D01*
X113291227Y-55940196D01*
X113267428Y-55934235D01*
X113244329Y-55925970D01*
X113222150Y-55915480D01*
X113201107Y-55902868D01*
X113181401Y-55888253D01*
X113163223Y-55871777D01*
X113146747Y-55853599D01*
X113132132Y-55833893D01*
X113119520Y-55812850D01*
X113109030Y-55790671D01*
X113100765Y-55767572D01*
X113094804Y-55743773D01*
X113091204Y-55719505D01*
X113090000Y-55695001D01*
X113090000Y-54794999D01*
X113091204Y-54770495D01*
X113094804Y-54746227D01*
X113100765Y-54722428D01*
X113109030Y-54699329D01*
X113119520Y-54677150D01*
X113132132Y-54656107D01*
X113146747Y-54636401D01*
X113163223Y-54618223D01*
X113181401Y-54601747D01*
X113201107Y-54587132D01*
X113222150Y-54574520D01*
X113244329Y-54564030D01*
X113267428Y-54555765D01*
X113291227Y-54549804D01*
X113315495Y-54546204D01*
X113339999Y-54545000D01*
X113990001Y-54545000D01*
X114014505Y-54546204D01*
X114014505Y-54546204D01*
G37*
D13*
G04 #@! TD*
G04 #@! TO.P,R3,1*
G04 #@! TO.N,V_EXT*
X113665000Y-55245000D03*
D12*
G04 #@! TO.N,V_IN*
G04 #@! TO.C,R3*
G36*
X111964505Y-54546204D02*
X111988773Y-54549804D01*
X112012572Y-54555765D01*
X112035671Y-54564030D01*
X112057850Y-54574520D01*
X112078893Y-54587132D01*
X112098599Y-54601747D01*
X112116777Y-54618223D01*
X112133253Y-54636401D01*
X112147868Y-54656107D01*
X112160480Y-54677150D01*
X112170970Y-54699329D01*
X112179235Y-54722428D01*
X112185196Y-54746227D01*
X112188796Y-54770495D01*
X112190000Y-54794999D01*
X112190000Y-55695001D01*
X112188796Y-55719505D01*
X112185196Y-55743773D01*
X112179235Y-55767572D01*
X112170970Y-55790671D01*
X112160480Y-55812850D01*
X112147868Y-55833893D01*
X112133253Y-55853599D01*
X112116777Y-55871777D01*
X112098599Y-55888253D01*
X112078893Y-55902868D01*
X112057850Y-55915480D01*
X112035671Y-55925970D01*
X112012572Y-55934235D01*
X111988773Y-55940196D01*
X111964505Y-55943796D01*
X111940001Y-55945000D01*
X111289999Y-55945000D01*
X111265495Y-55943796D01*
X111241227Y-55940196D01*
X111217428Y-55934235D01*
X111194329Y-55925970D01*
X111172150Y-55915480D01*
X111151107Y-55902868D01*
X111131401Y-55888253D01*
X111113223Y-55871777D01*
X111096747Y-55853599D01*
X111082132Y-55833893D01*
X111069520Y-55812850D01*
X111059030Y-55790671D01*
X111050765Y-55767572D01*
X111044804Y-55743773D01*
X111041204Y-55719505D01*
X111040000Y-55695001D01*
X111040000Y-54794999D01*
X111041204Y-54770495D01*
X111044804Y-54746227D01*
X111050765Y-54722428D01*
X111059030Y-54699329D01*
X111069520Y-54677150D01*
X111082132Y-54656107D01*
X111096747Y-54636401D01*
X111113223Y-54618223D01*
X111131401Y-54601747D01*
X111151107Y-54587132D01*
X111172150Y-54574520D01*
X111194329Y-54564030D01*
X111217428Y-54555765D01*
X111241227Y-54549804D01*
X111265495Y-54546204D01*
X111289999Y-54545000D01*
X111940001Y-54545000D01*
X111964505Y-54546204D01*
X111964505Y-54546204D01*
G37*
D13*
G04 #@! TD*
G04 #@! TO.P,R3,2*
G04 #@! TO.N,V_IN*
X111615000Y-55245000D03*
D12*
G04 #@! TO.N,GND*
G04 #@! TO.C,R4*
G36*
X114014505Y-51371204D02*
X114038773Y-51374804D01*
X114062572Y-51380765D01*
X114085671Y-51389030D01*
X114107850Y-51399520D01*
X114128893Y-51412132D01*
X114148599Y-51426747D01*
X114166777Y-51443223D01*
X114183253Y-51461401D01*
X114197868Y-51481107D01*
X114210480Y-51502150D01*
X114220970Y-51524329D01*
X114229235Y-51547428D01*
X114235196Y-51571227D01*
X114238796Y-51595495D01*
X114240000Y-51619999D01*
X114240000Y-52520001D01*
X114238796Y-52544505D01*
X114235196Y-52568773D01*
X114229235Y-52592572D01*
X114220970Y-52615671D01*
X114210480Y-52637850D01*
X114197868Y-52658893D01*
X114183253Y-52678599D01*
X114166777Y-52696777D01*
X114148599Y-52713253D01*
X114128893Y-52727868D01*
X114107850Y-52740480D01*
X114085671Y-52750970D01*
X114062572Y-52759235D01*
X114038773Y-52765196D01*
X114014505Y-52768796D01*
X113990001Y-52770000D01*
X113339999Y-52770000D01*
X113315495Y-52768796D01*
X113291227Y-52765196D01*
X113267428Y-52759235D01*
X113244329Y-52750970D01*
X113222150Y-52740480D01*
X113201107Y-52727868D01*
X113181401Y-52713253D01*
X113163223Y-52696777D01*
X113146747Y-52678599D01*
X113132132Y-52658893D01*
X113119520Y-52637850D01*
X113109030Y-52615671D01*
X113100765Y-52592572D01*
X113094804Y-52568773D01*
X113091204Y-52544505D01*
X113090000Y-52520001D01*
X113090000Y-51619999D01*
X113091204Y-51595495D01*
X113094804Y-51571227D01*
X113100765Y-51547428D01*
X113109030Y-51524329D01*
X113119520Y-51502150D01*
X113132132Y-51481107D01*
X113146747Y-51461401D01*
X113163223Y-51443223D01*
X113181401Y-51426747D01*
X113201107Y-51412132D01*
X113222150Y-51399520D01*
X113244329Y-51389030D01*
X113267428Y-51380765D01*
X113291227Y-51374804D01*
X113315495Y-51371204D01*
X113339999Y-51370000D01*
X113990001Y-51370000D01*
X114014505Y-51371204D01*
X114014505Y-51371204D01*
G37*
D13*
G04 #@! TD*
G04 #@! TO.P,R4,2*
G04 #@! TO.N,GND*
X113665000Y-52070000D03*
D12*
G04 #@! TO.N,V_IN*
G04 #@! TO.C,R4*
G36*
X111964505Y-51371204D02*
X111988773Y-51374804D01*
X112012572Y-51380765D01*
X112035671Y-51389030D01*
X112057850Y-51399520D01*
X112078893Y-51412132D01*
X112098599Y-51426747D01*
X112116777Y-51443223D01*
X112133253Y-51461401D01*
X112147868Y-51481107D01*
X112160480Y-51502150D01*
X112170970Y-51524329D01*
X112179235Y-51547428D01*
X112185196Y-51571227D01*
X112188796Y-51595495D01*
X112190000Y-51619999D01*
X112190000Y-52520001D01*
X112188796Y-52544505D01*
X112185196Y-52568773D01*
X112179235Y-52592572D01*
X112170970Y-52615671D01*
X112160480Y-52637850D01*
X112147868Y-52658893D01*
X112133253Y-52678599D01*
X112116777Y-52696777D01*
X112098599Y-52713253D01*
X112078893Y-52727868D01*
X112057850Y-52740480D01*
X112035671Y-52750970D01*
X112012572Y-52759235D01*
X111988773Y-52765196D01*
X111964505Y-52768796D01*
X111940001Y-52770000D01*
X111289999Y-52770000D01*
X111265495Y-52768796D01*
X111241227Y-52765196D01*
X111217428Y-52759235D01*
X111194329Y-52750970D01*
X111172150Y-52740480D01*
X111151107Y-52727868D01*
X111131401Y-52713253D01*
X111113223Y-52696777D01*
X111096747Y-52678599D01*
X111082132Y-52658893D01*
X111069520Y-52637850D01*
X111059030Y-52615671D01*
X111050765Y-52592572D01*
X111044804Y-52568773D01*
X111041204Y-52544505D01*
X111040000Y-52520001D01*
X111040000Y-51619999D01*
X111041204Y-51595495D01*
X111044804Y-51571227D01*
X111050765Y-51547428D01*
X111059030Y-51524329D01*
X111069520Y-51502150D01*
X111082132Y-51481107D01*
X111096747Y-51461401D01*
X111113223Y-51443223D01*
X111131401Y-51426747D01*
X111151107Y-51412132D01*
X111172150Y-51399520D01*
X111194329Y-51389030D01*
X111217428Y-51380765D01*
X111241227Y-51374804D01*
X111265495Y-51371204D01*
X111289999Y-51370000D01*
X111940001Y-51370000D01*
X111964505Y-51371204D01*
X111964505Y-51371204D01*
G37*
D13*
G04 #@! TD*
G04 #@! TO.P,R4,1*
G04 #@! TO.N,V_IN*
X111615000Y-52070000D03*
D12*
G04 #@! TO.N,TX1*
G04 #@! TO.C,R5*
G36*
X88614505Y-91376204D02*
X88638773Y-91379804D01*
X88662572Y-91385765D01*
X88685671Y-91394030D01*
X88707850Y-91404520D01*
X88728893Y-91417132D01*
X88748599Y-91431747D01*
X88766777Y-91448223D01*
X88783253Y-91466401D01*
X88797868Y-91486107D01*
X88810480Y-91507150D01*
X88820970Y-91529329D01*
X88829235Y-91552428D01*
X88835196Y-91576227D01*
X88838796Y-91600495D01*
X88840000Y-91624999D01*
X88840000Y-92525001D01*
X88838796Y-92549505D01*
X88835196Y-92573773D01*
X88829235Y-92597572D01*
X88820970Y-92620671D01*
X88810480Y-92642850D01*
X88797868Y-92663893D01*
X88783253Y-92683599D01*
X88766777Y-92701777D01*
X88748599Y-92718253D01*
X88728893Y-92732868D01*
X88707850Y-92745480D01*
X88685671Y-92755970D01*
X88662572Y-92764235D01*
X88638773Y-92770196D01*
X88614505Y-92773796D01*
X88590001Y-92775000D01*
X87939999Y-92775000D01*
X87915495Y-92773796D01*
X87891227Y-92770196D01*
X87867428Y-92764235D01*
X87844329Y-92755970D01*
X87822150Y-92745480D01*
X87801107Y-92732868D01*
X87781401Y-92718253D01*
X87763223Y-92701777D01*
X87746747Y-92683599D01*
X87732132Y-92663893D01*
X87719520Y-92642850D01*
X87709030Y-92620671D01*
X87700765Y-92597572D01*
X87694804Y-92573773D01*
X87691204Y-92549505D01*
X87690000Y-92525001D01*
X87690000Y-91624999D01*
X87691204Y-91600495D01*
X87694804Y-91576227D01*
X87700765Y-91552428D01*
X87709030Y-91529329D01*
X87719520Y-91507150D01*
X87732132Y-91486107D01*
X87746747Y-91466401D01*
X87763223Y-91448223D01*
X87781401Y-91431747D01*
X87801107Y-91417132D01*
X87822150Y-91404520D01*
X87844329Y-91394030D01*
X87867428Y-91385765D01*
X87891227Y-91379804D01*
X87915495Y-91376204D01*
X87939999Y-91375000D01*
X88590001Y-91375000D01*
X88614505Y-91376204D01*
X88614505Y-91376204D01*
G37*
D13*
G04 #@! TD*
G04 #@! TO.P,R5,2*
G04 #@! TO.N,TX1*
X88265000Y-92075000D03*
D12*
G04 #@! TO.N,TX1_INT*
G04 #@! TO.C,R5*
G36*
X90664505Y-91376204D02*
X90688773Y-91379804D01*
X90712572Y-91385765D01*
X90735671Y-91394030D01*
X90757850Y-91404520D01*
X90778893Y-91417132D01*
X90798599Y-91431747D01*
X90816777Y-91448223D01*
X90833253Y-91466401D01*
X90847868Y-91486107D01*
X90860480Y-91507150D01*
X90870970Y-91529329D01*
X90879235Y-91552428D01*
X90885196Y-91576227D01*
X90888796Y-91600495D01*
X90890000Y-91624999D01*
X90890000Y-92525001D01*
X90888796Y-92549505D01*
X90885196Y-92573773D01*
X90879235Y-92597572D01*
X90870970Y-92620671D01*
X90860480Y-92642850D01*
X90847868Y-92663893D01*
X90833253Y-92683599D01*
X90816777Y-92701777D01*
X90798599Y-92718253D01*
X90778893Y-92732868D01*
X90757850Y-92745480D01*
X90735671Y-92755970D01*
X90712572Y-92764235D01*
X90688773Y-92770196D01*
X90664505Y-92773796D01*
X90640001Y-92775000D01*
X89989999Y-92775000D01*
X89965495Y-92773796D01*
X89941227Y-92770196D01*
X89917428Y-92764235D01*
X89894329Y-92755970D01*
X89872150Y-92745480D01*
X89851107Y-92732868D01*
X89831401Y-92718253D01*
X89813223Y-92701777D01*
X89796747Y-92683599D01*
X89782132Y-92663893D01*
X89769520Y-92642850D01*
X89759030Y-92620671D01*
X89750765Y-92597572D01*
X89744804Y-92573773D01*
X89741204Y-92549505D01*
X89740000Y-92525001D01*
X89740000Y-91624999D01*
X89741204Y-91600495D01*
X89744804Y-91576227D01*
X89750765Y-91552428D01*
X89759030Y-91529329D01*
X89769520Y-91507150D01*
X89782132Y-91486107D01*
X89796747Y-91466401D01*
X89813223Y-91448223D01*
X89831401Y-91431747D01*
X89851107Y-91417132D01*
X89872150Y-91404520D01*
X89894329Y-91394030D01*
X89917428Y-91385765D01*
X89941227Y-91379804D01*
X89965495Y-91376204D01*
X89989999Y-91375000D01*
X90640001Y-91375000D01*
X90664505Y-91376204D01*
X90664505Y-91376204D01*
G37*
D13*
G04 #@! TD*
G04 #@! TO.P,R5,1*
G04 #@! TO.N,TX1_INT*
X90315000Y-92075000D03*
D12*
G04 #@! TO.N,TX1*
G04 #@! TO.C,R6*
G36*
X90664505Y-93916204D02*
X90688773Y-93919804D01*
X90712572Y-93925765D01*
X90735671Y-93934030D01*
X90757850Y-93944520D01*
X90778893Y-93957132D01*
X90798599Y-93971747D01*
X90816777Y-93988223D01*
X90833253Y-94006401D01*
X90847868Y-94026107D01*
X90860480Y-94047150D01*
X90870970Y-94069329D01*
X90879235Y-94092428D01*
X90885196Y-94116227D01*
X90888796Y-94140495D01*
X90890000Y-94164999D01*
X90890000Y-95065001D01*
X90888796Y-95089505D01*
X90885196Y-95113773D01*
X90879235Y-95137572D01*
X90870970Y-95160671D01*
X90860480Y-95182850D01*
X90847868Y-95203893D01*
X90833253Y-95223599D01*
X90816777Y-95241777D01*
X90798599Y-95258253D01*
X90778893Y-95272868D01*
X90757850Y-95285480D01*
X90735671Y-95295970D01*
X90712572Y-95304235D01*
X90688773Y-95310196D01*
X90664505Y-95313796D01*
X90640001Y-95315000D01*
X89989999Y-95315000D01*
X89965495Y-95313796D01*
X89941227Y-95310196D01*
X89917428Y-95304235D01*
X89894329Y-95295970D01*
X89872150Y-95285480D01*
X89851107Y-95272868D01*
X89831401Y-95258253D01*
X89813223Y-95241777D01*
X89796747Y-95223599D01*
X89782132Y-95203893D01*
X89769520Y-95182850D01*
X89759030Y-95160671D01*
X89750765Y-95137572D01*
X89744804Y-95113773D01*
X89741204Y-95089505D01*
X89740000Y-95065001D01*
X89740000Y-94164999D01*
X89741204Y-94140495D01*
X89744804Y-94116227D01*
X89750765Y-94092428D01*
X89759030Y-94069329D01*
X89769520Y-94047150D01*
X89782132Y-94026107D01*
X89796747Y-94006401D01*
X89813223Y-93988223D01*
X89831401Y-93971747D01*
X89851107Y-93957132D01*
X89872150Y-93944520D01*
X89894329Y-93934030D01*
X89917428Y-93925765D01*
X89941227Y-93919804D01*
X89965495Y-93916204D01*
X89989999Y-93915000D01*
X90640001Y-93915000D01*
X90664505Y-93916204D01*
X90664505Y-93916204D01*
G37*
D13*
G04 #@! TD*
G04 #@! TO.P,R6,1*
G04 #@! TO.N,TX1*
X90315000Y-94615000D03*
D12*
G04 #@! TO.N,GND*
G04 #@! TO.C,R6*
G36*
X88614505Y-93916204D02*
X88638773Y-93919804D01*
X88662572Y-93925765D01*
X88685671Y-93934030D01*
X88707850Y-93944520D01*
X88728893Y-93957132D01*
X88748599Y-93971747D01*
X88766777Y-93988223D01*
X88783253Y-94006401D01*
X88797868Y-94026107D01*
X88810480Y-94047150D01*
X88820970Y-94069329D01*
X88829235Y-94092428D01*
X88835196Y-94116227D01*
X88838796Y-94140495D01*
X88840000Y-94164999D01*
X88840000Y-95065001D01*
X88838796Y-95089505D01*
X88835196Y-95113773D01*
X88829235Y-95137572D01*
X88820970Y-95160671D01*
X88810480Y-95182850D01*
X88797868Y-95203893D01*
X88783253Y-95223599D01*
X88766777Y-95241777D01*
X88748599Y-95258253D01*
X88728893Y-95272868D01*
X88707850Y-95285480D01*
X88685671Y-95295970D01*
X88662572Y-95304235D01*
X88638773Y-95310196D01*
X88614505Y-95313796D01*
X88590001Y-95315000D01*
X87939999Y-95315000D01*
X87915495Y-95313796D01*
X87891227Y-95310196D01*
X87867428Y-95304235D01*
X87844329Y-95295970D01*
X87822150Y-95285480D01*
X87801107Y-95272868D01*
X87781401Y-95258253D01*
X87763223Y-95241777D01*
X87746747Y-95223599D01*
X87732132Y-95203893D01*
X87719520Y-95182850D01*
X87709030Y-95160671D01*
X87700765Y-95137572D01*
X87694804Y-95113773D01*
X87691204Y-95089505D01*
X87690000Y-95065001D01*
X87690000Y-94164999D01*
X87691204Y-94140495D01*
X87694804Y-94116227D01*
X87700765Y-94092428D01*
X87709030Y-94069329D01*
X87719520Y-94047150D01*
X87732132Y-94026107D01*
X87746747Y-94006401D01*
X87763223Y-93988223D01*
X87781401Y-93971747D01*
X87801107Y-93957132D01*
X87822150Y-93944520D01*
X87844329Y-93934030D01*
X87867428Y-93925765D01*
X87891227Y-93919804D01*
X87915495Y-93916204D01*
X87939999Y-93915000D01*
X88590001Y-93915000D01*
X88614505Y-93916204D01*
X88614505Y-93916204D01*
G37*
D13*
G04 #@! TD*
G04 #@! TO.P,R6,2*
G04 #@! TO.N,GND*
X88265000Y-94615000D03*
D12*
G04 #@! TO.N,TX2_INT*
G04 #@! TO.C,R7*
G36*
X90664505Y-96456204D02*
X90688773Y-96459804D01*
X90712572Y-96465765D01*
X90735671Y-96474030D01*
X90757850Y-96484520D01*
X90778893Y-96497132D01*
X90798599Y-96511747D01*
X90816777Y-96528223D01*
X90833253Y-96546401D01*
X90847868Y-96566107D01*
X90860480Y-96587150D01*
X90870970Y-96609329D01*
X90879235Y-96632428D01*
X90885196Y-96656227D01*
X90888796Y-96680495D01*
X90890000Y-96704999D01*
X90890000Y-97605001D01*
X90888796Y-97629505D01*
X90885196Y-97653773D01*
X90879235Y-97677572D01*
X90870970Y-97700671D01*
X90860480Y-97722850D01*
X90847868Y-97743893D01*
X90833253Y-97763599D01*
X90816777Y-97781777D01*
X90798599Y-97798253D01*
X90778893Y-97812868D01*
X90757850Y-97825480D01*
X90735671Y-97835970D01*
X90712572Y-97844235D01*
X90688773Y-97850196D01*
X90664505Y-97853796D01*
X90640001Y-97855000D01*
X89989999Y-97855000D01*
X89965495Y-97853796D01*
X89941227Y-97850196D01*
X89917428Y-97844235D01*
X89894329Y-97835970D01*
X89872150Y-97825480D01*
X89851107Y-97812868D01*
X89831401Y-97798253D01*
X89813223Y-97781777D01*
X89796747Y-97763599D01*
X89782132Y-97743893D01*
X89769520Y-97722850D01*
X89759030Y-97700671D01*
X89750765Y-97677572D01*
X89744804Y-97653773D01*
X89741204Y-97629505D01*
X89740000Y-97605001D01*
X89740000Y-96704999D01*
X89741204Y-96680495D01*
X89744804Y-96656227D01*
X89750765Y-96632428D01*
X89759030Y-96609329D01*
X89769520Y-96587150D01*
X89782132Y-96566107D01*
X89796747Y-96546401D01*
X89813223Y-96528223D01*
X89831401Y-96511747D01*
X89851107Y-96497132D01*
X89872150Y-96484520D01*
X89894329Y-96474030D01*
X89917428Y-96465765D01*
X89941227Y-96459804D01*
X89965495Y-96456204D01*
X89989999Y-96455000D01*
X90640001Y-96455000D01*
X90664505Y-96456204D01*
X90664505Y-96456204D01*
G37*
D13*
G04 #@! TD*
G04 #@! TO.P,R7,1*
G04 #@! TO.N,TX2_INT*
X90315000Y-97155000D03*
D12*
G04 #@! TO.N,TX2*
G04 #@! TO.C,R7*
G36*
X88614505Y-96456204D02*
X88638773Y-96459804D01*
X88662572Y-96465765D01*
X88685671Y-96474030D01*
X88707850Y-96484520D01*
X88728893Y-96497132D01*
X88748599Y-96511747D01*
X88766777Y-96528223D01*
X88783253Y-96546401D01*
X88797868Y-96566107D01*
X88810480Y-96587150D01*
X88820970Y-96609329D01*
X88829235Y-96632428D01*
X88835196Y-96656227D01*
X88838796Y-96680495D01*
X88840000Y-96704999D01*
X88840000Y-97605001D01*
X88838796Y-97629505D01*
X88835196Y-97653773D01*
X88829235Y-97677572D01*
X88820970Y-97700671D01*
X88810480Y-97722850D01*
X88797868Y-97743893D01*
X88783253Y-97763599D01*
X88766777Y-97781777D01*
X88748599Y-97798253D01*
X88728893Y-97812868D01*
X88707850Y-97825480D01*
X88685671Y-97835970D01*
X88662572Y-97844235D01*
X88638773Y-97850196D01*
X88614505Y-97853796D01*
X88590001Y-97855000D01*
X87939999Y-97855000D01*
X87915495Y-97853796D01*
X87891227Y-97850196D01*
X87867428Y-97844235D01*
X87844329Y-97835970D01*
X87822150Y-97825480D01*
X87801107Y-97812868D01*
X87781401Y-97798253D01*
X87763223Y-97781777D01*
X87746747Y-97763599D01*
X87732132Y-97743893D01*
X87719520Y-97722850D01*
X87709030Y-97700671D01*
X87700765Y-97677572D01*
X87694804Y-97653773D01*
X87691204Y-97629505D01*
X87690000Y-97605001D01*
X87690000Y-96704999D01*
X87691204Y-96680495D01*
X87694804Y-96656227D01*
X87700765Y-96632428D01*
X87709030Y-96609329D01*
X87719520Y-96587150D01*
X87732132Y-96566107D01*
X87746747Y-96546401D01*
X87763223Y-96528223D01*
X87781401Y-96511747D01*
X87801107Y-96497132D01*
X87822150Y-96484520D01*
X87844329Y-96474030D01*
X87867428Y-96465765D01*
X87891227Y-96459804D01*
X87915495Y-96456204D01*
X87939999Y-96455000D01*
X88590001Y-96455000D01*
X88614505Y-96456204D01*
X88614505Y-96456204D01*
G37*
D13*
G04 #@! TD*
G04 #@! TO.P,R7,2*
G04 #@! TO.N,TX2*
X88265000Y-97155000D03*
D12*
G04 #@! TO.N,GND*
G04 #@! TO.C,R8*
G36*
X88614505Y-98996204D02*
X88638773Y-98999804D01*
X88662572Y-99005765D01*
X88685671Y-99014030D01*
X88707850Y-99024520D01*
X88728893Y-99037132D01*
X88748599Y-99051747D01*
X88766777Y-99068223D01*
X88783253Y-99086401D01*
X88797868Y-99106107D01*
X88810480Y-99127150D01*
X88820970Y-99149329D01*
X88829235Y-99172428D01*
X88835196Y-99196227D01*
X88838796Y-99220495D01*
X88840000Y-99244999D01*
X88840000Y-100145001D01*
X88838796Y-100169505D01*
X88835196Y-100193773D01*
X88829235Y-100217572D01*
X88820970Y-100240671D01*
X88810480Y-100262850D01*
X88797868Y-100283893D01*
X88783253Y-100303599D01*
X88766777Y-100321777D01*
X88748599Y-100338253D01*
X88728893Y-100352868D01*
X88707850Y-100365480D01*
X88685671Y-100375970D01*
X88662572Y-100384235D01*
X88638773Y-100390196D01*
X88614505Y-100393796D01*
X88590001Y-100395000D01*
X87939999Y-100395000D01*
X87915495Y-100393796D01*
X87891227Y-100390196D01*
X87867428Y-100384235D01*
X87844329Y-100375970D01*
X87822150Y-100365480D01*
X87801107Y-100352868D01*
X87781401Y-100338253D01*
X87763223Y-100321777D01*
X87746747Y-100303599D01*
X87732132Y-100283893D01*
X87719520Y-100262850D01*
X87709030Y-100240671D01*
X87700765Y-100217572D01*
X87694804Y-100193773D01*
X87691204Y-100169505D01*
X87690000Y-100145001D01*
X87690000Y-99244999D01*
X87691204Y-99220495D01*
X87694804Y-99196227D01*
X87700765Y-99172428D01*
X87709030Y-99149329D01*
X87719520Y-99127150D01*
X87732132Y-99106107D01*
X87746747Y-99086401D01*
X87763223Y-99068223D01*
X87781401Y-99051747D01*
X87801107Y-99037132D01*
X87822150Y-99024520D01*
X87844329Y-99014030D01*
X87867428Y-99005765D01*
X87891227Y-98999804D01*
X87915495Y-98996204D01*
X87939999Y-98995000D01*
X88590001Y-98995000D01*
X88614505Y-98996204D01*
X88614505Y-98996204D01*
G37*
D13*
G04 #@! TD*
G04 #@! TO.P,R8,2*
G04 #@! TO.N,GND*
X88265000Y-99695000D03*
D12*
G04 #@! TO.N,TX2*
G04 #@! TO.C,R8*
G36*
X90664505Y-98996204D02*
X90688773Y-98999804D01*
X90712572Y-99005765D01*
X90735671Y-99014030D01*
X90757850Y-99024520D01*
X90778893Y-99037132D01*
X90798599Y-99051747D01*
X90816777Y-99068223D01*
X90833253Y-99086401D01*
X90847868Y-99106107D01*
X90860480Y-99127150D01*
X90870970Y-99149329D01*
X90879235Y-99172428D01*
X90885196Y-99196227D01*
X90888796Y-99220495D01*
X90890000Y-99244999D01*
X90890000Y-100145001D01*
X90888796Y-100169505D01*
X90885196Y-100193773D01*
X90879235Y-100217572D01*
X90870970Y-100240671D01*
X90860480Y-100262850D01*
X90847868Y-100283893D01*
X90833253Y-100303599D01*
X90816777Y-100321777D01*
X90798599Y-100338253D01*
X90778893Y-100352868D01*
X90757850Y-100365480D01*
X90735671Y-100375970D01*
X90712572Y-100384235D01*
X90688773Y-100390196D01*
X90664505Y-100393796D01*
X90640001Y-100395000D01*
X89989999Y-100395000D01*
X89965495Y-100393796D01*
X89941227Y-100390196D01*
X89917428Y-100384235D01*
X89894329Y-100375970D01*
X89872150Y-100365480D01*
X89851107Y-100352868D01*
X89831401Y-100338253D01*
X89813223Y-100321777D01*
X89796747Y-100303599D01*
X89782132Y-100283893D01*
X89769520Y-100262850D01*
X89759030Y-100240671D01*
X89750765Y-100217572D01*
X89744804Y-100193773D01*
X89741204Y-100169505D01*
X89740000Y-100145001D01*
X89740000Y-99244999D01*
X89741204Y-99220495D01*
X89744804Y-99196227D01*
X89750765Y-99172428D01*
X89759030Y-99149329D01*
X89769520Y-99127150D01*
X89782132Y-99106107D01*
X89796747Y-99086401D01*
X89813223Y-99068223D01*
X89831401Y-99051747D01*
X89851107Y-99037132D01*
X89872150Y-99024520D01*
X89894329Y-99014030D01*
X89917428Y-99005765D01*
X89941227Y-98999804D01*
X89965495Y-98996204D01*
X89989999Y-98995000D01*
X90640001Y-98995000D01*
X90664505Y-98996204D01*
X90664505Y-98996204D01*
G37*
D13*
G04 #@! TD*
G04 #@! TO.P,R8,1*
G04 #@! TO.N,TX2*
X90315000Y-99695000D03*
D12*
G04 #@! TO.N,Net-(D2-Pad1)*
G04 #@! TO.C,R9*
G36*
X102974505Y-69786204D02*
X102998773Y-69789804D01*
X103022572Y-69795765D01*
X103045671Y-69804030D01*
X103067850Y-69814520D01*
X103088893Y-69827132D01*
X103108599Y-69841747D01*
X103126777Y-69858223D01*
X103143253Y-69876401D01*
X103157868Y-69896107D01*
X103170480Y-69917150D01*
X103180970Y-69939329D01*
X103189235Y-69962428D01*
X103195196Y-69986227D01*
X103198796Y-70010495D01*
X103200000Y-70034999D01*
X103200000Y-70935001D01*
X103198796Y-70959505D01*
X103195196Y-70983773D01*
X103189235Y-71007572D01*
X103180970Y-71030671D01*
X103170480Y-71052850D01*
X103157868Y-71073893D01*
X103143253Y-71093599D01*
X103126777Y-71111777D01*
X103108599Y-71128253D01*
X103088893Y-71142868D01*
X103067850Y-71155480D01*
X103045671Y-71165970D01*
X103022572Y-71174235D01*
X102998773Y-71180196D01*
X102974505Y-71183796D01*
X102950001Y-71185000D01*
X102299999Y-71185000D01*
X102275495Y-71183796D01*
X102251227Y-71180196D01*
X102227428Y-71174235D01*
X102204329Y-71165970D01*
X102182150Y-71155480D01*
X102161107Y-71142868D01*
X102141401Y-71128253D01*
X102123223Y-71111777D01*
X102106747Y-71093599D01*
X102092132Y-71073893D01*
X102079520Y-71052850D01*
X102069030Y-71030671D01*
X102060765Y-71007572D01*
X102054804Y-70983773D01*
X102051204Y-70959505D01*
X102050000Y-70935001D01*
X102050000Y-70034999D01*
X102051204Y-70010495D01*
X102054804Y-69986227D01*
X102060765Y-69962428D01*
X102069030Y-69939329D01*
X102079520Y-69917150D01*
X102092132Y-69896107D01*
X102106747Y-69876401D01*
X102123223Y-69858223D01*
X102141401Y-69841747D01*
X102161107Y-69827132D01*
X102182150Y-69814520D01*
X102204329Y-69804030D01*
X102227428Y-69795765D01*
X102251227Y-69789804D01*
X102275495Y-69786204D01*
X102299999Y-69785000D01*
X102950001Y-69785000D01*
X102974505Y-69786204D01*
X102974505Y-69786204D01*
G37*
D13*
G04 #@! TD*
G04 #@! TO.P,R9,2*
G04 #@! TO.N,Net-(D2-Pad1)*
X102625000Y-70485000D03*
D12*
G04 #@! TO.N,GND*
G04 #@! TO.C,R9*
G36*
X100924505Y-69786204D02*
X100948773Y-69789804D01*
X100972572Y-69795765D01*
X100995671Y-69804030D01*
X101017850Y-69814520D01*
X101038893Y-69827132D01*
X101058599Y-69841747D01*
X101076777Y-69858223D01*
X101093253Y-69876401D01*
X101107868Y-69896107D01*
X101120480Y-69917150D01*
X101130970Y-69939329D01*
X101139235Y-69962428D01*
X101145196Y-69986227D01*
X101148796Y-70010495D01*
X101150000Y-70034999D01*
X101150000Y-70935001D01*
X101148796Y-70959505D01*
X101145196Y-70983773D01*
X101139235Y-71007572D01*
X101130970Y-71030671D01*
X101120480Y-71052850D01*
X101107868Y-71073893D01*
X101093253Y-71093599D01*
X101076777Y-71111777D01*
X101058599Y-71128253D01*
X101038893Y-71142868D01*
X101017850Y-71155480D01*
X100995671Y-71165970D01*
X100972572Y-71174235D01*
X100948773Y-71180196D01*
X100924505Y-71183796D01*
X100900001Y-71185000D01*
X100249999Y-71185000D01*
X100225495Y-71183796D01*
X100201227Y-71180196D01*
X100177428Y-71174235D01*
X100154329Y-71165970D01*
X100132150Y-71155480D01*
X100111107Y-71142868D01*
X100091401Y-71128253D01*
X100073223Y-71111777D01*
X100056747Y-71093599D01*
X100042132Y-71073893D01*
X100029520Y-71052850D01*
X100019030Y-71030671D01*
X100010765Y-71007572D01*
X100004804Y-70983773D01*
X100001204Y-70959505D01*
X100000000Y-70935001D01*
X100000000Y-70034999D01*
X100001204Y-70010495D01*
X100004804Y-69986227D01*
X100010765Y-69962428D01*
X100019030Y-69939329D01*
X100029520Y-69917150D01*
X100042132Y-69896107D01*
X100056747Y-69876401D01*
X100073223Y-69858223D01*
X100091401Y-69841747D01*
X100111107Y-69827132D01*
X100132150Y-69814520D01*
X100154329Y-69804030D01*
X100177428Y-69795765D01*
X100201227Y-69789804D01*
X100225495Y-69786204D01*
X100249999Y-69785000D01*
X100900001Y-69785000D01*
X100924505Y-69786204D01*
X100924505Y-69786204D01*
G37*
D13*
G04 #@! TD*
G04 #@! TO.P,R9,1*
G04 #@! TO.N,GND*
X100575000Y-70485000D03*
D17*
G04 #@! TO.P,U1,1*
G04 #@! TO.N,STATUS_LED*
X93980000Y-53340000D03*
D18*
G04 #@! TO.P,U1,21*
G04 #@! TO.N,MOTOR2B*
X109220000Y-101600000D03*
G04 #@! TO.P,U1,2*
G04 #@! TO.N,Net-(J4-Pad1)*
X93980000Y-55880000D03*
G04 #@! TO.P,U1,22*
G04 #@! TO.N,Net-(J5-Pad1)*
X109220000Y-99060000D03*
G04 #@! TO.P,U1,3*
G04 #@! TO.N,Net-(J4-Pad2)*
X93980000Y-58420000D03*
G04 #@! TO.P,U1,23*
G04 #@! TO.N,Net-(J5-Pad2)*
X109220000Y-96520000D03*
G04 #@! TO.P,U1,4*
G04 #@! TO.N,Net-(J4-Pad3)*
X93980000Y-60960000D03*
G04 #@! TO.P,U1,24*
G04 #@! TO.N,Net-(J5-Pad3)*
X109220000Y-93980000D03*
G04 #@! TO.P,U1,5*
G04 #@! TO.N,Net-(J4-Pad4)*
X93980000Y-63500000D03*
G04 #@! TO.P,U1,25*
G04 #@! TO.N,Net-(J5-Pad4)*
X109220000Y-91440000D03*
G04 #@! TO.P,U1,6*
G04 #@! TO.N,MOSI*
X93980000Y-66040000D03*
G04 #@! TO.P,U1,26*
G04 #@! TO.N,Net-(J5-Pad5)*
X109220000Y-88900000D03*
G04 #@! TO.P,U1,7*
G04 #@! TO.N,MISO*
X93980000Y-68580000D03*
G04 #@! TO.P,U1,27*
G04 #@! TO.N,Net-(J5-Pad6)*
X109220000Y-86360000D03*
G04 #@! TO.P,U1,8*
G04 #@! TO.N,SCK*
X93980000Y-71120000D03*
G04 #@! TO.P,U1,28*
G04 #@! TO.N,Net-(J5-Pad7)*
X109220000Y-83820000D03*
G04 #@! TO.P,U1,9*
G04 #@! TO.N,RESET*
X93980000Y-73660000D03*
G04 #@! TO.P,U1,29*
G04 #@! TO.N,Net-(J5-Pad8)*
X109220000Y-81280000D03*
G04 #@! TO.P,U1,10*
G04 #@! TO.N,+5V*
X93980000Y-76200000D03*
G04 #@! TO.P,U1,30*
X109220000Y-78740000D03*
G04 #@! TO.P,U1,11*
G04 #@! TO.N,GND*
X93980000Y-78740000D03*
G04 #@! TO.P,U1,31*
X109220000Y-76200000D03*
G04 #@! TO.P,U1,12*
G04 #@! TO.N,Net-(C2-Pad1)*
X93980000Y-81280000D03*
G04 #@! TO.P,U1,32*
G04 #@! TO.N,Net-(U1-Pad32)*
X109220000Y-73660000D03*
G04 #@! TO.P,U1,13*
G04 #@! TO.N,Net-(C1-Pad1)*
X93980000Y-83820000D03*
G04 #@! TO.P,U1,33*
G04 #@! TO.N,Net-(J3-Pad8)*
X109220000Y-71120000D03*
G04 #@! TO.P,U1,14*
G04 #@! TO.N,RX1*
X93980000Y-86360000D03*
G04 #@! TO.P,U1,34*
G04 #@! TO.N,Net-(J3-Pad7)*
X109220000Y-68580000D03*
G04 #@! TO.P,U1,15*
G04 #@! TO.N,TX1_INT*
X93980000Y-88900000D03*
G04 #@! TO.P,U1,35*
G04 #@! TO.N,Net-(J3-Pad6)*
X109220000Y-66040000D03*
G04 #@! TO.P,U1,16*
G04 #@! TO.N,RX2*
X93980000Y-91440000D03*
G04 #@! TO.P,U1,36*
G04 #@! TO.N,Net-(J3-Pad5)*
X109220000Y-63500000D03*
G04 #@! TO.P,U1,17*
G04 #@! TO.N,TX2_INT*
X93980000Y-93980000D03*
G04 #@! TO.P,U1,37*
G04 #@! TO.N,Net-(J3-Pad4)*
X109220000Y-60960000D03*
G04 #@! TO.P,U1,18*
G04 #@! TO.N,MOTOR2A*
X93980000Y-96520000D03*
G04 #@! TO.P,U1,38*
G04 #@! TO.N,Net-(J3-Pad3)*
X109220000Y-58420000D03*
G04 #@! TO.P,U1,19*
G04 #@! TO.N,MOTOR1B*
X93980000Y-99060000D03*
G04 #@! TO.P,U1,39*
G04 #@! TO.N,Net-(J3-Pad2)*
X109220000Y-55880000D03*
G04 #@! TO.P,U1,20*
G04 #@! TO.N,MOTOR1A*
X93980000Y-101600000D03*
G04 #@! TO.P,U1,40*
G04 #@! TO.N,V_IN*
X109220000Y-53340000D03*
G04 #@! TD*
D19*
G04 #@! TO.P,Y1,1*
G04 #@! TO.N,Net-(C1-Pad1)*
X88900000Y-86360000D03*
G04 #@! TO.P,Y1,2*
G04 #@! TO.N,Net-(C2-Pad1)*
X88900000Y-81480000D03*
G04 #@! TD*
D15*
G04 #@! TO.P,J5,1*
G04 #@! TO.N,Net-(J5-Pad1)*
X116840000Y-99060000D03*
D16*
G04 #@! TO.P,J5,2*
G04 #@! TO.N,Net-(J5-Pad2)*
X116840000Y-96520000D03*
G04 #@! TO.P,J5,3*
G04 #@! TO.N,Net-(J5-Pad3)*
X116840000Y-93980000D03*
G04 #@! TO.P,J5,4*
G04 #@! TO.N,Net-(J5-Pad4)*
X116840000Y-91440000D03*
G04 #@! TO.P,J5,5*
G04 #@! TO.N,Net-(J5-Pad5)*
X116840000Y-88900000D03*
G04 #@! TO.P,J5,6*
G04 #@! TO.N,Net-(J5-Pad6)*
X116840000Y-86360000D03*
G04 #@! TO.P,J5,7*
G04 #@! TO.N,Net-(J5-Pad7)*
X116840000Y-83820000D03*
G04 #@! TO.P,J5,8*
G04 #@! TO.N,Net-(J5-Pad8)*
X116840000Y-81280000D03*
G04 #@! TD*
D15*
G04 #@! TO.P,J10,1*
G04 #@! TO.N,+5V*
X119380000Y-99060000D03*
D16*
G04 #@! TO.P,J10,2*
X119380000Y-96520000D03*
G04 #@! TO.P,J10,3*
X119380000Y-93980000D03*
G04 #@! TO.P,J10,4*
X119380000Y-91440000D03*
G04 #@! TO.P,J10,5*
X119380000Y-88900000D03*
G04 #@! TO.P,J10,6*
X119380000Y-86360000D03*
G04 #@! TO.P,J10,7*
X119380000Y-83820000D03*
G04 #@! TO.P,J10,8*
X119380000Y-81280000D03*
G04 #@! TD*
G04 #@! TO.P,J15,8*
G04 #@! TO.N,GND*
X121920000Y-81280000D03*
G04 #@! TO.P,J15,7*
X121920000Y-83820000D03*
G04 #@! TO.P,J15,6*
X121920000Y-86360000D03*
G04 #@! TO.P,J15,5*
X121920000Y-88900000D03*
G04 #@! TO.P,J15,4*
X121920000Y-91440000D03*
G04 #@! TO.P,J15,3*
X121920000Y-93980000D03*
G04 #@! TO.P,J15,2*
X121920000Y-96520000D03*
D15*
G04 #@! TO.P,J15,1*
X121920000Y-99060000D03*
G04 #@! TD*
D10*
G04 #@! TO.P,U2,1*
G04 #@! TO.N,+BATT*
X133985000Y-104140000D03*
D11*
G04 #@! TO.P,U2,5*
G04 #@! TO.N,GND*
X141605000Y-111760000D03*
G04 #@! TO.P,U2,2*
G04 #@! TO.N,MOTOR1A*
X133985000Y-106680000D03*
G04 #@! TO.P,U2,6*
G04 #@! TO.N,Net-(D3-Pad2)*
X141605000Y-109220000D03*
G04 #@! TO.P,U2,3*
G04 #@! TO.N,Net-(U2-Pad3)*
X133985000Y-109220000D03*
G04 #@! TO.P,U2,7*
G04 #@! TO.N,Net-(D3-Pad2)*
X141605000Y-106680000D03*
G04 #@! TO.P,U2,4*
G04 #@! TO.N,GND*
X133985000Y-111760000D03*
G04 #@! TO.P,U2,8*
G04 #@! TO.N,+BATT*
X141605000Y-104140000D03*
G04 #@! TD*
G04 #@! TO.P,U3,8*
G04 #@! TO.N,+BATT*
X141605000Y-91440000D03*
G04 #@! TO.P,U3,4*
G04 #@! TO.N,GND*
X133985000Y-99060000D03*
G04 #@! TO.P,U3,7*
G04 #@! TO.N,Net-(D4-Pad2)*
X141605000Y-93980000D03*
G04 #@! TO.P,U3,3*
G04 #@! TO.N,Net-(U3-Pad3)*
X133985000Y-96520000D03*
G04 #@! TO.P,U3,6*
G04 #@! TO.N,Net-(D4-Pad2)*
X141605000Y-96520000D03*
G04 #@! TO.P,U3,2*
G04 #@! TO.N,MOTOR1B*
X133985000Y-93980000D03*
G04 #@! TO.P,U3,5*
G04 #@! TO.N,GND*
X141605000Y-99060000D03*
D10*
G04 #@! TO.P,U3,1*
G04 #@! TO.N,+BATT*
X133985000Y-91440000D03*
G04 #@! TD*
D11*
G04 #@! TO.P,U5,8*
G04 #@! TO.N,+BATT*
X141605000Y-66040000D03*
G04 #@! TO.P,U5,4*
G04 #@! TO.N,GND*
X133985000Y-73660000D03*
G04 #@! TO.P,U5,7*
G04 #@! TO.N,Net-(D6-Pad2)*
X141605000Y-68580000D03*
G04 #@! TO.P,U5,3*
G04 #@! TO.N,Net-(U5-Pad3)*
X133985000Y-71120000D03*
G04 #@! TO.P,U5,6*
G04 #@! TO.N,Net-(D6-Pad2)*
X141605000Y-71120000D03*
G04 #@! TO.P,U5,2*
G04 #@! TO.N,MOTOR2B*
X133985000Y-68580000D03*
G04 #@! TO.P,U5,5*
G04 #@! TO.N,GND*
X141605000Y-73660000D03*
D10*
G04 #@! TO.P,U5,1*
G04 #@! TO.N,+BATT*
X133985000Y-66040000D03*
G04 #@! TD*
D17*
G04 #@! TO.P,C4,1*
G04 #@! TO.N,+5V*
X86360000Y-103505000D03*
D20*
G04 #@! TO.P,C4,2*
G04 #@! TO.N,GND*
X86360000Y-106005000D03*
G04 #@! TD*
D12*
G04 #@! TO.N,+5V*
G04 #@! TO.C,C5*
G36*
X90430779Y-104011144D02*
X90453834Y-104014563D01*
X90476443Y-104020227D01*
X90498387Y-104028079D01*
X90519457Y-104038044D01*
X90539448Y-104050026D01*
X90558168Y-104063910D01*
X90575438Y-104079562D01*
X90591090Y-104096832D01*
X90604974Y-104115552D01*
X90616956Y-104135543D01*
X90626921Y-104156613D01*
X90634773Y-104178557D01*
X90640437Y-104201166D01*
X90643856Y-104224221D01*
X90645000Y-104247500D01*
X90645000Y-104822500D01*
X90643856Y-104845779D01*
X90640437Y-104868834D01*
X90634773Y-104891443D01*
X90626921Y-104913387D01*
X90616956Y-104934457D01*
X90604974Y-104954448D01*
X90591090Y-104973168D01*
X90575438Y-104990438D01*
X90558168Y-105006090D01*
X90539448Y-105019974D01*
X90519457Y-105031956D01*
X90498387Y-105041921D01*
X90476443Y-105049773D01*
X90453834Y-105055437D01*
X90430779Y-105058856D01*
X90407500Y-105060000D01*
X89932500Y-105060000D01*
X89909221Y-105058856D01*
X89886166Y-105055437D01*
X89863557Y-105049773D01*
X89841613Y-105041921D01*
X89820543Y-105031956D01*
X89800552Y-105019974D01*
X89781832Y-105006090D01*
X89764562Y-104990438D01*
X89748910Y-104973168D01*
X89735026Y-104954448D01*
X89723044Y-104934457D01*
X89713079Y-104913387D01*
X89705227Y-104891443D01*
X89699563Y-104868834D01*
X89696144Y-104845779D01*
X89695000Y-104822500D01*
X89695000Y-104247500D01*
X89696144Y-104224221D01*
X89699563Y-104201166D01*
X89705227Y-104178557D01*
X89713079Y-104156613D01*
X89723044Y-104135543D01*
X89735026Y-104115552D01*
X89748910Y-104096832D01*
X89764562Y-104079562D01*
X89781832Y-104063910D01*
X89800552Y-104050026D01*
X89820543Y-104038044D01*
X89841613Y-104028079D01*
X89863557Y-104020227D01*
X89886166Y-104014563D01*
X89909221Y-104011144D01*
X89932500Y-104010000D01*
X90407500Y-104010000D01*
X90430779Y-104011144D01*
X90430779Y-104011144D01*
G37*
D21*
G04 #@! TD*
G04 #@! TO.P,C5,1*
G04 #@! TO.N,+5V*
X90170000Y-104535000D03*
D12*
G04 #@! TO.N,GND*
G04 #@! TO.C,C5*
G36*
X90430779Y-105761144D02*
X90453834Y-105764563D01*
X90476443Y-105770227D01*
X90498387Y-105778079D01*
X90519457Y-105788044D01*
X90539448Y-105800026D01*
X90558168Y-105813910D01*
X90575438Y-105829562D01*
X90591090Y-105846832D01*
X90604974Y-105865552D01*
X90616956Y-105885543D01*
X90626921Y-105906613D01*
X90634773Y-105928557D01*
X90640437Y-105951166D01*
X90643856Y-105974221D01*
X90645000Y-105997500D01*
X90645000Y-106572500D01*
X90643856Y-106595779D01*
X90640437Y-106618834D01*
X90634773Y-106641443D01*
X90626921Y-106663387D01*
X90616956Y-106684457D01*
X90604974Y-106704448D01*
X90591090Y-106723168D01*
X90575438Y-106740438D01*
X90558168Y-106756090D01*
X90539448Y-106769974D01*
X90519457Y-106781956D01*
X90498387Y-106791921D01*
X90476443Y-106799773D01*
X90453834Y-106805437D01*
X90430779Y-106808856D01*
X90407500Y-106810000D01*
X89932500Y-106810000D01*
X89909221Y-106808856D01*
X89886166Y-106805437D01*
X89863557Y-106799773D01*
X89841613Y-106791921D01*
X89820543Y-106781956D01*
X89800552Y-106769974D01*
X89781832Y-106756090D01*
X89764562Y-106740438D01*
X89748910Y-106723168D01*
X89735026Y-106704448D01*
X89723044Y-106684457D01*
X89713079Y-106663387D01*
X89705227Y-106641443D01*
X89699563Y-106618834D01*
X89696144Y-106595779D01*
X89695000Y-106572500D01*
X89695000Y-105997500D01*
X89696144Y-105974221D01*
X89699563Y-105951166D01*
X89705227Y-105928557D01*
X89713079Y-105906613D01*
X89723044Y-105885543D01*
X89735026Y-105865552D01*
X89748910Y-105846832D01*
X89764562Y-105829562D01*
X89781832Y-105813910D01*
X89800552Y-105800026D01*
X89820543Y-105788044D01*
X89841613Y-105778079D01*
X89863557Y-105770227D01*
X89886166Y-105764563D01*
X89909221Y-105761144D01*
X89932500Y-105760000D01*
X90407500Y-105760000D01*
X90430779Y-105761144D01*
X90430779Y-105761144D01*
G37*
D21*
G04 #@! TD*
G04 #@! TO.P,C5,2*
G04 #@! TO.N,GND*
X90170000Y-106285000D03*
D12*
G04 #@! TO.N,GND*
G04 #@! TO.C,C6*
G36*
X90430779Y-107581144D02*
X90453834Y-107584563D01*
X90476443Y-107590227D01*
X90498387Y-107598079D01*
X90519457Y-107608044D01*
X90539448Y-107620026D01*
X90558168Y-107633910D01*
X90575438Y-107649562D01*
X90591090Y-107666832D01*
X90604974Y-107685552D01*
X90616956Y-107705543D01*
X90626921Y-107726613D01*
X90634773Y-107748557D01*
X90640437Y-107771166D01*
X90643856Y-107794221D01*
X90645000Y-107817500D01*
X90645000Y-108392500D01*
X90643856Y-108415779D01*
X90640437Y-108438834D01*
X90634773Y-108461443D01*
X90626921Y-108483387D01*
X90616956Y-108504457D01*
X90604974Y-108524448D01*
X90591090Y-108543168D01*
X90575438Y-108560438D01*
X90558168Y-108576090D01*
X90539448Y-108589974D01*
X90519457Y-108601956D01*
X90498387Y-108611921D01*
X90476443Y-108619773D01*
X90453834Y-108625437D01*
X90430779Y-108628856D01*
X90407500Y-108630000D01*
X89932500Y-108630000D01*
X89909221Y-108628856D01*
X89886166Y-108625437D01*
X89863557Y-108619773D01*
X89841613Y-108611921D01*
X89820543Y-108601956D01*
X89800552Y-108589974D01*
X89781832Y-108576090D01*
X89764562Y-108560438D01*
X89748910Y-108543168D01*
X89735026Y-108524448D01*
X89723044Y-108504457D01*
X89713079Y-108483387D01*
X89705227Y-108461443D01*
X89699563Y-108438834D01*
X89696144Y-108415779D01*
X89695000Y-108392500D01*
X89695000Y-107817500D01*
X89696144Y-107794221D01*
X89699563Y-107771166D01*
X89705227Y-107748557D01*
X89713079Y-107726613D01*
X89723044Y-107705543D01*
X89735026Y-107685552D01*
X89748910Y-107666832D01*
X89764562Y-107649562D01*
X89781832Y-107633910D01*
X89800552Y-107620026D01*
X89820543Y-107608044D01*
X89841613Y-107598079D01*
X89863557Y-107590227D01*
X89886166Y-107584563D01*
X89909221Y-107581144D01*
X89932500Y-107580000D01*
X90407500Y-107580000D01*
X90430779Y-107581144D01*
X90430779Y-107581144D01*
G37*
D21*
G04 #@! TD*
G04 #@! TO.P,C6,2*
G04 #@! TO.N,GND*
X90170000Y-108105000D03*
D12*
G04 #@! TO.N,Net-(C6-Pad1)*
G04 #@! TO.C,C6*
G36*
X90430779Y-109331144D02*
X90453834Y-109334563D01*
X90476443Y-109340227D01*
X90498387Y-109348079D01*
X90519457Y-109358044D01*
X90539448Y-109370026D01*
X90558168Y-109383910D01*
X90575438Y-109399562D01*
X90591090Y-109416832D01*
X90604974Y-109435552D01*
X90616956Y-109455543D01*
X90626921Y-109476613D01*
X90634773Y-109498557D01*
X90640437Y-109521166D01*
X90643856Y-109544221D01*
X90645000Y-109567500D01*
X90645000Y-110142500D01*
X90643856Y-110165779D01*
X90640437Y-110188834D01*
X90634773Y-110211443D01*
X90626921Y-110233387D01*
X90616956Y-110254457D01*
X90604974Y-110274448D01*
X90591090Y-110293168D01*
X90575438Y-110310438D01*
X90558168Y-110326090D01*
X90539448Y-110339974D01*
X90519457Y-110351956D01*
X90498387Y-110361921D01*
X90476443Y-110369773D01*
X90453834Y-110375437D01*
X90430779Y-110378856D01*
X90407500Y-110380000D01*
X89932500Y-110380000D01*
X89909221Y-110378856D01*
X89886166Y-110375437D01*
X89863557Y-110369773D01*
X89841613Y-110361921D01*
X89820543Y-110351956D01*
X89800552Y-110339974D01*
X89781832Y-110326090D01*
X89764562Y-110310438D01*
X89748910Y-110293168D01*
X89735026Y-110274448D01*
X89723044Y-110254457D01*
X89713079Y-110233387D01*
X89705227Y-110211443D01*
X89699563Y-110188834D01*
X89696144Y-110165779D01*
X89695000Y-110142500D01*
X89695000Y-109567500D01*
X89696144Y-109544221D01*
X89699563Y-109521166D01*
X89705227Y-109498557D01*
X89713079Y-109476613D01*
X89723044Y-109455543D01*
X89735026Y-109435552D01*
X89748910Y-109416832D01*
X89764562Y-109399562D01*
X89781832Y-109383910D01*
X89800552Y-109370026D01*
X89820543Y-109358044D01*
X89841613Y-109348079D01*
X89863557Y-109340227D01*
X89886166Y-109334563D01*
X89909221Y-109331144D01*
X89932500Y-109330000D01*
X90407500Y-109330000D01*
X90430779Y-109331144D01*
X90430779Y-109331144D01*
G37*
D21*
G04 #@! TD*
G04 #@! TO.P,C6,1*
G04 #@! TO.N,Net-(C6-Pad1)*
X90170000Y-109855000D03*
D15*
G04 #@! TO.P,J6,1*
G04 #@! TO.N,Net-(C6-Pad1)*
X81915000Y-106045000D03*
D16*
G04 #@! TO.P,J6,2*
G04 #@! TO.N,GND*
X81915000Y-103505000D03*
G04 #@! TD*
G04 #@! TO.P,J7,2*
G04 #@! TO.N,GND*
X78740000Y-103505000D03*
D15*
G04 #@! TO.P,J7,1*
G04 #@! TO.N,Net-(C6-Pad1)*
X78740000Y-106045000D03*
G04 #@! TD*
D22*
G04 #@! TO.P,U6,2*
G04 #@! TO.N,Net-(C6-Pad1)*
X95490000Y-112370000D03*
D23*
X95490000Y-106070000D03*
G04 #@! TO.P,U6,3*
G04 #@! TO.N,+5V*
X93190000Y-106070000D03*
G04 #@! TO.P,U6,1*
G04 #@! TO.N,GND*
X97790000Y-106070000D03*
G04 #@! TD*
D17*
G04 #@! TO.P,C7,1*
G04 #@! TO.N,Net-(C6-Pad1)*
X86360000Y-109855000D03*
D20*
G04 #@! TO.P,C7,2*
G04 #@! TO.N,GND*
X86360000Y-112355000D03*
G04 #@! TD*
D15*
G04 #@! TO.P,J11,1*
G04 #@! TO.N,RESET*
X91440000Y-73660000D03*
G04 #@! TD*
D12*
G04 #@! TO.N,MISO*
G04 #@! TO.C,R10*
G36*
X92179505Y-67881204D02*
X92203773Y-67884804D01*
X92227572Y-67890765D01*
X92250671Y-67899030D01*
X92272850Y-67909520D01*
X92293893Y-67922132D01*
X92313599Y-67936747D01*
X92331777Y-67953223D01*
X92348253Y-67971401D01*
X92362868Y-67991107D01*
X92375480Y-68012150D01*
X92385970Y-68034329D01*
X92394235Y-68057428D01*
X92400196Y-68081227D01*
X92403796Y-68105495D01*
X92405000Y-68129999D01*
X92405000Y-69030001D01*
X92403796Y-69054505D01*
X92400196Y-69078773D01*
X92394235Y-69102572D01*
X92385970Y-69125671D01*
X92375480Y-69147850D01*
X92362868Y-69168893D01*
X92348253Y-69188599D01*
X92331777Y-69206777D01*
X92313599Y-69223253D01*
X92293893Y-69237868D01*
X92272850Y-69250480D01*
X92250671Y-69260970D01*
X92227572Y-69269235D01*
X92203773Y-69275196D01*
X92179505Y-69278796D01*
X92155001Y-69280000D01*
X91504999Y-69280000D01*
X91480495Y-69278796D01*
X91456227Y-69275196D01*
X91432428Y-69269235D01*
X91409329Y-69260970D01*
X91387150Y-69250480D01*
X91366107Y-69237868D01*
X91346401Y-69223253D01*
X91328223Y-69206777D01*
X91311747Y-69188599D01*
X91297132Y-69168893D01*
X91284520Y-69147850D01*
X91274030Y-69125671D01*
X91265765Y-69102572D01*
X91259804Y-69078773D01*
X91256204Y-69054505D01*
X91255000Y-69030001D01*
X91255000Y-68129999D01*
X91256204Y-68105495D01*
X91259804Y-68081227D01*
X91265765Y-68057428D01*
X91274030Y-68034329D01*
X91284520Y-68012150D01*
X91297132Y-67991107D01*
X91311747Y-67971401D01*
X91328223Y-67953223D01*
X91346401Y-67936747D01*
X91366107Y-67922132D01*
X91387150Y-67909520D01*
X91409329Y-67899030D01*
X91432428Y-67890765D01*
X91456227Y-67884804D01*
X91480495Y-67881204D01*
X91504999Y-67880000D01*
X92155001Y-67880000D01*
X92179505Y-67881204D01*
X92179505Y-67881204D01*
G37*
D13*
G04 #@! TD*
G04 #@! TO.P,R10,2*
G04 #@! TO.N,MISO*
X91830000Y-68580000D03*
D12*
G04 #@! TO.N,Net-(J1-Pad2)*
G04 #@! TO.C,R10*
G36*
X90129505Y-67881204D02*
X90153773Y-67884804D01*
X90177572Y-67890765D01*
X90200671Y-67899030D01*
X90222850Y-67909520D01*
X90243893Y-67922132D01*
X90263599Y-67936747D01*
X90281777Y-67953223D01*
X90298253Y-67971401D01*
X90312868Y-67991107D01*
X90325480Y-68012150D01*
X90335970Y-68034329D01*
X90344235Y-68057428D01*
X90350196Y-68081227D01*
X90353796Y-68105495D01*
X90355000Y-68129999D01*
X90355000Y-69030001D01*
X90353796Y-69054505D01*
X90350196Y-69078773D01*
X90344235Y-69102572D01*
X90335970Y-69125671D01*
X90325480Y-69147850D01*
X90312868Y-69168893D01*
X90298253Y-69188599D01*
X90281777Y-69206777D01*
X90263599Y-69223253D01*
X90243893Y-69237868D01*
X90222850Y-69250480D01*
X90200671Y-69260970D01*
X90177572Y-69269235D01*
X90153773Y-69275196D01*
X90129505Y-69278796D01*
X90105001Y-69280000D01*
X89454999Y-69280000D01*
X89430495Y-69278796D01*
X89406227Y-69275196D01*
X89382428Y-69269235D01*
X89359329Y-69260970D01*
X89337150Y-69250480D01*
X89316107Y-69237868D01*
X89296401Y-69223253D01*
X89278223Y-69206777D01*
X89261747Y-69188599D01*
X89247132Y-69168893D01*
X89234520Y-69147850D01*
X89224030Y-69125671D01*
X89215765Y-69102572D01*
X89209804Y-69078773D01*
X89206204Y-69054505D01*
X89205000Y-69030001D01*
X89205000Y-68129999D01*
X89206204Y-68105495D01*
X89209804Y-68081227D01*
X89215765Y-68057428D01*
X89224030Y-68034329D01*
X89234520Y-68012150D01*
X89247132Y-67991107D01*
X89261747Y-67971401D01*
X89278223Y-67953223D01*
X89296401Y-67936747D01*
X89316107Y-67922132D01*
X89337150Y-67909520D01*
X89359329Y-67899030D01*
X89382428Y-67890765D01*
X89406227Y-67884804D01*
X89430495Y-67881204D01*
X89454999Y-67880000D01*
X90105001Y-67880000D01*
X90129505Y-67881204D01*
X90129505Y-67881204D01*
G37*
D13*
G04 #@! TD*
G04 #@! TO.P,R10,1*
G04 #@! TO.N,Net-(J1-Pad2)*
X89780000Y-68580000D03*
D12*
G04 #@! TO.N,GND*
G04 #@! TO.C,R11*
G36*
X88124505Y-67881204D02*
X88148773Y-67884804D01*
X88172572Y-67890765D01*
X88195671Y-67899030D01*
X88217850Y-67909520D01*
X88238893Y-67922132D01*
X88258599Y-67936747D01*
X88276777Y-67953223D01*
X88293253Y-67971401D01*
X88307868Y-67991107D01*
X88320480Y-68012150D01*
X88330970Y-68034329D01*
X88339235Y-68057428D01*
X88345196Y-68081227D01*
X88348796Y-68105495D01*
X88350000Y-68129999D01*
X88350000Y-69030001D01*
X88348796Y-69054505D01*
X88345196Y-69078773D01*
X88339235Y-69102572D01*
X88330970Y-69125671D01*
X88320480Y-69147850D01*
X88307868Y-69168893D01*
X88293253Y-69188599D01*
X88276777Y-69206777D01*
X88258599Y-69223253D01*
X88238893Y-69237868D01*
X88217850Y-69250480D01*
X88195671Y-69260970D01*
X88172572Y-69269235D01*
X88148773Y-69275196D01*
X88124505Y-69278796D01*
X88100001Y-69280000D01*
X87449999Y-69280000D01*
X87425495Y-69278796D01*
X87401227Y-69275196D01*
X87377428Y-69269235D01*
X87354329Y-69260970D01*
X87332150Y-69250480D01*
X87311107Y-69237868D01*
X87291401Y-69223253D01*
X87273223Y-69206777D01*
X87256747Y-69188599D01*
X87242132Y-69168893D01*
X87229520Y-69147850D01*
X87219030Y-69125671D01*
X87210765Y-69102572D01*
X87204804Y-69078773D01*
X87201204Y-69054505D01*
X87200000Y-69030001D01*
X87200000Y-68129999D01*
X87201204Y-68105495D01*
X87204804Y-68081227D01*
X87210765Y-68057428D01*
X87219030Y-68034329D01*
X87229520Y-68012150D01*
X87242132Y-67991107D01*
X87256747Y-67971401D01*
X87273223Y-67953223D01*
X87291401Y-67936747D01*
X87311107Y-67922132D01*
X87332150Y-67909520D01*
X87354329Y-67899030D01*
X87377428Y-67890765D01*
X87401227Y-67884804D01*
X87425495Y-67881204D01*
X87449999Y-67880000D01*
X88100001Y-67880000D01*
X88124505Y-67881204D01*
X88124505Y-67881204D01*
G37*
D13*
G04 #@! TD*
G04 #@! TO.P,R11,1*
G04 #@! TO.N,GND*
X87775000Y-68580000D03*
D12*
G04 #@! TO.N,Net-(J1-Pad2)*
G04 #@! TO.C,R11*
G36*
X86074505Y-67881204D02*
X86098773Y-67884804D01*
X86122572Y-67890765D01*
X86145671Y-67899030D01*
X86167850Y-67909520D01*
X86188893Y-67922132D01*
X86208599Y-67936747D01*
X86226777Y-67953223D01*
X86243253Y-67971401D01*
X86257868Y-67991107D01*
X86270480Y-68012150D01*
X86280970Y-68034329D01*
X86289235Y-68057428D01*
X86295196Y-68081227D01*
X86298796Y-68105495D01*
X86300000Y-68129999D01*
X86300000Y-69030001D01*
X86298796Y-69054505D01*
X86295196Y-69078773D01*
X86289235Y-69102572D01*
X86280970Y-69125671D01*
X86270480Y-69147850D01*
X86257868Y-69168893D01*
X86243253Y-69188599D01*
X86226777Y-69206777D01*
X86208599Y-69223253D01*
X86188893Y-69237868D01*
X86167850Y-69250480D01*
X86145671Y-69260970D01*
X86122572Y-69269235D01*
X86098773Y-69275196D01*
X86074505Y-69278796D01*
X86050001Y-69280000D01*
X85399999Y-69280000D01*
X85375495Y-69278796D01*
X85351227Y-69275196D01*
X85327428Y-69269235D01*
X85304329Y-69260970D01*
X85282150Y-69250480D01*
X85261107Y-69237868D01*
X85241401Y-69223253D01*
X85223223Y-69206777D01*
X85206747Y-69188599D01*
X85192132Y-69168893D01*
X85179520Y-69147850D01*
X85169030Y-69125671D01*
X85160765Y-69102572D01*
X85154804Y-69078773D01*
X85151204Y-69054505D01*
X85150000Y-69030001D01*
X85150000Y-68129999D01*
X85151204Y-68105495D01*
X85154804Y-68081227D01*
X85160765Y-68057428D01*
X85169030Y-68034329D01*
X85179520Y-68012150D01*
X85192132Y-67991107D01*
X85206747Y-67971401D01*
X85223223Y-67953223D01*
X85241401Y-67936747D01*
X85261107Y-67922132D01*
X85282150Y-67909520D01*
X85304329Y-67899030D01*
X85327428Y-67890765D01*
X85351227Y-67884804D01*
X85375495Y-67881204D01*
X85399999Y-67880000D01*
X86050001Y-67880000D01*
X86074505Y-67881204D01*
X86074505Y-67881204D01*
G37*
D13*
G04 #@! TD*
G04 #@! TO.P,R11,2*
G04 #@! TO.N,Net-(J1-Pad2)*
X85725000Y-68580000D03*
D24*
G04 #@! TO.N,GND*
X99060000Y-78994000D03*
X87376000Y-94615000D03*
X87376000Y-99695000D03*
X79756000Y-82550000D03*
X79756000Y-85090000D03*
X99695000Y-70485000D03*
X89281000Y-106299000D03*
X89281000Y-108077000D03*
X97409000Y-104775000D03*
X98425000Y-104775000D03*
X132969000Y-60325000D03*
X114681000Y-52324000D03*
X88265000Y-67310000D03*
G04 #@! TO.N,+5V*
X132080000Y-55880000D03*
G04 #@! TD*
D25*
G04 #@! TO.N,GND*
X83185000Y-53340000D02*
X83185000Y-55880000D01*
X83185000Y-55880000D02*
X83185000Y-58420000D01*
X83185000Y-58420000D02*
X83185000Y-60960000D01*
X80645000Y-82405000D02*
X80500000Y-82550000D01*
X121920000Y-71120000D02*
X121920000Y-68580000D01*
X121920000Y-68580000D02*
X121920000Y-66040000D01*
X121920000Y-66040000D02*
X121920000Y-63500000D01*
X121920000Y-63500000D02*
X121920000Y-60960000D01*
X121920000Y-60960000D02*
X121920000Y-58420000D01*
X121920000Y-58420000D02*
X121920000Y-55880000D01*
X121920000Y-55880000D02*
X121920000Y-53340000D01*
X141605000Y-73660000D02*
X140005000Y-73660000D01*
X121920000Y-52090000D02*
X121265000Y-51435000D01*
X121920000Y-53340000D02*
X121920000Y-52090000D01*
X114300000Y-51435000D02*
X113665000Y-52070000D01*
X121265000Y-51435000D02*
X114300000Y-51435000D01*
X87376000Y-99695000D02*
X88265000Y-99695000D01*
X87376000Y-94615000D02*
X88265000Y-94615000D01*
X99060000Y-78994000D02*
X99060000Y-78250000D01*
X79756000Y-82550000D02*
X80500000Y-82550000D01*
X79756000Y-85090000D02*
X80500000Y-85090000D01*
X79756000Y-89281000D02*
X80010000Y-89535000D01*
X99695000Y-70485000D02*
X100575000Y-70485000D01*
X90156000Y-106299000D02*
X90170000Y-106285000D01*
X89281000Y-106299000D02*
X90156000Y-106299000D01*
X90142000Y-108077000D02*
X90170000Y-108105000D01*
X89281000Y-108077000D02*
X90142000Y-108077000D01*
X97409000Y-105689000D02*
X97790000Y-106070000D01*
X97409000Y-104775000D02*
X97409000Y-105689000D01*
X97790000Y-105410000D02*
X98425000Y-104775000D01*
X97790000Y-106070000D02*
X97790000Y-105410000D01*
X132969000Y-60325000D02*
X132080000Y-60325000D01*
X114427000Y-52070000D02*
X114681000Y-52324000D01*
X113665000Y-52070000D02*
X114427000Y-52070000D01*
X88265000Y-68090000D02*
X87775000Y-68580000D01*
X88265000Y-67310000D02*
X88265000Y-68090000D01*
D26*
G04 #@! TO.N,Net-(C1-Pad1)*
X91440000Y-83820000D02*
X88900000Y-86360000D01*
X93980000Y-83820000D02*
X91440000Y-83820000D01*
X83820000Y-86360000D02*
X82550000Y-85090000D01*
X88900000Y-86360000D02*
X83820000Y-86360000D01*
G04 #@! TO.N,Net-(C2-Pad1)*
X89100000Y-81280000D02*
X88900000Y-81480000D01*
X93980000Y-81280000D02*
X89100000Y-81280000D01*
X83620000Y-81480000D02*
X82550000Y-82550000D01*
X88900000Y-81480000D02*
X83620000Y-81480000D01*
D25*
G04 #@! TO.N,+5V*
X93980000Y-76200000D02*
X83820000Y-76200000D01*
X83820000Y-76200000D02*
X80645000Y-76200000D01*
X77960000Y-68725000D02*
X85725000Y-60960000D01*
X85725000Y-60960000D02*
X85725000Y-58420000D01*
X85725000Y-58420000D02*
X85725000Y-55880000D01*
X85725000Y-55880000D02*
X85725000Y-53340000D01*
X82550000Y-97155000D02*
X82550000Y-94615000D01*
X82550000Y-94615000D02*
X82550000Y-92075000D01*
X82550000Y-92075000D02*
X82550000Y-89535000D01*
X93980000Y-76200000D02*
X99060000Y-76200000D01*
X99060000Y-76200000D02*
X102235000Y-76200000D01*
X104775000Y-78740000D02*
X109220000Y-78740000D01*
X102235000Y-76200000D02*
X104775000Y-78740000D01*
X119380000Y-71120000D02*
X119380000Y-68580000D01*
X119380000Y-68580000D02*
X119380000Y-66040000D01*
X119380000Y-66040000D02*
X119380000Y-63500000D01*
X119380000Y-63500000D02*
X119380000Y-60960000D01*
X119380000Y-60960000D02*
X119380000Y-58420000D01*
X119380000Y-58420000D02*
X119380000Y-55880000D01*
X119380000Y-55880000D02*
X119380000Y-53340000D01*
X116840000Y-78740000D02*
X119380000Y-81280000D01*
X109220000Y-78740000D02*
X116840000Y-78740000D01*
X119380000Y-81280000D02*
X119380000Y-71120000D01*
X132080000Y-57785000D02*
X132080000Y-55880000D01*
X119380000Y-81280000D02*
X119380000Y-83820000D01*
X119380000Y-83820000D02*
X119380000Y-86360000D01*
X119380000Y-86360000D02*
X119380000Y-88900000D01*
X119380000Y-88900000D02*
X119380000Y-91440000D01*
X119380000Y-91440000D02*
X119380000Y-93980000D01*
X119380000Y-93980000D02*
X119380000Y-96520000D01*
X119380000Y-96520000D02*
X119380000Y-99060000D01*
X84960000Y-103505000D02*
X86360000Y-103505000D01*
X82550000Y-101095000D02*
X84960000Y-103505000D01*
X82550000Y-97155000D02*
X82550000Y-101095000D01*
X89140000Y-103505000D02*
X90170000Y-104535000D01*
X86360000Y-103505000D02*
X89140000Y-103505000D01*
X91655000Y-104535000D02*
X93190000Y-106070000D01*
X90170000Y-104535000D02*
X91655000Y-104535000D01*
X77960000Y-72390000D02*
X77960000Y-68725000D01*
X77960000Y-73515000D02*
X80645000Y-76200000D01*
X77960000Y-72390000D02*
X77960000Y-73515000D01*
X78855999Y-85840999D02*
X82550000Y-89535000D01*
X79195000Y-76200000D02*
X78855999Y-76539001D01*
X78855999Y-76539001D02*
X78855999Y-85840999D01*
X80645000Y-76200000D02*
X79195000Y-76200000D01*
G04 #@! TO.N,Net-(D1-Pad1)*
X130030000Y-59525000D02*
X130030000Y-57785000D01*
X130030000Y-60325000D02*
X130030000Y-59525000D01*
D26*
G04 #@! TO.N,Net-(D2-Pad1)*
X111860001Y-74785001D02*
X112651628Y-75576628D01*
X112651628Y-75576628D02*
X113275000Y-76200000D01*
X106925001Y-74785001D02*
X111860001Y-74785001D01*
X102625000Y-70485000D02*
X106925001Y-74785001D01*
G04 #@! TO.N,STATUS_LED*
X108969997Y-72534999D02*
X101473000Y-65038002D01*
X115325000Y-76200000D02*
X111659999Y-72534999D01*
X111659999Y-72534999D02*
X108969997Y-72534999D01*
X95030000Y-53340000D02*
X93980000Y-53340000D01*
X101473000Y-59783000D02*
X95030000Y-53340000D01*
X101473000Y-65038002D02*
X101473000Y-59783000D01*
D25*
G04 #@! TO.N,+BATT*
X141605000Y-66040000D02*
X133985000Y-66040000D01*
X140005000Y-78740000D02*
X133985000Y-78740000D01*
X141605000Y-78740000D02*
X140005000Y-78740000D01*
X140005000Y-91440000D02*
X133985000Y-91440000D01*
X141605000Y-91440000D02*
X140005000Y-91440000D01*
X141605000Y-104140000D02*
X133985000Y-104140000D01*
X146055000Y-101700000D02*
X146055000Y-101600000D01*
X143615000Y-104140000D02*
X146055000Y-101700000D01*
X141605000Y-104140000D02*
X143615000Y-104140000D01*
X146055000Y-101600000D02*
X146055000Y-99060000D01*
X142005000Y-91440000D02*
X141605000Y-91440000D01*
X146055000Y-95490000D02*
X142005000Y-91440000D01*
X146055000Y-99060000D02*
X146055000Y-95490000D01*
X146055000Y-79640000D02*
X146055000Y-78740000D01*
X146055000Y-85790000D02*
X146055000Y-79640000D01*
X141605000Y-90240000D02*
X146055000Y-85790000D01*
X141605000Y-91440000D02*
X141605000Y-90240000D01*
X146055000Y-78740000D02*
X141605000Y-78740000D01*
X146055000Y-78740000D02*
X146055000Y-76200000D01*
X142005000Y-66040000D02*
X141605000Y-66040000D01*
X146055000Y-70090000D02*
X142005000Y-66040000D01*
X146055000Y-76200000D02*
X146055000Y-70090000D01*
G04 #@! TO.N,Net-(D3-Pad2)*
X141605000Y-106680000D02*
X141605000Y-109220000D01*
X147955000Y-101780000D02*
X147955000Y-101600000D01*
X143055000Y-106680000D02*
X147955000Y-101780000D01*
X141605000Y-106680000D02*
X143055000Y-106680000D01*
X147955000Y-101600000D02*
X150495000Y-101600000D01*
G04 #@! TO.N,Net-(D4-Pad2)*
X141605000Y-93980000D02*
X141605000Y-96520000D01*
X150495000Y-99060000D02*
X147955000Y-99060000D01*
G04 #@! TO.N,Net-(D5-Pad2)*
X141605000Y-81280000D02*
X141605000Y-83820000D01*
X150495000Y-78740000D02*
X147955000Y-78740000D01*
G04 #@! TO.N,Net-(D6-Pad2)*
X141605000Y-68580000D02*
X141605000Y-71120000D01*
X147955000Y-76200000D02*
X150495000Y-76200000D01*
D26*
G04 #@! TO.N,MOSI*
X83820000Y-66040000D02*
X93980000Y-66040000D01*
G04 #@! TO.N,MISO*
X91830000Y-68580000D02*
X93980000Y-68580000D01*
G04 #@! TO.N,SCK*
X83820000Y-71120000D02*
X93980000Y-71120000D01*
G04 #@! TO.N,RESET*
X93980000Y-73660000D02*
X83820000Y-73660000D01*
X80010000Y-72390000D02*
X81280000Y-73660000D01*
X81280000Y-73660000D02*
X83820000Y-73660000D01*
G04 #@! TO.N,V_EXT*
X115570000Y-53340000D02*
X116840000Y-53340000D01*
X113665000Y-55245000D02*
X115570000Y-53340000D01*
G04 #@! TO.N,Net-(J3-Pad2)*
X115570000Y-57150000D02*
X116840000Y-55880000D01*
X109220000Y-55880000D02*
X110490000Y-57150000D01*
X110490000Y-57150000D02*
X115570000Y-57150000D01*
G04 #@! TO.N,Net-(J3-Pad3)*
X109220000Y-58420000D02*
X116840000Y-58420000D01*
G04 #@! TO.N,Net-(J3-Pad4)*
X109220000Y-60960000D02*
X116840000Y-60960000D01*
G04 #@! TO.N,Net-(J3-Pad5)*
X109220000Y-63500000D02*
X116840000Y-63500000D01*
G04 #@! TO.N,Net-(J3-Pad6)*
X109220000Y-66040000D02*
X116840000Y-66040000D01*
G04 #@! TO.N,Net-(J3-Pad7)*
X109220000Y-68580000D02*
X116840000Y-68580000D01*
G04 #@! TO.N,Net-(J3-Pad8)*
X109220000Y-71120000D02*
X116840000Y-71120000D01*
G04 #@! TO.N,Net-(J4-Pad1)*
X89365000Y-53340000D02*
X91905000Y-55880000D01*
X88265000Y-53340000D02*
X89365000Y-53340000D01*
X91905000Y-55880000D02*
X93980000Y-55880000D01*
G04 #@! TO.N,Net-(J4-Pad2)*
X88265000Y-55880000D02*
X90170000Y-55880000D01*
X92710000Y-58420000D02*
X93980000Y-58420000D01*
X90170000Y-55880000D02*
X92710000Y-58420000D01*
G04 #@! TO.N,Net-(J4-Pad3)*
X88265000Y-58420000D02*
X90170000Y-58420000D01*
X92710000Y-60960000D02*
X93980000Y-60960000D01*
X90170000Y-58420000D02*
X92710000Y-60960000D01*
G04 #@! TO.N,Net-(J4-Pad4)*
X88265000Y-60960000D02*
X90170000Y-60960000D01*
X92710000Y-63500000D02*
X93980000Y-63500000D01*
X90170000Y-60960000D02*
X92710000Y-63500000D01*
G04 #@! TO.N,Net-(J5-Pad1)*
X109220000Y-99060000D02*
X116840000Y-99060000D01*
G04 #@! TO.N,Net-(J5-Pad2)*
X109220000Y-96520000D02*
X116840000Y-96520000D01*
G04 #@! TO.N,TX2*
X88265000Y-97645000D02*
X88265000Y-97155000D01*
X90315000Y-99695000D02*
X88265000Y-97645000D01*
X88265000Y-97155000D02*
X85090000Y-97155000D01*
G04 #@! TO.N,TX1*
X88265000Y-92565000D02*
X88265000Y-92075000D01*
X90315000Y-94615000D02*
X88265000Y-92565000D01*
X88265000Y-92075000D02*
X85090000Y-92075000D01*
G04 #@! TO.N,RX1*
X89535000Y-89535000D02*
X85090000Y-89535000D01*
X93980000Y-86360000D02*
X92710000Y-86360000D01*
X92710000Y-86360000D02*
X89535000Y-89535000D01*
G04 #@! TO.N,V_IN*
X111125000Y-55245000D02*
X111615000Y-55245000D01*
X109220000Y-53340000D02*
X111125000Y-55245000D01*
X111615000Y-55245000D02*
X111615000Y-52070000D01*
G04 #@! TO.N,TX1_INT*
X90805000Y-92075000D02*
X90315000Y-92075000D01*
X93980000Y-88900000D02*
X90805000Y-92075000D01*
G04 #@! TO.N,TX2_INT*
X93490000Y-93980000D02*
X93980000Y-93980000D01*
X90315000Y-97155000D02*
X93490000Y-93980000D01*
G04 #@! TO.N,MOTOR1A*
X130530021Y-103625021D02*
X96005021Y-103625021D01*
X94779999Y-102399999D02*
X93980000Y-101600000D01*
X133585000Y-106680000D02*
X130530021Y-103625021D01*
X96005021Y-103625021D02*
X94779999Y-102399999D01*
X133985000Y-106680000D02*
X133585000Y-106680000D01*
G04 #@! TO.N,MOTOR1B*
X94779999Y-99859999D02*
X93980000Y-99060000D01*
X98095011Y-103175011D02*
X94779999Y-99859999D01*
X122887809Y-103175011D02*
X98095011Y-103175011D01*
X132082820Y-93980000D02*
X122887809Y-103175011D01*
X133985000Y-93980000D02*
X132082820Y-93980000D01*
G04 #@! TO.N,MOTOR2A*
X100185001Y-102725001D02*
X94779999Y-97319999D01*
X122701409Y-102725001D02*
X100185001Y-102725001D01*
X131445000Y-81280000D02*
X125095000Y-87630000D01*
X133985000Y-81280000D02*
X131445000Y-81280000D01*
X125095000Y-87630000D02*
X125095000Y-100330000D01*
X125095000Y-100330000D02*
X124910010Y-100514990D01*
X124910010Y-100514990D02*
X124910009Y-100516401D01*
X94779999Y-97319999D02*
X93980000Y-96520000D01*
X124910009Y-100516401D02*
X122701409Y-102725001D01*
G04 #@! TO.N,MOTOR2B*
X123190000Y-101600000D02*
X109220000Y-101600000D01*
X124460000Y-100330000D02*
X123190000Y-101600000D01*
X133985000Y-68580000D02*
X133350000Y-68580000D01*
X124460000Y-77470000D02*
X124460000Y-100330000D01*
X133350000Y-68580000D02*
X124460000Y-77470000D01*
G04 #@! TO.N,Net-(J5-Pad3)*
X109220000Y-93980000D02*
X116840000Y-93980000D01*
G04 #@! TO.N,Net-(J5-Pad4)*
X109220000Y-91440000D02*
X116840000Y-91440000D01*
G04 #@! TO.N,Net-(J5-Pad5)*
X109220000Y-88900000D02*
X116840000Y-88900000D01*
G04 #@! TO.N,Net-(J5-Pad6)*
X109220000Y-86360000D02*
X116840000Y-86360000D01*
G04 #@! TO.N,Net-(J5-Pad7)*
X109220000Y-83820000D02*
X116840000Y-83820000D01*
G04 #@! TO.N,Net-(J5-Pad8)*
X109220000Y-81280000D02*
X116840000Y-81280000D01*
D25*
G04 #@! TO.N,Net-(C6-Pad1)*
X95490000Y-106320000D02*
X95490000Y-112370000D01*
X95490000Y-106070000D02*
X95490000Y-106320000D01*
X92685000Y-112370000D02*
X90170000Y-109855000D01*
X95490000Y-112370000D02*
X92685000Y-112370000D01*
X90170000Y-109855000D02*
X86360000Y-109855000D01*
X81915000Y-107495000D02*
X81915000Y-106045000D01*
X84275000Y-109855000D02*
X81915000Y-107495000D01*
X86360000Y-109855000D02*
X84275000Y-109855000D01*
X81915000Y-106045000D02*
X78740000Y-106045000D01*
D26*
G04 #@! TO.N,Net-(J1-Pad2)*
X83820000Y-68580000D02*
X85725000Y-68580000D01*
X85725000Y-68580000D02*
X85725000Y-69850000D01*
X85725000Y-69850000D02*
X86360000Y-70485000D01*
X87875000Y-70485000D02*
X89780000Y-68580000D01*
X86360000Y-70485000D02*
X87875000Y-70485000D01*
G04 #@! TD*
M02*
