M48
;DRILL file {KiCad 5.0.1-33cea8e~68~ubuntu18.04.1} date jue 08 nov 2018 18:43:24 CET
;FORMAT={3:3/ absolute / metric / suppress leading zeros}
FMAT,2
METRIC,TZ
T1C0.400
T2C0.800
T3C1.000
T4C3.200
%
G90
G05
M71
T1
X79756Y-82550
X79756Y-85090
X87376Y-94615
X87376Y-100330
X89281Y-106299
X89281Y-108077
X97409Y-104775
X98425Y-104775
X99060Y-78994
X99695Y-70485
X114681Y-52324
X123735Y-100965
X125820Y-100965
X132080Y-55880
X132969Y-60325
T2
X133985Y-104140
X133985Y-106680
X133985Y-109220
X133985Y-111760
X141605Y-104140
X141605Y-106680
X141605Y-109220
X141605Y-111760
X86360Y-109855
X86360Y-112355
X88900Y-81480
X88900Y-86360
X133985Y-78740
X133985Y-81280
X133985Y-83820
X133985Y-86360
X141605Y-78740
X141605Y-81280
X141605Y-83820
X141605Y-86360
X93980Y-53340
X93980Y-55880
X93980Y-58420
X93980Y-60960
X93980Y-63500
X93980Y-66040
X93980Y-68580
X93980Y-71120
X93980Y-73660
X93980Y-76200
X93980Y-78740
X93980Y-81280
X93980Y-83820
X93980Y-86360
X93980Y-88900
X93980Y-91440
X93980Y-93980
X93980Y-96520
X93980Y-99060
X93980Y-101600
X109220Y-53340
X109220Y-55880
X109220Y-58420
X109220Y-60960
X109220Y-63500
X109220Y-66040
X109220Y-68580
X109220Y-71120
X109220Y-73660
X109220Y-76200
X109220Y-78740
X109220Y-81280
X109220Y-83820
X109220Y-86360
X109220Y-88900
X109220Y-91440
X109220Y-93980
X109220Y-96520
X109220Y-99060
X109220Y-101600
X133985Y-66040
X133985Y-68580
X133985Y-71120
X133985Y-73660
X141605Y-66040
X141605Y-68580
X141605Y-71120
X141605Y-73660
X86360Y-103505
X86360Y-106005
X133985Y-91440
X133985Y-93980
X133985Y-96520
X133985Y-99060
X141605Y-91440
X141605Y-93980
X141605Y-96520
X141605Y-99060
T3
X151130Y-76200
X151130Y-78740
X80645Y-76200
X80645Y-78740
X78740Y-103505
X78740Y-106045
X85725Y-53340
X85725Y-55880
X85725Y-58420
X85725Y-60960
X128270Y-66040
X128270Y-68580
X121920Y-55880
X121920Y-58420
X121920Y-60960
X121920Y-63500
X121920Y-66040
X121920Y-68580
X121920Y-71120
X119380Y-55880
X119380Y-58420
X119380Y-60960
X119380Y-63500
X119380Y-66040
X119380Y-68580
X119380Y-71120
X119380Y-81280
X119380Y-83820
X119380Y-86360
X119380Y-88900
X119380Y-91440
X119380Y-93980
X119380Y-96520
X119380Y-99060
X83185Y-53340
X83185Y-55880
X83185Y-58420
X83185Y-60960
X83820Y-66040
X83820Y-68580
X83820Y-71120
X83820Y-73660
X83820Y-76200
X83820Y-78740
X116840Y-81280
X116840Y-83820
X116840Y-86360
X116840Y-88900
X116840Y-91440
X116840Y-93980
X116840Y-96520
X116840Y-99060
X85090Y-89535
X85090Y-92075
X85090Y-94615
X85090Y-97155
X88265Y-53340
X88265Y-55880
X88265Y-58420
X88265Y-60960
X90805Y-73660
X82550Y-89535
X82550Y-92075
X82550Y-94615
X82550Y-97155
X116840Y-55880
X116840Y-58420
X116840Y-60960
X116840Y-63500
X116840Y-66040
X116840Y-68580
X116840Y-71120
X121920Y-81280
X121920Y-83820
X121920Y-86360
X121920Y-88900
X121920Y-91440
X121920Y-93980
X121920Y-96520
X121920Y-99060
X151130Y-99060
X151130Y-101600
X80010Y-89535
X80010Y-92075
X80010Y-94615
X80010Y-97155
X81915Y-103505
X81915Y-106045
T4
X78740Y-110490
X78740Y-54610
X149860Y-110490
X149860Y-54610
T0
M30
